{
.appVersion = "1252";
DisplayStrings = (
ABC,
B,
"/aogonek"
);
classes = (
{
code = "M Q R a j t u";
name = salt1;
},
{
code = "M.1 Q.1 R.1 a.1 j.1 t.1 u.1";
name = salt2;
}
);
copyright = "Copyright (c) 2017 by Matt Bailey. All rights reserved.";
customParameters = (
{
name = glyphOrder;
value = (
.notdef,
NULL,
CR,
space,
numbersign,
dollar,
percent,
ampersand,
quotesingle,
quotedbl,
parenleft,
parenright,
asterisk,
plus,
minus,
multiply,
divide,
less,
equal,
greater,
plusminus,
notequal,
lessequal,
greaterequal,
fraction,
comma,
hyphen,
period,
slash,
zero,
one,
two,
three,
four,
five,
six,
seven,
eight,
nine,
colon,
semicolon,
exclam,
question,
at,
A,
B,
C,
D,
E,
F,
G,
H,
I,
J,
K,
L,
M,
M.1,
N,
O,
P,
Q,
Q.1,
R,
R.1,
S,
T,
U,
V,
W,
X,
Y,
Z,
bracketleft,
backslash,
bracketright,
asciicircum,
underscore,
grave,
a,
a.1,
b,
c,
d,
e,
f,
g,
h,
i,
j,
j.1,
k,
l,
m,
n,
o,
p,
q,
r,
s,
t,
t.1,
u,
u.1,
v,
w,
x,
y,
z,
braceleft,
bar,
braceright,
asciitilde,
exclamdown,
cent,
sterling,
yen,
brokenbar,
section,
dieresis,
copyright,
ordfeminine,
guillemotleft,
registered,
macron,
degree,
onesuperior,
twosuperior,
threesuperior,
acute,
mu,
paragraph,
periodcentered,
cedilla,
ordmasculine,
guillemotright,
onequarter,
onehalf,
threequarters,
questiondown,
Agrave,
Aacute,
Acircumflex,
Atilde,
Adieresis,
Aring,
AE,
Ccedilla,
Egrave,
Eacute,
Ecircumflex,
Edieresis,
Igrave,
Iacute,
Icircumflex,
Idieresis,
Eth,
Ntilde,
Ograve,
Oacute,
Ocircumflex,
Otilde,
Odieresis,
Oslash,
Ugrave,
Uacute,
Ucircumflex,
Udieresis,
Yacute,
Ydieresis,
Thorn,
germandbls,
agrave,
aacute,
acircumflex,
atilde,
adieresis,
aring,
ae,
ccedilla,
egrave,
eacute,
ecircumflex,
edieresis,
igrave,
iacute,
icircumflex,
idieresis,
eth,
ntilde,
ograve,
oacute,
ocircumflex,
otilde,
odieresis,
oslash,
ugrave,
uacute,
ucircumflex,
udieresis,
yacute,
ydieresis,
thorn,
Amacron,
amacron,
Abreve,
abreve,
Aogonek,
aogonek,
Cacute,
cacute,
Ccaron,
ccaron,
Dcaron,
dcaron,
Dcroat,
dcroat,
Emacron,
emacron,
Edotaccent,
edotaccent,

glyphs = (
{
color = (153,249,255,255);
glyphname = numbersign;
lastChange = "2019-08-01 18:50:29 +0000";
layers = (
{
hints = (
{
horizontal = 1;
place = "{221, 142}";
type = Stem;
},
{
horizontal = 1;
place = "{491, 142}";
type = Stem;
},
{
horizontal = 1;
place = "{0, -20}";
target = down;
type = TopGhost;
},
{
horizontal = 1;
place = "{853, -20}";
target = down;
type = TopGhost;
},
{
place = "{68, 701}";
type = Stem;
}
);
layerId = "9d3a33de-08d4-49ee-85e3-2813f64ed4e4";
paths = (
{
closed = 1;
nodes = (
"68 633 LINE",
"68 491 LINE",
"202 491 LINE",
"187 363 LINE",
"68 363 LINE",
"68 221 LINE",
"170 221 LINE",
"145 0 LINE",
"286 0 LINE",
"311 221 LINE",
"474 221 LINE",
"449 0 LINE",
"590 0 LINE",
"615 221 LINE",
"769 221 LINE",
"769 363 LINE",
"633 363 LINE",
"648 491 LINE",
"769 491 LINE",
"769 633 LINE",
"664 633 LINE",
"691 853 LINE",
"549 853 LINE",
"523 633 LINE",
"360 633 LINE",
"387 853 LINE",
"245 853 LINE",
"219 633 LINE"
);
},
{
closed = 1;
nodes = (
"344 491 LINE",
"507 491 LINE",
"491 363 LINE",
"329 363 LINE"
);
}
);
width = 879;
},
{
hints = (
{
horizontal = 1;
place = "{476, -19}";
type = Stem;
},
{
horizontal = 1;
place = "{226, -19}";
type = Stem;
},
{
horizontal = 1;
place = "{0, -20}";
target = down;
type = TopGhost;
},
{
horizontal = 1;
place = "{684, -20}";
target = down;
type = TopGhost;
},
{
place = "{69, 467}";
type = Stem;
}
);
layerId = "0ac4930a-26e9-4cfa-a42f-96cf237e936b";
paths = (
{
closed = 1;
nodes = (
"69 476 LINE",
"69 457 LINE",
"194 457 LINE",
"161 226 LINE",
"69 226 LINE",
"69 207 LINE",
"158 207 LINE",
"129 0 LINE",
"148 0 LINE",
"177 207 LINE",
"390 207 LINE",
"361 0 LINE",
"380 0 LINE",
"409 207 LINE",
"536 207 LINE",
"536 226 LINE",
"411 226 LINE",
"444 457 LINE",
"536 457 LINE",
"536 476 LINE",
"447 476 LINE",
"476 684 LINE",
"457 684 LINE",
"428 476 LINE",
"215 476 LINE",
"244 684 LINE",
"225 684 LINE",
"196 476 LINE"
);
},
{
closed = 1;
nodes = (
"393 226 LINE",
"179 226 LINE",
"212 457 LINE",
"425 457 LINE"
);
}
);
width = 605;
}
);
rightKerningGroup = _A1;
unicode = 0023;
},
{
color = (153,249,255,255);
glyphname = dollar;
lastChange = "2019-08-01 18:50:29 +0000";
layers = (
{
hints = (
{
horizontal = 1;
place = "{-8, 196}";
type = Stem;
},
{
horizontal = 1;
place = "{640, 192}";
type = Stem;
},
{
horizontal = 1;
place = "{-138, -20}";
target = down;
type = TopGhost;
},
{
horizontal = 1;
place = "{963, -20}";
target = down;
type = TopGhost;
},
{
place = "{91, 216}";
type = Stem;
},
{
place = "{303, 125}";
type = Stem;
},
{
place = "{416, 242}";
type = Stem;
}
);
layerId = "9d3a33de-08d4-49ee-85e3-2813f64ed4e4";
paths = (
{
closed = 1;
nodes = (
"91 579 LINE SMOOTH",
"91 495 OFFCURVE",
"151 416 OFFCURVE",
"246 373 CURVE SMOOTH",
"352 325 OFFCURVE",
"416 296 OFFCURVE",
"416 246 CURVE SMOOTH",
"416 207 OFFCURVE",
"391 188 OFFCURVE",
"338 188 CURVE SMOOTH",
"233 188 OFFCURVE",
"123 266 OFFCURVE",
"123 266 CURVE",
"14 79 LINE",
"14 79 OFFCURVE",
"114 -7 OFFCURVE",
"303 -15 CURVE",
"303 -138 LINE",
"428 -138 LINE",
"428 -8 LINE",
"554 15 OFFCURVE",
"658 90 OFFCURVE",
"658 259 CURVE SMOOTH",
"658 408 OFFCURVE",
"507 480 OFFCURVE",
"400 520 CURVE SMOOTH",
"320 550 OFFCURVE",
"307 570 OFFCURVE",
"307 587 CURVE SMOOTH",
"307 623 OFFCURVE",
"335 640 OFFCURVE",
"387 640 CURVE SMOOTH",
"471 640 OFFCURVE",
"552 592 OFFCURVE",
"552 592 CURVE",
"639 769 LINE",
"639 769 OFFCURVE",
"555 823 OFFCURVE",
"428 837 CURVE",
"428 963 LINE",
"303 963 LINE",
"303 832 LINE",
"191 805 OFFCURVE",
"91 712 OFFCURVE",
"91 579 CURVE SMOOTH"
);
}
);
width = 678;
},
{
hints = (
{
horizontal = 1;
place = "{-15, 26}";
type = Stem;
},
{
horizontal = 1;
place = "{814, 26}";
type = Stem;
},
{
horizontal = 1;
place = "{963, -20}";
target = down;
type = TopGhost;
},
{
horizontal = 1;
place = "{-138, -20}";
target = down;
type = TopGhost;
},
{
place = "{116, 25}";
type = Stem;
},
{
place = "{326, 23}";
type = Stem;
},
{
place = "{547, 26}";
type = Stem;
}
);
layerId = "0ac4930a-26e9-4cfa-a42f-96cf237e936b";
paths = (
{
closed = 1;
nodes = (
"67 164 LINE",
"75 134 OFFCURVE",
"150 -14 OFFCURVE",
"326 -15 CURVE",
"326 -138 LINE",
"349 -138 LINE",
"349 -14 LINE",
"481 -6 OFFCURVE",
"573 79 OFFCURVE",
"573 206 CURVE SMOOTH",
"573 327 OFFCURVE",
"494 398 OFFCURVE",
"328 449 CURVE SMOOTH",
"222 481 OFFCURVE",
"141 530 OFFCURVE",
"141 629 CURVE SMOOTH",
"141 719 OFFCURVE",
"206 814 OFFCURVE",
"327 814 CURVE SMOOTH",
"418 814 OFFCURVE",
"481 759 OFFCURVE",
"501 708 CURVE",
"524 720 LINE",
"502 772 OFFCURVE",
"441 831 OFFCURVE",
"349 839 CURVE",
"349 963 LINE",
"326 963 LINE",
"326 840 LINE",
"208 840 OFFCURVE",
"116 752 OFFCURVE",
"116 629 CURVE SMOOTH",
"116 534 OFFCURVE",
"176 468 OFFCURVE",
"314 426 CURVE SMOOTH",
"474 377 OFFCURVE",
"547 314 OFFCURVE",
"547 206 CURVE SMOOTH",
"547 79 OFFCURVE",
"449 11 OFFCURVE",
"327 11 CURVE SMOOTH",
"167 11 OFFCURVE",
"100 143 OFFCURVE",
"89 175 CURVE"
);
}
);
width = 640;
}
);
leftKerningGroup = _S;
rightKerningGroup = _A1;
unicode = 0024;
},
{
color = (153,249,255,255);
glyphname = percent;
lastChange = "2019-08-01 18:50:29 +0000";
layers = (
{
hints = (
{
horizontal = 1;
place = "{-15, 122}";
type = Stem;
},
{
horizontal = 1;
place = "{257, 122}";
type = Stem;
},
{
horizontal = 1;
place = "{446, 122}";
type = Stem;
},
{
horizontal = 1;
place = "{718, 122}";
type = Stem;
},
{
horizontal = 1;
place = "{825, -20}";
target = down;
type = TopGhost;
},
{
horizontal = 1;
place = "{0, -20}";
target = down;
type = TopGhost;
},
{
place = "{16, 151}";
type = Stem;
},
{
place = "{321, 151}";
type = Stem;
},
{
place = "{503, 151}";
type = Stem;
},
{
place = "{808, 151}";
type = Stem;
},
{
place = "{181, 617}";
type = Stem;
}
);
layerId = "9d3a33de-08d4-49ee-85e3-2813f64ed4e4";
paths = (
{
closed = 1;
nodes = (
"16 643 LINE",
"16 527 OFFCURVE",
"115 446 OFFCURVE",
"244 446 CURVE SMOOTH",
"373 446 OFFCURVE",
"472 527 OFFCURVE",
"472 643 CURVE SMOOTH",
"472 759 OFFCURVE",
"373 840 OFFCURVE",
"244 840 CURVE SMOOTH",
"115 840 OFFCURVE",
"16 759 OFFCURVE",
"16 643 CURVE"
);
},
{
closed = 1;
nodes = (
"167 643 LINE",
"167 687 OFFCURVE",
"203 718 OFFCURVE",
"244 718 CURVE SMOOTH",
"285 718 OFFCURVE",
"321 687 OFFCURVE",
"321 643 CURVE SMOOTH",
"321 599 OFFCURVE",
"285 568 OFFCURVE",
"244 568 CURVE SMOOTH",
"203 568 OFFCURVE",
"167 599 OFFCURVE",
"167 643 CURVE"
);
},
{
closed = 1;
nodes = (
"503 182 LINE",
"503 66 OFFCURVE",
"602 -15 OFFCURVE",
"731 -15 CURVE SMOOTH",
"860 -15 OFFCURVE",
"959 66 OFFCURVE",
"959 182 CURVE SMOOTH",
"959 298 OFFCURVE",
"860 379 OFFCURVE",
"731 379 CURVE SMOOTH",
"602 379 OFFCURVE",
"503 298 OFFCURVE",
"503 182 CURVE"
);
},
{
closed = 1;
nodes = (
"654 182 LINE",
"654 226 OFFCURVE",
"690 257 OFFCURVE",
"731 257 CURVE SMOOTH",
"772 257 OFFCURVE",
"808 226 OFFCURVE",
"808 182 CURVE SMOOTH",
"808 138 OFFCURVE",
"772 107 OFFCURVE",
"731 107 CURVE SMOOTH",
"690 107 OFFCURVE",
"654 138 OFFCURVE",
"654 182 CURVE"
);
},
{
closed = 1;
nodes = (
"181 0 LINE",
"318 0 LINE",
"798 825 LINE",
"661 825 LINE"
);
}
);
width = 975;
},
{
hints = (
{
horizontal = 1;
place = "{840, -20}";
target = down;
type = TopGhost;
},
{
horizontal = 1;
place = "{-16, -20}";
target = down;
type = TopGhost;
},
{
horizontal = 1;
place = "{0, -20}";
target = down;
type = TopGhost;
},
{
horizontal = 1;
place = "{825, -20}";
target = down;
type = TopGhost;
},
{
horizontal = 1;
place = "{462, -16}";
type = Stem;
},
{
horizontal = 1;
place = "{840, -16}";
type = Stem;
},
{
horizontal = 1;
place = "{-16, 16}";
type = Stem;
},
{
horizontal = 1;
place = "{378, -16}";
type = Stem;
},
{
place = "{58, 19}";
type = Stem;
},
{
place = "{435, 18}";
type = Stem;
},
{
place = "{558, 19}";
type = Stem;
},
{
place = "{954, -19}";
type = Stem;
}
);
layerId = "0ac4930a-26e9-4cfa-a42f-96cf237e936b";
paths = (
{
closed = 1;
nodes = (
"58 643 LINE",
"58 527 OFFCURVE",
"144 446 OFFCURVE",
"256 446 CURVE SMOOTH",
"367 446 OFFCURVE",
"453 527 OFFCURVE",
"453 643 CURVE SMOOTH",
"453 759 OFFCURVE",
"367 840 OFFCURVE",
"256 840 CURVE SMOOTH",
"144 840 OFFCURVE",
"58 759 OFFCURVE",
"58 643 CURVE SMOOTH"
);
},
{
closed = 1;
nodes = (
"77 643 LINE",
"77 749 OFFCURVE",
"152 824 OFFCURVE",
"256 824 CURVE SMOOTH",
"359 824 OFFCURVE",
"435 749 OFFCURVE",
"435 643 CURVE SMOOTH",
"435 537 OFFCURVE",
"359 462 OFFCURVE",
"256 462 CURVE SMOOTH",
"152 462 OFFCURVE",
"77 537 OFFCURVE",
"77 643 CURVE SMOOTH"
);
},
{
closed = 1;
nodes = (
"558 181 LINE",
"558 65 OFFCURVE",
"645 -16 OFFCURVE",
"756 -16 CURVE SMOOTH",
"868 -16 OFFCURVE",
"954 65 OFFCURVE",
"954 181 CURVE SMOOTH",
"954 297 OFFCURVE",
"868 378 OFFCURVE",
"756 378 CURVE SMOOTH",
"645 378 OFFCURVE",
"558 297 OFFCURVE",
"558 181 CURVE SMOOTH"
);
},
{
closed = 1;
nodes = (
"577 181 LINE",
"577 287 OFFCURVE",
"653 362 OFFCURVE",
"756 362 CURVE SMOOTH",
"860 362 OFFCURVE",
"935 287 OFFCURVE",
"935 181 CURVE SMOOTH",
"935 75 OFFCURVE",
"860 0 OFFCURVE",
"756 0 CURVE SMOOTH",
"653 0 OFFCURVE",
"577 75 OFFCURVE",
"577 181 CURVE SMOOTH"
);
},
{
closed = 1;
nodes = (
"254 0 LINE",
"278 0 LINE",
"758 825 LINE",
"734 825 LINE"
);
}
);
width = 1012;
}
);
rightKerningGroup = _A1;
unicode = 0025;
},
{
color = (153,249,255,255);
glyphname = ampersand;
lastChange = "2019-08-01 18:50:29 +0000";
layers = (
{
hints = (
{
horizontal = 1;
place = "{-16, 210}";
type = Stem;
},
{
horizontal = 1;
place = "{687, 154}";
type = Stem;
},
{
place = "{20, 251}";
type = Stem;
},
{
place = "{147, 225}";
type = Stem;
},
{
place = "{495, 193}";
type = Stem;
}
);
layerId = "9d3a33de-08d4-49ee-85e3-2813f64ed4e4";
paths = (
{
closed = 1;
nodes = (
"20 220 LINE SMOOTH",
"20 54 OFFCURVE",
"147 -16 OFFCURVE",
"318 -16 CURVE SMOOTH",
"470 -16 OFFCURVE",
"581 75 OFFCURVE",
"581 75 CURVE",
"655 0 LINE",
"933 0 LINE",
"747 192 LINE",
"785 220 OFFCURVE",
"835 266 OFFCURVE",
"869 299 CURVE SMOOTH",
"869 299 OFFCURVE",
"869 299 OFFCURVE",
"734 433 CURVE",
"700 399 OFFCURVE",
"648 357 OFFCURVE",
"609 332 CURVE",
"528 413 LINE",
"601 452 OFFCURVE",
"688 530 OFFCURVE",
"688 615 CURVE SMOOTH",
"688 723 OFFCURVE",
"604 841 OFFCURVE",
"428 841 CURVE SMOOTH",
"246 841 OFFCURVE",
"147 753 OFFCURVE",
"147 615 CURVE SMOOTH",
"147 555 OFFCURVE",
"177 497 OFFCURVE",
"222 436 CURVE",
"114 396 OFFCURVE",
"20 325 OFFCURVE",
"20 220 CURVE SMOOTH"
);
},
{
closed = 1;
nodes = (
"372 624 LINE SMOOTH",
"372 667 OFFCURVE",
"398 687 OFFCURVE",
"428 687 CURVE SMOOTH",
"466 687 OFFCURVE",
"495 664 OFFCURVE",
"495 623 CURVE SMOOTH",
"495 582 OFFCURVE",
"446 549 OFFCURVE",
"419 532 CURVE",
"399 552 OFFCURVE",
"372 589 OFFCURVE",
"372 624 CURVE SMOOTH"
);
},
{
closed = 1;
nodes = (
"271 243 LINE SMOOTH",
"271 304 OFFCURVE",
"333 320 OFFCURVE",
"333 319 CURVE",
"436 224 LINE",
"436 224 OFFCURVE",
"391 194 OFFCURVE",
"341 194 CURVE SMOOTH",
"304 194 OFFCURVE",
"271 208 OFFCURVE",
"271 243 CURVE SMOOTH"
);
}
);
width = 853;
},
{
hints = (
{
horizontal = 1;
place = "{-16, 24}";
type = Stem;
},
{
horizontal = 1;
place = "{815, 25}";
type = Stem;
},
{
horizontal = 1;
place = "{0, -20}";
target = down;
type = TopGhost;
},
{
place = "{74, 24}";
type = Stem;
},
{
place = "{146, 24}";
type = Stem;
},
{
place = "{466, 24}";
type = Stem;
}
);
layerId = "0ac4930a-26e9-4cfa-a42f-96cf237e936b";
paths = (
{
closed = 1;
nodes = (
"74 203 LINE",
"74 74 OFFCURVE",
"169 -16 OFFCURVE",
"305 -16 CURVE SMOOTH",
"423 -16 OFFCURVE",
"517 57 OFFCURVE",
"582 133 CURVE",
"633 76 OFFCURVE",
"676 29 OFFCURVE",
"701 0 CURVE",
"734 0 LINE",
"598 152 LINE",
"654 223 OFFCURVE",
"684 285 OFFCURVE",
"691 300 CURVE",
"670 309 LINE",
"669 308 OFFCURVE",
"638 241 OFFCURVE",
"581 171 CURVE",
"483 280 OFFCURVE",
"367 408 OFFCURVE",
"312 465 CURVE",
"423 518 OFFCURVE",
"490 562 OFFCURVE",
"490 673 CURVE SMOOTH",
"490 754 OFFCURVE",
"430 840 OFFCURVE",
"318 840 CURVE SMOOTH",
"206 840 OFFCURVE",
"146 754 OFFCURVE",
"146 673 CURVE SMOOTH",
"146 586 OFFCURVE",
"209 528 OFFCURVE",
"270 472 CURVE",
"138 406 OFFCURVE",
"74 318 OFFCURVE",
"74 203 CURVE SMOOTH"
);
},
{
closed = 1;
nodes = (
"170 673 LINE",
"170 742 OFFCURVE",
"222 815 OFFCURVE",
"318 815 CURVE SMOOTH",
"414 815 OFFCURVE",
"466 742 OFFCURVE",
"466 673 CURVE SMOOTH",
"466 577 OFFCURVE",
"410 538 OFFCURVE",
"293 483 CURVE",
"241 532 OFFCURVE",
"170 587 OFFCURVE",
"170 673 CURVE SMOOTH"
);
},
{
closed = 1;
nodes = (
"98 203 LINE",
"98 271 OFFCURVE",
"118 372 OFFCURVE",
"288 454 CURVE",
"341 400 OFFCURVE",
"463 265 OFFCURVE",
"566 152 CURVE",
"503 79 OFFCURVE",
"414 8 OFFCURVE",
"305 8 CURVE SMOOTH",
"183 8 OFFCURVE",
"98 88 OFFCURVE",
"98 203 CURVE SMOOTH"
);
}
);
width = 734;
}
);
rightKerningGroup = _A1;
unicode = 0026;
},
{
color = (153,249,255,255);
glyphname = quotesingle;
lastChange = "2019-08-01 18:50:29 +0000";
layers = (
{
hints = (
{
horizontal = 1;
place = "{843, -20}";
target = down;
type = TopGhost;
},
{
place = "{64, 196}";
type = Stem;
}
);
layerId = "9d3a33de-08d4-49ee-85e3-2813f64ed4e4";
paths = (
{
closed = 1;
nodes = (
"64 843 LINE",
"101 433 LINE",
"223 433 LINE",
"260 843 LINE"
);
}
);
width = 324;
},
{
hints = (
{
horizontal = 1;
place = "{825, -20}";
target = down;
type = TopGhost;
},
{
horizontal = 1;
place = "{684, -20}";
target = down;
type = TopGhost;
},
{
place = "{48, 25}";
type = Stem;
},
{
place = "{42, 37}";
type = Stem;
}
);
layerId = "0ac4930a-26e9-4cfa-a42f-96cf237e936b";
paths = (
{
closed = 1;
nodes = (
"42 825 LINE",
"48 684 LINE",
"73 684 LINE",
"79 825 LINE"
);
}
);
width = 121;
}
);
leftKerningGroup = _quotesingle;
rightKerningGroup = _quotesingle;
unicode = 0027;
},
{
color = (153,249,255,255);
glyphname = quotedbl;
lastChange = "2019-08-01 18:50:29 +0000";
layers = (
{
hints = (
{
horizontal = 1;
place = "{843, -20}";
target = down;
type = TopGhost;
},
{
horizontal = 1;
place = "{433, -20}";
target = down;
type = TopGhost;
},
{
place = "{64, 196}";
type = Stem;
},
{
place = "{318, 196}";
type = Stem;
}
);
layerId = "9d3a33de-08d4-49ee-85e3-2813f64ed4e4";
paths = (
{
closed = 1;
nodes = (
"64 843 LINE",
"101 433 LINE",
"223 433 LINE",
"260 843 LINE"
);
},
{
closed = 1;
nodes = (
"318 843 LINE",
"355 433 LINE",
"477 433 LINE",
"514 843 LINE"
);
}
);
width = 578;
},
{
hints = (
{
horizontal = 1;
place = "{684, -20}";
target = down;
type = TopGhost;
},
{
horizontal = 1;
place = "{825, -20}";
target = down;
type = TopGhost;
},
{
place = "{42, 37}";
type = Stem;
},
{
place = "{111, 37}";
type = Stem;
}
);
layerId = "0ac4930a-26e9-4cfa-a42f-96cf237e936b";
paths = (
{
closed = 1;
nodes = (
"42 825 LINE",
"48 684 LINE",
"73 684 LINE",
"79 825 LINE"
);
},
{
closed = 1;
nodes = (
"111 825 LINE",
"117 684 LINE",
"142 684 LINE",
"148 825 LINE"
);
}
);
width = 190;
}
);
rightKerningGroup = _A1;
unicode = 0022;
},
{
color = (153,249,255,255);
glyphname = parenleft;
lastChange = "2019-08-01 18:50:29 +0000";
layers = (
{
associatedMasterId = "9d3a33de-08d4-49ee-85e3-2813f64ed4e4";
layerId = "cf2a3b8c-bb53-4d9e-827a-d6f64e11d495";
name = public.background;
width = 0;
},
{
hints = (
{
horizontal = 1;
place = "{-260, -20}";
target = down;
type = TopGhost;
},
{
horizontal = 1;
place = "{875, -20}";
target = down;
type = TopGhost;
},
{
place = "{48, 189}";
type = Stem;
}
);
layerId = "9d3a33de-08d4-49ee-85e3-2813f64ed4e4";
paths = (
{
closed = 1;
nodes = (
"237 307 LINE SMOOTH",
"237 661 OFFCURVE",
"354 818 OFFCURVE",
"354 818 CURVE",
"220 875 LINE",
"220 875 OFFCURVE",
"48 659 OFFCURVE",
"48 307 CURVE SMOOTH",
"48 -45 OFFCURVE",
"220 -260 OFFCURVE",
"220 -260 CURVE",
"354 -203 LINE",
"354 -203 OFFCURVE",
"237 -47 OFFCURVE",
"237 307 CURVE SMOOTH"
);
}
);
width = 423;
},
{
hints = (
{
horizontal = 1;
place = "{-260, -20}";
target = down;
type = TopGhost;
},
{
horizontal = 1;
place = "{875, -20}";
target = down;
type = TopGhost;
},
{
place = "{91, 32}";
type = Stem;
}
);
layerId = "0ac4930a-26e9-4cfa-a42f-96cf237e936b";
paths = (
{
closed = 1;
nodes = (
"123 307 LINE SMOOTH",
"123 626 OFFCURVE",
"299 867 OFFCURVE",
"299 867 CURVE",
"280 875 LINE",
"280 875 OFFCURVE",
"91 656 OFFCURVE",
"91 307 CURVE SMOOTH",
"91 -42 OFFCURVE",
"280 -260 OFFCURVE",
"280 -260 CURVE",
"299 -252 LINE",
"299 -252 OFFCURVE",
"123 -12 OFFCURVE",
"123 307 CURVE SMOOTH"
);
}
);
width = 304;
}
);
rightKerningGroup = _A1;
unicode = 0028;
},
{
color = (153,249,255,255);
glyphname = parenright;
lastChange = "2019-08-01 18:50:29 +0000";
layers = (
{
associatedMasterId = "9d3a33de-08d4-49ee-85e3-2813f64ed4e4";
layerId = "cf2a3b8c-bb53-4d9e-827a-d6f64e11d495";
name = public.background;
width = 0;
},
{
hints = (
{
horizontal = 1;
place = "{-260, -20}";
target = down;
type = TopGhost;
},
{
horizontal = 1;
place = "{875, -20}";
target = down;
type = TopGhost;
},
{
place = "{186, 189}";
type = Stem;
}
);
layerId = "9d3a33de-08d4-49ee-85e3-2813f64ed4e4";
paths = (
{
closed = 1;
nodes = (
"186 307 LINE",
"186 -47 OFFCURVE",
"69 -203 OFFCURVE",
"69 -203 CURVE",
"203 -260 LINE",
"203 -260 OFFCURVE",
"375 -45 OFFCURVE",
"375 307 CURVE SMOOTH",
"375 659 OFFCURVE",
"203 875 OFFCURVE",
"203 875 CURVE",
"69 818 LINE",
"69 818 OFFCURVE",
"186 661 OFFCURVE",
"186 307 CURVE SMOOTH"
);
}
);
width = 423;
},
{
guideLines = (
{
position = "{0, -11}";
},
{
position = "{0, -41}";
}
);
hints = (
{
horizontal = 1;
place = "{-260, -20}";
target = down;
type = TopGhost;
},
{
horizontal = 1;
place = "{875, -20}";
target = down;
type = TopGhost;
},
{
place = "{181, 32}";
type = Stem;
}
);
layerId = "0ac4930a-26e9-4cfa-a42f-96cf237e936b";
paths = (
{
closed = 1;
nodes = (
"213 307 LINE SMOOTH",
"213 656 OFFCURVE",
"24 875 OFFCURVE",
"24 875 CURVE",
"5 867 LINE",
"5 867 OFFCURVE",
"181 626 OFFCURVE",
"181 307 CURVE SMOOTH",
"181 -12 OFFCURVE",
"5 -252 OFFCURVE",
"5 -252 CURVE",
"24 -260 LINE",
"24 -260 OFFCURVE",
"213 -42 OFFCURVE",
"213 307 CURVE SMOOTH"
);
}
);
width = 304;
}
);
rightKerningGroup = _A1;
unicode = 0029;
},
{
color = (153,249,255,255);
glyphname = asterisk;
lastChange = "2019-08-01 18:50:29 +0000";
layers = (
{
hints = (
{
horizontal = 1;
place = "{860, -20}";
target = down;
type = TopGhost;
},
{
horizontal = 1;
place = "{476, -20}";
target = down;
type = TopGhost;
},
{
place = "{222, 104}";
type = Stem;
}
);
layerId = "9d3a33de-08d4-49ee-85e3-2813f64ed4e4";
paths = (
{
closed = 1;
nodes = (
"222 860 LINE",
"222 735 LINE",
"100 773 LINE",
"70 679 LINE",
"191 635 LINE",
"121 529 LINE",
"199 476 LINE",
"274 573 LINE",
"349 476 LINE",
"427 529 LINE",
"357 635 LINE",
"478 679 LINE",
"448 773 LINE",
"326 735 LINE",
"326 860 LINE"
);
}
);
width = 548;
},
{
hints = (
{
horizontal = 1;
place = "{860, -20}";
target = down;
type = TopGhost;
},
{
horizontal = 1;
place = "{697, -20}";
target = down;
type = TopGhost;
},
{
place = "{91, 13}";
type = Stem;
},
{
place = "{12, 171}";
type = Stem;
}
);
layerId = "0ac4930a-26e9-4cfa-a42f-96cf237e936b";
paths = (
{
closed = 1;
nodes = (
"91 860 LINE",
"91 781 LINE",
"16 805 LINE",
"12 793 LINE",
"87 769 LINE",
"41 705 LINE",
"51 697 LINE",
"97 761 LINE",
"144 697 LINE",
"154 705 LINE",
"108 769 LINE",
"183 793 LINE",
"179 805 LINE",
"104 781 LINE",
"104 860 LINE"
);
}
);
width = 195;
}
);
rightKerningGroup = _A1;
unicode = 002A;
},
{
color = (153,249,255,255);
glyphname = plus;
lastChange = "2019-08-01 18:50:29 +0000";
layers = (
{
hints = (
{
horizontal = 1;
place = "{325, 180}";
type = Stem;
},
{
horizontal = 1;
place = "{158, -20}";
target = down;
type = TopGhost;
},
{
horizontal = 1;
place = "{672, -20}";
target = down;
type = TopGhost;
},
{
place = "{228, 180}";
type = Stem;
}
);
layerId = "9d3a33de-08d4-49ee-85e3-2813f64ed4e4";
paths = (
{
closed = 1;
nodes = (
"228 672 LINE",
"228 505 LINE",
"61 505 LINE",
"61 325 LINE",
"228 325 LINE",
"228 158 LINE",
"408 158 LINE",
"408 325 LINE",
"575 325 LINE",
"575 505 LINE",
"408 505 LINE",
"408 672 LINE"
);
}
);
width = 636;
},
{
hints = (
{
horizontal = 1;
place = "{402, 24}";
type = Stem;
},
{
horizontal = 1;
place = "{670, -20}";
target = down;
type = TopGhost;
},
{
horizontal = 1;
place = "{158, -20}";
target = down;
type = TopGhost;
},
{
place = "{301, 24}";
type = Stem;
}
);
layerId = "0ac4930a-26e9-4cfa-a42f-96cf237e936b";
paths = (
{
closed = 1;
nodes = (
"301 670 LINE",
"301 426 LINE",
"57 426 LINE",
"57 402 LINE",
"301 402 LINE",
"301 158 LINE",
"325 158 LINE",
"325 402 LINE",
"569 402 LINE",
"569 426 LINE",
"325 426 LINE",
"325 670 LINE"
);
}
);
width = 626;
}
);
rightKerningGroup = _A1;
unicode = 002B;
},
{
color = (153,249,255,255);
glyphname = minus;
lastChange = "2019-08-01 18:50:29 +0000";
layers = (
{
hints = (
{
horizontal = 1;
place = "{325, 180}";
type = Stem;
},
{
place = "{61, 514}";
type = Stem;
}
);
layerId = "9d3a33de-08d4-49ee-85e3-2813f64ed4e4";
paths = (
{
closed = 1;
nodes = (
"61 505 LINE",
"61 325 LINE",
"575 325 LINE",
"575 505 LINE"
);
}
);
width = 636;
},
{
hints = (
{
horizontal = 1;
place = "{402, 24}";
type = Stem;
},
{
place = "{48, 512}";
type = Stem;
}
);
layerId = "0ac4930a-26e9-4cfa-a42f-96cf237e936b";
paths = (
{
closed = 1;
nodes = (
"560 402 LINE",
"560 426 LINE",
"48 426 LINE",
"48 402 LINE"
);
}
);
width = 608;
}
);
rightKerningGroup = _A1;
unicode = 2212;
},
{
color = (153,249,255,255);
glyphname = multiply;
lastChange = "2019-08-01 18:50:29 +0000";
layers = (
{
hints = (
{
horizontal = 1;
place = "{684, -20}";
target = down;
type = TopGhost;
},
{
horizontal = 1;
place = "{146, -20}";
target = down;
type = TopGhost;
},
{
place = "{56, 538}";
type = Stem;
}
);
layerId = "9d3a33de-08d4-49ee-85e3-2813f64ed4e4";
paths = (
{
closed = 1;
nodes = (
"56 559 LINE",
"199 415 LINE",
"56 271 LINE",
"182 146 LINE",
"325 288 LINE",
"468 146 LINE",
"594 271 LINE",
"451 415 LINE",
"594 559 LINE",
"468 684 LINE",
"325 542 LINE",
"182 684 LINE"
);
}
);
width = 650;
},
{
hints = (
{
horizontal = 1;
place = "{629, -20}";
target = down;
type = TopGhost;
},
{
horizontal = 1;
place = "{199, -20}";
target = down;
type = TopGhost;
},
{
place = "{56, 430}";
type = Stem;
}
);
layerId = "0ac4930a-26e9-4cfa-a42f-96cf237e936b";
paths = (
{
closed = 1;
nodes = (
"56 613 LINE",
"255 414 LINE",
"56 216 LINE",
"72 199 LINE",
"271 398 LINE",
"469 199 LINE",
"486 216 LINE",
"287 414 LINE",
"486 613 LINE",
"470 629 LINE",
"271 430 LINE",
"73 629 LINE"
);
}
);
width = 542;
}
);
rightKerningGroup = _A1;
unicode = 00D7;
},
{
color = (153,249,255,255);
glyphname = divide;
lastChange = "2019-08-01 18:50:29 +0000";
layers = (
{
associatedMasterId = "9d3a33de-08d4-49ee-85e3-2813f64ed4e4";
layerId = "cf2a3b8c-bb53-4d9e-827a-d6f64e11d495";
name = public.background;
width = 0;
},
{
hints = (
{
horizontal = 1;
place = "{325, 180}";
type = Stem;
},
{
horizontal = 1;
place = "{103, 188}";
type = Stem;
},
{
horizontal = 1;
place = "{538, 188}";
type = Stem;
},
{
place = "{222, 182}";
type = Stem;
},
{
place = "{56, 514}";
type = Stem;
}
);
layerId = "9d3a33de-08d4-49ee-85e3-2813f64ed4e4";
paths = (
{
closed = 1;
nodes = (
"56 505 LINE",
"56 325 LINE",
"570 325 LINE",
"570 505 LINE"
);
},
{
closed = 1;
nodes = (
"313 726 LINE",
"263 726 OFFCURVE",
"222 685 OFFCURVE",
"222 632 CURVE SMOOTH",
"222 579 OFFCURVE",
"263 538 OFFCURVE",
"313 538 CURVE SMOOTH",
"363 538 OFFCURVE",
"404 579 OFFCURVE",
"404 632 CURVE SMOOTH",
"404 685 OFFCURVE",
"363 726 OFFCURVE",
"313 726 CURVE SMOOTH"
);
},
{
closed = 1;
nodes = (
"313 291 LINE SMOOTH",
"263 291 OFFCURVE",
"222 250 OFFCURVE",
"222 197 CURVE SMOOTH",
"222 144 OFFCURVE",
"263 103 OFFCURVE",
"313 103 CURVE SMOOTH",
"363 103 OFFCURVE",
"404 144 OFFCURVE",
"404 197 CURVE SMOOTH",
"404 250 OFFCURVE",
"363 291 OFFCURVE",
"313 291 CURVE SMOOTH"
);
}
);
width = 626;
},
{
hints = (
{
horizontal = 1;
place = "{403, 24}";
type = Stem;
},
{
horizontal = 1;
place = "{644, 48}";
type = Stem;
},
{
horizontal = 1;
place = "{186, -48}";
type = Stem;
},
{
place = "{310, 48}";
type = Stem;
}
);
layerId = "0ac4930a-26e9-4cfa-a42f-96cf237e936b";
paths = (
{
closed = 1;
nodes = (
"334 692 LINE",
"321 692 OFFCURVE",
"310 681 OFFCURVE",
"310 668 CURVE SMOOTH",
"310 655 OFFCURVE",
"321 644 OFFCURVE",
"334 644 CURVE SMOOTH",
"347 644 OFFCURVE",
"358 655 OFFCURVE",
"358 668 CURVE SMOOTH",
"358 681 OFFCURVE",
"347 692 OFFCURVE",
"334 692 CURVE"
);
},
{
closed = 1;
nodes = (
"78 427 LINE",
"78 403 LINE",
"590 403 LINE",
"590 427 LINE"
);
},
{
closed = 1;
nodes = (
"334 186 LINE SMOOTH",
"321 186 OFFCURVE",
"310 175 OFFCURVE",
"310 162 CURVE SMOOTH",
"310 149 OFFCURVE",
"321 138 OFFCURVE",
"334 138 CURVE SMOOTH",
"347 138 OFFCURVE",
"358 149 OFFCURVE",
"358 162 CURVE SMOOTH",
"358 175 OFFCURVE",
"347 186 OFFCURVE",
"334 186 CURVE SMOOTH"
);
}
);
width = 668;
}
);
rightKerningGroup = _A1;
unicode = 00F7;
},
{
color = (153,249,255,255);
glyphname = less;
lastChange = "2019-08-01 18:50:29 +0000";
layers = (
{
hints = (
{
horizontal = 1;
place = "{135, -20}";
target = down;
type = TopGhost;
},
{
horizontal = 1;
place = "{697, -20}";
target = down;
type = TopGhost;
},
{
place = "{71, 546}";
type = Stem;
}
);
layerId = "9d3a33de-08d4-49ee-85e3-2813f64ed4e4";
paths = (
{
closed = 1;
nodes = (
"71 485 LINE",
"71 347 LINE",
"617 135 LINE",
"617 300 LINE",
"292 416 LINE",
"617 532 LINE",
"617 697 LINE"
);
}
);
width = 673;
},
{
hints = (
{
horizontal = 1;
place = "{697, -27}";
type = Stem;
},
{
horizontal = 1;
place = "{135, 27}";
type = Stem;
}
);
layerId = "0ac4930a-26e9-4cfa-a42f-96cf237e936b";
paths = (
{
closed = 1;
nodes = (
"5 425 LINE",
"5 407 LINE",
"552 135 LINE",
"552 162 LINE",
"35 416 LINE",
"552 670 LINE",
"552 697 LINE"
);
}
);
width = 600;
}
);
rightKerningGroup = _A1;
unicode = 003C;
},
{
color = (153,249,255,255);
glyphname = equal;
lastChange = "2019-08-01 18:50:29 +0000";
layers = (
{
hints = (
{
horizontal = 1;
place = "{199, 180}";
type = Stem;
},
{
horizontal = 1;
place = "{452, 180}";
type = Stem;
},
{
place = "{61, 514}";
type = Stem;
}
);
layerId = "9d3a33de-08d4-49ee-85e3-2813f64ed4e4";
paths = (
{
closed = 1;
nodes = (
"61 632 LINE",
"61 452 LINE",
"575 452 LINE",
"575 632 LINE"
);
},
{
closed = 1;
nodes = (
"61 379 LINE",
"61 199 LINE",
"575 199 LINE",
"575 379 LINE"
);
}
);
width = 636;
},
{
hints = (
{
horizontal = 1;
place = "{311, 24}";
type = Stem;
},
{
horizontal = 1;
place = "{518, -24}";
type = Stem;
},
{
place = "{48, 512}";
type = Stem;
}
);
layerId = "0ac4930a-26e9-4cfa-a42f-96cf237e936b";
paths = (
{
closed = 1;
nodes = (
"48 518 LINE",
"48 494 LINE",
"560 494 LINE",
"560 518 LINE"
);
},
{
closed = 1;
nodes = (
"48 335 LINE",
"48 311 LINE",
"560 311 LINE",
"560 335 LINE"
);
}
);
width = 608;
}
);
rightKerningGroup = _A1;
unicode = 003D;
},
{
color = (153,249,255,255);
glyphname = greater;
lastChange = "2019-08-01 18:50:29 +0000";
layers = (
{
hints = (
{
horizontal = 1;
place = "{135, -20}";
target = down;
type = TopGhost;
},
{
horizontal = 1;
place = "{697, -20}";
target = down;
type = TopGhost;
},
{
place = "{602, -546}";
type = Stem;
}
);
layerId = "9d3a33de-08d4-49ee-85e3-2813f64ed4e4";
paths = (
{
closed = 1;
nodes = (
"56 697 LINE",
"56 532 LINE",
"381 416 LINE",
"56 300 LINE",
"56 135 LINE",
"602 347 LINE",
"602 485 LINE"
);
}
);
width = 673;
},
{
hints = (
{
horizontal = 1;
place = "{697, -27}";
type = Stem;
},
{
horizontal = 1;
place = "{135, 27}";
type = Stem;
}
);
layerId = "0ac4930a-26e9-4cfa-a42f-96cf237e936b";
paths = (
{
closed = 1;
nodes = (
"595 425 LINE",
"48 697 LINE",
"48 670 LINE",
"565 416 LINE",
"48 162 LINE",
"48 135 LINE",
"595 407 LINE"
);
}
);
width = 600;
}
);
rightKerningGroup = _A1;
unicode = 003E;
},
{
color = (153,249,255,255);
glyphname = plusminus;
lastChange = "2019-08-01 18:50:29 +0000";
layers = (
{
hints = (
{
horizontal = 1;
place = "{0, 180}";
type = Stem;
},
{
horizontal = 1;
place = "{355, 179}";
type = Stem;
},
{
place = "{56, 514}";
type = Stem;
},
{
place = "{223, 180}";
type = Stem;
}
);
layerId = "9d3a33de-08d4-49ee-85e3-2813f64ed4e4";
paths = (
{
closed = 1;
nodes = (
"223 671 LINE",
"223 534 LINE",
"56 534 LINE",
"56 355 LINE",
"223 355 LINE",
"223 218 LINE",
"403 218 LINE",
"403 355 LINE",
"570 355 LINE",
"570 534 LINE",
"403 534 LINE",
"403 671 LINE"
);
},
{
closed = 1;
nodes = (
"56 180 LINE",
"56 0 LINE",
"570 0 LINE",
"570 180 LINE"
);
}
);
width = 626;
},
{
associatedMasterId = "0ac4930a-26e9-4cfa-a42f-96cf237e936b";
layerId = "145582DE-2CBB-4448-AE3F-5DFAD5AC9DC3";
name = public.background;
width = 0;
},
{
hints = (
{
horizontal = 1;
place = "{0, 24}";
type = Stem;
},
{
horizontal = 1;
place = "{402, 24}";
type = Stem;
},
{
horizontal = 1;
place = "{670, -20}";
target = down;
type = TopGhost;
},
{
place = "{322, 24}";
type = Stem;
},
{
place = "{78, 512}";
type = Stem;
}
);
layerId = "0ac4930a-26e9-4cfa-a42f-96cf237e936b";
paths = (
{
closed = 1;
nodes = (
"322 670 LINE",
"322 426 LINE",
"78 426 LINE",
"78 402 LINE",
"322 402 LINE",
"322 158 LINE",
"346 158 LINE",
"346 402 LINE",
"590 402 LINE",
"590 426 LINE",
"346 426 LINE",
"346 670 LINE"
);
},
{
closed = 1;
nodes = (
"590 0 LINE",
"590 24 LINE",
"78 24 LINE",
"78 0 LINE"
);
}
);
width = 669;
}
);
rightKerningGroup = _A1;
unicode = 00B1;
},
{
color = (153,249,255,255);
glyphname = notequal;
lastChange = "2019-08-01 18:50:29 +0000";
layers = (
{
associatedMasterId = "9d3a33de-08d4-49ee-85e3-2813f64ed4e4";
layerId = "cf2a3b8c-bb53-4d9e-827a-d6f64e11d495";
name = public.background;
width = 0;
},
{
hints = (
{
horizontal = 1;
place = "{199, 180}";
type = Stem;
},
{
horizontal = 1;
place = "{452, 180}";
type = Stem;
},
{
horizontal = 1;
place = "{772, -20}";
target = down;
type = TopGhost;
},
{
place = "{62, 514}";
type = Stem;
}
);
layerId = "9d3a33de-08d4-49ee-85e3-2813f64ed4e4";
paths = (
{
closed = 1;
nodes = (
"62 632 LINE",
"62 452 LINE",
"251 452 LINE",
"209 379 LINE",
"62 379 LINE",
"62 199 LINE",
"104 199 LINE",
"20 53 LINE",
"157 53 LINE",
"241 199 LINE",
"576 199 LINE",
"576 379 LINE",
"346 379 LINE",
"388 452 LINE",
"576 452 LINE",
"576 632 LINE",
"493 632 LINE",
"574 772 LINE",
"437 772 LINE",
"356 632 LINE"
);
}
);
width = 638;
},
{
hints = (
{
horizontal = 1;
place = "{311, 24}";
type = Stem;
},
{
horizontal = 1;
place = "{494, 24}";
type = Stem;
},
{
horizontal = 1;
place = "{671, -20}";
target = down;
type = TopGhost;
},
{
horizontal = 1;
place = "{154, -20}";
target = down;
type = TopGhost;
},
{
place = "{48, 512}";
type = Stem;
}
);
layerId = "0ac4930a-26e9-4cfa-a42f-96cf237e936b";
paths = (
{
closed = 1;
nodes = (
"48 494 LINE",
"308 494 LINE",
"215 335 LINE",
"48 335 LINE",
"48 311 LINE",
"202 311 LINE",
"111 154 LINE",
"135 154 LINE",
"226 311 LINE",
"560 311 LINE",
"560 335 LINE",
"239 335 LINE",
"332 494 LINE",
"560 494 LINE",
"560 518 LINE",
"347 518 LINE",
"436 671 LINE",
"412 671 LINE",
"323 518 LINE",
"48 518 LINE"
);
}
);
width = 609;
}
);
rightKerningGroup = _A1;
unicode = 2260;
},
{
color = (153,249,255,255);
glyphname = lessequal;
lastChange = "2019-08-01 18:50:29 +0000";
layers = (
{
hints = (
{
horizontal = 1;
place = "{837, -20}";
target = down;
type = TopGhost;
},
{
horizontal = 1;
place = "{180, -180}";
type = Stem;
},
{
place = "{71, 548}";
type = Stem;
}
);
layerId = "9d3a33de-08d4-49ee-85e3-2813f64ed4e4";
paths = (
{
closed = 1;
nodes = (
"71 180 LINE",
"71 0 LINE",
"619 0 LINE",
"619 180 LINE"
);
},
{
closed = 1;
nodes = (
"71 625 LINE",
"71 487 LINE",
"619 275 LINE",
"619 440 LINE",
"293 554 LINE",
"619 671 LINE",
"619 837 LINE"
);
}
);
width = 681;
},
{
hints = (
{
horizontal = 1;
place = "{97, 24}";
type = Stem;
},
{
horizontal = 1;
place = "{767, -20}";
target = down;
type = TopGhost;
},
{
place = "{5, 547}";
type = Stem;
}
);
layerId = "0ac4930a-26e9-4cfa-a42f-96cf237e936b";
paths = (
{
closed = 1;
nodes = (
"5 121 LINE",
"5 97 LINE",
"552 97 LINE",
"552 121 LINE"
);
},
{
closed = 1;
nodes = (
"5 495 LINE",
"5 477 LINE",
"552 205 LINE",
"552 228 LINE",
"31 486 LINE",
"552 744 LINE",
"552 767 LINE"
);
}
);
width = 600;
}
);
rightKerningGroup = _A1;
unicode = 2264;
},
{
color = (153,249,255,255);
glyphname = greaterequal;
lastChange = "2019-08-01 18:50:29 +0000";
layers = (
{
hints = (
{
horizontal = 1;
place = "{180, -180}";
type = Stem;
},
{
place = "{62, 548}";
type = Stem;
}
);
layerId = "9d3a33de-08d4-49ee-85e3-2813f64ed4e4";
paths = (
{
closed = 1;
nodes = (
"62 180 LINE",
"62 0 LINE",
"610 0 LINE",
"610 180 LINE"
);
},
{
closed = 1;
nodes = (
"62 837 LINE",
"62 671 LINE",
"388 554 LINE",
"62 440 LINE",
"62 275 LINE",
"610 487 LINE",
"610 625 LINE"
);
}
);
width = 681;
},
{
hints = (
{
horizontal = 1;
place = "{97, 24}";
type = Stem;
},
{
horizontal = 1;
place = "{767, -20}";
target = down;
type = TopGhost;
},
{
place = "{48, 547}";
type = Stem;
}
);
layerId = "0ac4930a-26e9-4cfa-a42f-96cf237e936b";
paths = (
{
closed = 1;
nodes = (
"48 121 LINE",
"48 97 LINE",
"595 97 LINE",
"595 121 LINE"
);
},
{
closed = 1;
nodes = (
"595 495 LINE",
"48 767 LINE",
"48 744 LINE",
"569 486 LINE",
"48 228 LINE",
"48 205 LINE",
"595 477 LINE"
);
}
);
width = 600;
}
);
rightKerningGroup = _A1;
unicode = 2265;
},
{
color = (153,249,255,255);
glyphname = fraction;
lastChange = "2019-08-01 18:50:29 +0000";
layers = (
{
hints = (
{
horizontal = 1;
place = "{0, -20}";
target = down;
type = TopGhost;
},
{
horizontal = 1;
place = "{825, -20}";
target = down;
type = TopGhost;
},
{
place = "{-176, 617}";
type = Stem;
}
);
layerId = "9d3a33de-08d4-49ee-85e3-2813f64ed4e4";
paths = (
{
closed = 1;
nodes = (
"-176 0 LINE",
"-39 0 LINE",
"441 825 LINE",
"304 825 LINE"
);
}
);
width = 265;
},
{
hints = (
{
horizontal = 1;
place = "{0, -20}";
target = down;
type = TopGhost;
},
{
horizontal = 1;
place = "{825, -20}";
target = down;
type = TopGhost;
},
{
place = "{-112, 504}";
type = Stem;
}
);
layerId = "0ac4930a-26e9-4cfa-a42f-96cf237e936b";
paths = (
{
closed = 1;
nodes = (
"-112 0 LINE",
"-88 0 LINE",
"392 825 LINE",
"368 825 LINE"
);
}
);
width = 264;
}
);
rightKerningGroup = _A1;
unicode = 2044;
},
{
color = (153,249,255,255);
glyphname = comma;
lastChange = "2019-08-01 18:50:29 +0000";
layers = (
{
hints = (
{
horizontal = 1;
place = "{250, -20}";
target = down;
type = TopGhost;
},
{
horizontal = 1;
place = "{-207, -20}";
target = down;
type = TopGhost;
},
{
place = "{61, 265}";
type = Stem;
}
);
layerId = "9d3a33de-08d4-49ee-85e3-2813f64ed4e4";
paths = (
{
closed = 1;
nodes = (
"193 250 LINE SMOOTH",
"120 250 OFFCURVE",
"61 191 OFFCURVE",
"61 117 CURVE SMOOTH",
"61 56 OFFCURVE",
"103 10 OFFCURVE",
"159 -4 CURVE",
"140 -97 OFFCURVE",
"69 -161 OFFCURVE",
"72 -158 CURVE",
"132 -207 LINE",
"226 -129 OFFCURVE",
"326 -18 OFFCURVE",
"326 117 CURVE SMOOTH",
"326 191 OFFCURVE",
"267 250 OFFCURVE",
"193 250 CURVE SMOOTH"
);
}
);
width = 387;
},
{
hints = (
{
horizontal = 1;
place = "{32, -20}";
target = down;
type = TopGhost;
},
{
horizontal = 1;
place = "{-16, -20}";
target = down;
type = TopGhost;
},
{
horizontal = 1;
place = "{-93, -20}";
target = down;
type = TopGhost;
},
{
place = "{56, 48}";
type = Stem;
}
);
layerId = "0ac4930a-26e9-4cfa-a42f-96cf237e936b";
paths = (
{
closed = 1;
nodes = (
"80 32 LINE",
"67 32 OFFCURVE",
"56 21 OFFCURVE",
"56 8 CURVE SMOOTH",
"56 -5 OFFCURVE",
"67 -16 OFFCURVE",
"80 -16 CURVE",
"80 -48 OFFCURVE",
"74 -70 OFFCURVE",
"62 -88 CURVE",
"67 -93 LINE",
"89 -74 OFFCURVE",
"104 -40 OFFCURVE",
"104 8 CURVE SMOOTH",
"104 21 OFFCURVE",
"93 32 OFFCURVE",
"80 32 CURVE SMOOTH"
);
}
);
width = 160;
}
);
leftKerningGroup = _comma;
rightKerningGroup = _A1;
unicode = 002C;
},
{
color = (153,249,255,255);
glyphname = hyphen;
lastChange = "2019-08-01 18:50:29 +0000";
layers = (
{
hints = (
{
horizontal = 1;
place = "{200, 179}";
type = Stem;
},
{
place = "{58, 322}";
type = Stem;
}
);
layerId = "9d3a33de-08d4-49ee-85e3-2813f64ed4e4";
paths = (
{
closed = 1;
nodes = (
"58 379 LINE",
"58 200 LINE",
"380 200 LINE",
"380 379 LINE"
);
}
);
width = 438;
},
{
hints = (
{
horizontal = 1;
place = "{278, 24}";
type = Stem;
},
{
place = "{71, 322}";
type = Stem;
}
);
layerId = "0ac4930a-26e9-4cfa-a42f-96cf237e936b";
paths = (
{
closed = 1;
nodes = (
"71 302 LINE",
"71 278 LINE",
"393 278 LINE",
"393 302 LINE"
);
}
);
width = 464;
}
);
rightKerningGroup = _A1;
unicode = 002D;
},
{
color = (153,249,255,255);
glyphname = period;
lastChange = "2019-08-01 18:50:29 +0000";
layers = (
{
hints = (
{
horizontal = 1;
place = "{-16, 266}";
type = Stem;
},
{
place = "{61, 266}";
type = Stem;
}
);
layerId = "9d3a33de-08d4-49ee-85e3-2813f64ed4e4";
paths = (
{
closed = 1;
nodes = (
"194 250 LINE SMOOTH",
"120 250 OFFCURVE",
"61 191 OFFCURVE",
"61 117 CURVE SMOOTH",
"61 43 OFFCURVE",
"120 -16 OFFCURVE",
"194 -16 CURVE SMOOTH",
"268 -16 OFFCURVE",
"327 43 OFFCURVE",
"327 117 CURVE SMOOTH",
"327 191 OFFCURVE",
"268 250 OFFCURVE",
"194 250 CURVE SMOOTH"
);
}
);
width = 388;
},
{
hints = (
{
horizontal = 1;
place = "{-16, 48}";
type = Stem;
},
{
place = "{56, 48}";
type = Stem;
}
);
layerId = "0ac4930a-26e9-4cfa-a42f-96cf237e936b";
paths = (
{
closed = 1;
nodes = (
"80 32 LINE",
"67 32 OFFCURVE",
"56 21 OFFCURVE",
"56 8 CURVE SMOOTH",
"56 -5 OFFCURVE",
"67 -16 OFFCURVE",
"80 -16 CURVE SMOOTH",
"93 -16 OFFCURVE",
"104 -5 OFFCURVE",
"104 8 CURVE SMOOTH",
"104 21 OFFCURVE",
"93 32 OFFCURVE",
"80 32 CURVE SMOOTH"
);
}
);
width = 160;
}
);
leftKerningGroup = _comma;
rightKerningGroup = _A1;
unicode = 002E;
},
{
color = (153,249,255,255);
glyphname = slash;
lastChange = "2019-08-01 18:50:29 +0000";
layers = (
{
hints = (
{
horizontal = 1;
place = "{860, -20}";
target = down;
type = TopGhost;
},
{
horizontal = 1;
place = "{-120, -20}";
target = down;
type = TopGhost;
},
{
place = "{28, 591}";
type = Stem;
}
);
layerId = "9d3a33de-08d4-49ee-85e3-2813f64ed4e4";
paths = (
{
closed = 1;
nodes = (
"28 -120 LINE",
"207 -120 LINE",
"619 860 LINE",
"440 860 LINE"
);
}
);
width = 647;
},
{
hints = (
{
horizontal = 1;
place = "{860, -20}";
target = down;
type = TopGhost;
},
{
horizontal = 1;
place = "{-120, -20}";
target = down;
type = TopGhost;
},
{
place = "{0, 432}";
type = Stem;
}
);
layerId = "0ac4930a-26e9-4cfa-a42f-96cf237e936b";
paths = (
{
closed = 1;
nodes = (
"0 -120 LINE",
"20 -120 LINE",
"432 860 LINE",
"412 860 LINE"
);
}
);
width = 432;
}
);
rightKerningGroup = _A1;
unicode = 002F;
},
{
color = (153,249,255,255);
glyphname = zero;
lastChange = "2019-08-01 18:50:29 +0000";
layers = (
{
associatedMasterId = "9d3a33de-08d4-49ee-85e3-2813f64ed4e4";
layerId = "cf2a3b8c-bb53-4d9e-827a-d6f64e11d495";
name = public.background;
width = 0;
},
{
hints = (
{
horizontal = 1;
place = "{-16, 193}";
type = Stem;
},
{
horizontal = 1;
place = "{647, 193}";
type = Stem;
},
{
place = "{16, 222}";
type = Stem;
},
{
place = "{466, 222}";
type = Stem;
}
);
layerId = "9d3a33de-08d4-49ee-85e3-2813f64ed4e4";
paths = (
{
closed = 1;
nodes = (
"688 412 LINE SMOOTH",
"688 698 OFFCURVE",
"529 840 OFFCURVE",
"352 840 CURVE SMOOTH",
"175 840 OFFCURVE",
"16 698 OFFCURVE",
"16 412 CURVE SMOOTH",
"16 126 OFFCURVE",
"175 -16 OFFCURVE",
"352 -16 CURVE SMOOTH",
"529 -16 OFFCURVE",
"688 126 OFFCURVE",
"688 412 CURVE SMOOTH"
);
},
{
closed = 1;
nodes = (
"352 177 LINE SMOOTH",
"277 177 OFFCURVE",
"238 267 OFFCURVE",
"238 412 CURVE SMOOTH",
"238 557 OFFCURVE",
"277 647 OFFCURVE",
"352 647 CURVE SMOOTH",
"427 647 OFFCURVE",
"466 557 OFFCURVE",
"466 412 CURVE SMOOTH",
"466 267 OFFCURVE",
"427 177 OFFCURVE",
"352 177 CURVE SMOOTH"
);
}
);
width = 704;
},
{
hints = (
{
horizontal = 1;
place = "{-16, 26}";
type = Stem;
},
{
horizontal = 1;
place = "{814, 26}";
type = Stem;
},
{
place = "{90, 26}";
type = Stem;
},
{
place = "{734, 26}";
type = Stem;
}
);
layerId = "0ac4930a-26e9-4cfa-a42f-96cf237e936b";
paths = (
{
closed = 1;
nodes = (
"90 412 LINE SMOOTH",
"90 125 OFFCURVE",
"248 -16 OFFCURVE",
"425 -16 CURVE SMOOTH",
"602 -16 OFFCURVE",
"760 125 OFFCURVE",
"760 412 CURVE SMOOTH",
"760 699 OFFCURVE",
"602 840 OFFCURVE",
"425 840 CURVE SMOOTH",
"248 840 OFFCURVE",
"90 699 OFFCURVE",
"90 412 CURVE SMOOTH"
);
},
{
closed = 1;
nodes = (
"116 412 LINE SMOOTH",
"116 681 OFFCURVE",
"259 814 OFFCURVE",
"425 814 CURVE SMOOTH",
"591 814 OFFCURVE",
"734 681 OFFCURVE",
"734 412 CURVE SMOOTH",
"734 143 OFFCURVE",
"591 10 OFFCURVE",
"425 10 CURVE SMOOTH",
"259 10 OFFCURVE",
"116 143 OFFCURVE",
"116 412 CURVE SMOOTH"
);
}
);
width = 851;
}
);
rightKerningGroup = _A1;
unicode = 0030;
},
{
color = (153,249,255,255);
glyphname = one;
lastChange = "2019-08-01 18:50:29 +0000";
layers = (
{
hints = (
{
horizontal = 1;
place = "{609, 216}";
type = Stem;
},
{
horizontal = 1;
place = "{0, -20}";
target = down;
type = TopGhost;
},
{
place = "{163, 220}";
type = Stem;
}
);
layerId = "9d3a33de-08d4-49ee-85e3-2813f64ed4e4";
paths = (
{
closed = 1;
nodes = (
"10 825 LINE",
"10 609 LINE",
"163 609 LINE",
"163 0 LINE",
"383 0 LINE",
"383 825 LINE"
);
}
);
width = 432;
},
{
hints = (
{
horizontal = 1;
place = "{0, -20}";
target = down;
type = TopGhost;
},
{
horizontal = 1;
place = "{825, -28}";
type = Stem;
},
{
place = "{116, 28}";
type = Stem;
}
);
layerId = "0ac4930a-26e9-4cfa-a42f-96cf237e936b";
paths = (
{
closed = 1;
nodes = (
"63 825 LINE",
"63 797 LINE",
"116 797 LINE",
"116 0 LINE",
"144 0 LINE",
"144 825 LINE"
);
}
);
width = 260;
}
);
rightKerningGroup = _A1;
unicode = 0031;
},
{
color = (153,249,255,255);
glyphname = two;
lastChange = "2019-08-01 18:50:29 +0000";
layers = (
{
hints = (
{
horizontal = 1;
place = "{0, 193}";
type = Stem;
},
{
horizontal = 1;
place = "{657, 184}";
type = Stem;
},
{
place = "{456, 237}";
type = Stem;
}
);
layerId = "9d3a33de-08d4-49ee-85e3-2813f64ed4e4";
paths = (
{
closed = 1;
nodes = (
"50 605 LINE",
"232 514 LINE",
"232 514 OFFCURVE",
"286 657 OFFCURVE",
"362 657 CURVE SMOOTH",
"424 657 OFFCURVE",
"456 627 OFFCURVE",
"456 553 CURVE SMOOTH",
"456 403 OFFCURVE",
"48 115 OFFCURVE",
"48 115 CURVE",
"48 0 LINE",
"708 0 LINE",
"708 193 LINE",
"438 193 LINE",
"438 193 OFFCURVE",
"693 347 OFFCURVE",
"693 545 CURVE SMOOTH",
"693 641 OFFCURVE",
"672 841 OFFCURVE",
"362 841 CURVE SMOOTH",
"122 841 OFFCURVE",
"50 605 OFFCURVE",
"50 605 CURVE"
);
}
);
width = 756;
},
{
hints = (
{
horizontal = 1;
place = "{0, 26}";
type = Stem;
},
{
horizontal = 1;
place = "{809, 31}";
type = Stem;
},
{
place = "{105, 31}";
type = Stem;
},
{
place = "{604, 31}";
type = Stem;
}
);
layerId = "0ac4930a-26e9-4cfa-a42f-96cf237e936b";
paths = (
{
closed = 1;
nodes = (
"105 575 LINE",
"136 575 LINE",
"136 704 OFFCURVE",
"241 809 OFFCURVE",
"370 809 CURVE",
"499 809 OFFCURVE",
"604 704 OFFCURVE",
"604 575 CURVE SMOOTH",
"604 390 OFFCURVE",
"330 199 OFFCURVE",
"90 9 CURVE",
"90 0 LINE",
"650 0 LINE",
"650 26 LINE",
"160 26 LINE",
"457 263 OFFCURVE",
"635 405 OFFCURVE",
"635 575 CURVE SMOOTH",
"635 721 OFFCURVE",
"516 840 OFFCURVE",
"370 840 CURVE",
"224 840 OFFCURVE",
"105 721 OFFCURVE",
"105 575 CURVE"
);
}
);
width = 740;
}
);
rightKerningGroup = _A1;
unicode = 0032;
},
{
color = (153,249,255,255);
glyphname = three;
lastChange = "2019-08-01 18:50:29 +0000";
layers = (
{
hints = (
{
horizontal = 1;
place = "{-16, 188}";
type = Stem;
},
{
horizontal = 1;
place = "{370, 135}";
type = Stem;
},
{
horizontal = 1;
place = "{664, 176}";
type = Stem;
},
{
place = "{416, 199}";
type = Stem;
},
{
place = "{433, 219}";
type = Stem;
}
);
layerId = "9d3a33de-08d4-49ee-85e3-2813f64ed4e4";
paths = (
{
closed = 1;
nodes = (
"47 664 LINE",
"219 578 LINE",
"219 578 OFFCURVE",
"237 664 OFFCURVE",
"330 664 CURVE SMOOTH",
"373 664 OFFCURVE",
"416 634 OFFCURVE",
"416 591 CURVE SMOOTH",
"416 541 OFFCURVE",
"375 505 OFFCURVE",
"337 505 CURVE SMOOTH",
"292 505 LINE",
"292 363 LINE",
"292 363 OFFCURVE",
"309 370 OFFCURVE",
"330 370 CURVE SMOOTH",
"388 370 OFFCURVE",
"433 328 OFFCURVE",
"433 265 CURVE SMOOTH",
"433 202 OFFCURVE",
"387 172 OFFCURVE",
"331 172 CURVE SMOOTH",
"220 172 OFFCURVE",
"212 286 OFFCURVE",
"212 286 CURVE",
"9 184 LINE",
"9 184 OFFCURVE",
"76 -16 OFFCURVE",
"332 -16 CURVE SMOOTH",
"513 -16 OFFCURVE",
"652 100 OFFCURVE",
"652 265 CURVE SMOOTH",
"652 350 OFFCURVE",
"615 407 OFFCURVE",
"558 449 CURVE",
"594 486 OFFCURVE",
"615 531 OFFCURVE",
"615 593 CURVE SMOOTH",
"615 737 OFFCURVE",
"497 840 OFFCURVE",
"332 840 CURVE SMOOTH",
"100 840 OFFCURVE",
"47 664 OFFCURVE",
"47 664 CURVE"
);
}
);
width = 673;
},
{
hints = (
{
horizontal = 1;
place = "{-16, 31}";
type = Stem;
},
{
horizontal = 1;
place = "{406, 26}";
type = Stem;
},
{
horizontal = 1;
place = "{812, 28}";
type = Stem;
},
{
place = "{501, 30}";
type = Stem;
},
{
place = "{505, 32}";
type = Stem;
}
);
layerId = "0ac4930a-26e9-4cfa-a42f-96cf237e936b";
paths = (
{
closed = 1;
nodes = (
"105 628 LINE",
"133 628 LINE",
"133 729 OFFCURVE",
"215 812 OFFCURVE",
"317 812 CURVE SMOOTH",
"419 812 OFFCURVE",
"501 729 OFFCURVE",
"501 628 CURVE SMOOTH",
"501 517 OFFCURVE",
"411 432 OFFCURVE",
"300 432 CURVE",
"278 432 LINE",
"278 403 LINE",
"278 403 OFFCURVE",
"290 406 OFFCURVE",
"305 406 CURVE SMOOTH",
"411 406 OFFCURVE",
"505 317 OFFCURVE",
"505 203 CURVE SMOOTH",
"505 99 OFFCURVE",
"437 15 OFFCURVE",
"303 15 CURVE SMOOTH",
"169 15 OFFCURVE",
"87 98 OFFCURVE",
"87 202 CURVE",
"58 202 LINE",
"58 81 OFFCURVE",
"148 -16 OFFCURVE",
"303 -16 CURVE SMOOTH",
"459 -16 OFFCURVE",
"537 82 OFFCURVE",
"537 203 CURVE SMOOTH",
"537 303 OFFCURVE",
"476 396 OFFCURVE",
"379 418 CURVE",
"467 445 OFFCURVE",
"531 530 OFFCURVE",
"531 627 CURVE SMOOTH",
"531 744 OFFCURVE",
"436 840 OFFCURVE",
"318 840 CURVE SMOOTH",
"201 840 OFFCURVE",
"105 750 OFFCURVE",
"105 628 CURVE"
);
}
);
width = 627;
}
);
rightKerningGroup = _A1;
unicode = 0033;
},
{
color = (153,249,255,255);
glyphname = four;
lastChange = "2019-08-01 18:50:29 +0000";
layers = (
{
hints = (
{
horizontal = 1;
place = "{146, 193}";
type = Stem;
},
{
horizontal = 1;
place = "{825, -20}";
target = down;
type = TopGhost;
},
{
horizontal = 1;
place = "{0, -20}";
target = down;
type = TopGhost;
},
{
place = "{379, 206}";
type = Stem;
}
);
layerId = "9d3a33de-08d4-49ee-85e3-2813f64ed4e4";
paths = (
{
closed = 1;
nodes = (
"-31 146 LINE",
"379 146 LINE",
"379 0 LINE",
"585 0 LINE",
"585 146 LINE",
"681 146 LINE",
"681 339 LINE",
"585 339 LINE",
"585 825 LINE",
"367 825 LINE",
"-31 208 LINE"
);
},
{
closed = 1;
nodes = (
"271 339 LINE",
"379 532 LINE",
"379 339 LINE"
);
}
);
width = 691;
},
{
hints = (
{
horizontal = 1;
place = "{313, 25}";
type = Stem;
},
{
horizontal = 1;
place = "{825, -20}";
target = down;
type = TopGhost;
},
{
horizontal = 1;
place = "{0, -20}";
target = down;
type = TopGhost;
},
{
place = "{390, 28}";
type = Stem;
}
);
layerId = "0ac4930a-26e9-4cfa-a42f-96cf237e936b";
paths = (
{
closed = 1;
nodes = (
"5 313 LINE",
"390 313 LINE",
"390 0 LINE",
"418 0 LINE",
"418 313 LINE",
"514 313 LINE",
"514 338 LINE",
"418 338 LINE",
"418 825 LINE",
"390 825 LINE",
"5 338 LINE"
);
},
{
closed = 1;
nodes = (
"37 338 LINE",
"390 784 LINE",
"390 338 LINE"
);
}
);
width = 539;
}
);
rightKerningGroup = _A1;
unicode = 0034;
},
{
color = (153,249,255,255);
glyphname = five;
lastChange = "2019-08-01 18:50:29 +0000";
layers = (
{
associatedMasterId = "9d3a33de-08d4-49ee-85e3-2813f64ed4e4";
layerId = "cf2a3b8c-bb53-4d9e-827a-d6f64e11d495";
name = public.background;
width = 0;
},
{
hints = (
{
horizontal = 1;
place = "{-15, 184}";
type = Stem;
},
{
horizontal = 1;
place = "{384, 162}";
type = Stem;
},
{
horizontal = 1;
place = "{632, 193}";
type = Stem;
},
{
place = "{394, 221}";
type = Stem;
}
);
layerId = "9d3a33de-08d4-49ee-85e3-2813f64ed4e4";
paths = (
{
closed = 1;
nodes = (
"141 825 LINE",
"69 367 LINE",
"69 367 OFFCURVE",
"125 384 OFFCURVE",
"191 384 CURVE SMOOTH",
"290 384 OFFCURVE",
"394 361 OFFCURVE",
"394 263 CURVE SMOOTH",
"394 208 OFFCURVE",
"353 169 OFFCURVE",
"306 169 CURVE SMOOTH",
"231 169 OFFCURVE",
"196 202 OFFCURVE",
"184 248 CURVE",
"10 164 LINE",
"41 80 OFFCURVE",
"126 -15 OFFCURVE",
"306 -15 CURVE SMOOTH",
"480 -15 OFFCURVE",
"615 98 OFFCURVE",
"615 256 CURVE SMOOTH",
"615 483 OFFCURVE",
"472 545 OFFCURVE",
"317 546 CURVE",
"330 632 LINE",
"562 632 LINE",
"562 825 LINE"
);
}
);
width = 628;
},
{
hints = (
{
horizontal = 1;
place = "{-16, 24}";
type = Stem;
},
{
horizontal = 1;
place = "{522, 24}";
type = Stem;
},
{
horizontal = 1;
place = "{800, 25}";
type = Stem;
},
{
place = "{609, 25}";
type = Stem;
}
);
layerId = "0ac4930a-26e9-4cfa-a42f-96cf237e936b";
paths = (
{
closed = 1;
nodes = (
"160 825 LINE",
"94 399 LINE",
"146 459 OFFCURVE",
"226 522 OFFCURVE",
"340 522 CURVE SMOOTH",
"488 522 OFFCURVE",
"609 423 OFFCURVE",
"609 256 CURVE SMOOTH",
"609 111 OFFCURVE",
"517 8 OFFCURVE",
"341 8 CURVE SMOOTH",
"199 8 OFFCURVE",
"110 98 OFFCURVE",
"82 175 CURVE",
"58 163 LINE",
"89 79 OFFCURVE",
"184 -16 OFFCURVE",
"340 -16 CURVE SMOOTH",
"532 -16 OFFCURVE",
"634 97 OFFCURVE",
"634 255 CURVE SMOOTH",
"634 438 OFFCURVE",
"502 546 OFFCURVE",
"339 546 CURVE SMOOTH",
"237 546 OFFCURVE",
"172 506 OFFCURVE",
"128 465 CURVE",
"180 800 LINE",
"581 800 LINE",
"581 825 LINE"
);
}
);
width = 706;
}
);
rightKerningGroup = _A1;
unicode = 0035;
},
{
color = (153,249,255,255);
glyphname = six;
lastChange = "2019-08-01 18:50:29 +0000";
layers = (
{
hints = (
{
horizontal = 1;
place = "{-16, 182}";
type = Stem;
},
{
horizontal = 1;
place = "{367, 188}";
type = Stem;
},
{
horizontal = 1;
place = "{825, -20}";
target = down;
type = TopGhost;
},
{
place = "{19, 229}";
type = Stem;
},
{
place = "{448, 221}";
type = Stem;
}
);
layerId = "9d3a33de-08d4-49ee-85e3-2813f64ed4e4";
paths = (
{
closed = 1;
nodes = (
"19 266 LINE",
"19 108 OFFCURVE",
"169 -16 OFFCURVE",
"358 -16 CURVE SMOOTH",
"504 -16 OFFCURVE",
"669 64 OFFCURVE",
"669 266 CURVE SMOOTH",
"669 463 OFFCURVE",
"514 555 OFFCURVE",
"410 555 CURVE SMOOTH",
"380 555 OFFCURVE",
"364 548 OFFCURVE",
"364 548 CURVE",
"603 825 LINE",
"332 825 LINE",
"161 622 LINE SMOOTH",
"55 497 OFFCURVE",
"19 424 OFFCURVE",
"19 266 CURVE SMOOTH"
);
},
{
closed = 1;
nodes = (
"248 265 LINE",
"248 326 OFFCURVE",
"292 367 OFFCURVE",
"347 367 CURVE SMOOTH",
"404 367 OFFCURVE",
"448 324 OFFCURVE",
"448 265 CURVE SMOOTH",
"448 208 OFFCURVE",
"405 166 OFFCURVE",
"347 166 CURVE SMOOTH",
"289 166 OFFCURVE",
"248 208 OFFCURVE",
"248 265 CURVE SMOOTH"
);
}
);
width = 688;
},
{
hints = (
{
horizontal = 1;
place = "{-16, 26}";
type = Stem;
},
{
horizontal = 1;
place = "{522, 26}";
type = Stem;
},
{
horizontal = 1;
place = "{825, -20}";
target = down;
type = TopGhost;
},
{
place = "{69, 26}";
type = Stem;
},
{
place = "{604, 26}";
type = Stem;
}
);
layerId = "0ac4930a-26e9-4cfa-a42f-96cf237e936b";
paths = (
{
closed = 1;
nodes = (
"69 262 LINE",
"69 102 OFFCURVE",
"185 -16 OFFCURVE",
"347 -16 CURVE SMOOTH",
"510 -16 OFFCURVE",
"630 102 OFFCURVE",
"630 262 CURVE SMOOTH",
"630 427 OFFCURVE",
"505 548 OFFCURVE",
"347 548 CURVE SMOOTH",
"301 548 OFFCURVE",
"258 532 OFFCURVE",
"223 512 CURVE",
"485 825 LINE",
"450 825 LINE",
"450 825 OFFCURVE",
"174 496 OFFCURVE",
"140 456 CURVE SMOOTH",
"106 416 OFFCURVE",
"69 339 OFFCURVE",
"69 262 CURVE SMOOTH"
);
},
{
closed = 1;
nodes = (
"95 263 LINE",
"95 403 OFFCURVE",
"209 522 OFFCURVE",
"347 522 CURVE SMOOTH",
"491 522 OFFCURVE",
"604 413 OFFCURVE",
"604 263 CURVE SMOOTH",
"604 117 OFFCURVE",
"495 10 OFFCURVE",
"347 10 CURVE SMOOTH",
"200 10 OFFCURVE",
"95 117 OFFCURVE",
"95 263 CURVE SMOOTH"
);
}
);
width = 699;
}
);
rightKerningGroup = _A1;
unicode = 0036;
},
{
color = (153,249,255,255);
glyphname = seven;
lastChange = "2019-08-01 18:50:29 +0000";
layers = (
{
hints = (
{
horizontal = 1;
place = "{632, 193}";
type = Stem;
},
{
horizontal = 1;
place = "{0, -20}";
target = down;
type = TopGhost;
}
);
layerId = "9d3a33de-08d4-49ee-85e3-2813f64ed4e4";
paths = (
{
closed = 1;
nodes = (
"85 825 LINE",
"85 632 LINE",
"425 632 LINE",
"55 0 LINE",
"315 0 LINE",
"751 762 LINE",
"751 825 LINE"
);
}
);
width = 721;
},
{
hints = (
{
horizontal = 1;
place = "{800, 25}";
type = Stem;
},
{
horizontal = 1;
place = "{0, -20}";
target = down;
type = TopGhost;
}
);
layerId = "0ac4930a-26e9-4cfa-a42f-96cf237e936b";
paths = (
{
closed = 1;
nodes = (
"56 825 LINE",
"56 800 LINE",
"485 800 LINE",
"56 0 LINE",
"89 0 LINE",
"525 812 LINE",
"525 825 LINE"
);
}
);
width = 525;
}
);
rightKerningGroup = _A1;
unicode = 0037;
},
{
color = (153,249,255,255);
glyphname = eight;
lastChange = "2019-08-01 18:50:29 +0000";
layers = (
{
associatedMasterId = "9d3a33de-08d4-49ee-85e3-2813f64ed4e4";
layerId = "cf2a3b8c-bb53-4d9e-827a-d6f64e11d495";
name = public.background;
width = 0;
},
{
hints = (
{
horizontal = 1;
place = "{-16, 190}";
type = Stem;
},
{
horizontal = 1;
place = "{344, 182}";
type = Stem;
},
{
horizontal = 1;
place = "{674, 166}";
type = Stem;
},
{
place = "{28, 241}";
type = Stem;
},
{
place = "{64, 212}";
type = Stem;
},
{
place = "{431, 241}";
type = Stem;
},
{
place = "{424, 212}";
type = Stem;
}
);
layerId = "9d3a33de-08d4-49ee-85e3-2813f64ed4e4";
paths = (
{
closed = 1;
nodes = (
"64 632 LINE SMOOTH",
"64 541 OFFCURVE",
"108 484 OFFCURVE",
"169 447 CURVE",
"88 408 OFFCURVE",
"28 337 OFFCURVE",
"28 223 CURVE SMOOTH",
"28 82 OFFCURVE",
"185 -16 OFFCURVE",
"350 -16 CURVE SMOOTH",
"515 -16 OFFCURVE",
"672 82 OFFCURVE",
"672 223 CURVE SMOOTH",
"672 337 OFFCURVE",
"612 408 OFFCURVE",
"531 447 CURVE",
"592 484 OFFCURVE",
"636 541 OFFCURVE",
"636 632 CURVE SMOOTH",
"636 756 OFFCURVE",
"490 840 OFFCURVE",
"350 840 CURVE SMOOTH",
"210 840 OFFCURVE",
"64 756 OFFCURVE",
"64 632 CURVE SMOOTH"
);
},
{
closed = 1;
nodes = (
"269 259 LINE SMOOTH",
"269 309 OFFCURVE",
"303 344 OFFCURVE",
"350 344 CURVE SMOOTH",
"397 344 OFFCURVE",
"431 309 OFFCURVE",
"431 259 CURVE SMOOTH",
"431 209 OFFCURVE",
"399 174 OFFCURVE",
"350 174 CURVE SMOOTH",
"301 174 OFFCURVE",
"269 209 OFFCURVE",
"269 259 CURVE SMOOTH"
);
},
{
closed = 1;
nodes = (
"276 600 LINE SMOOTH",
"276 641 OFFCURVE",
"307 674 OFFCURVE",
"350 674 CURVE SMOOTH",
"393 674 OFFCURVE",
"424 641 OFFCURVE",
"424 600 CURVE SMOOTH",
"424 555 OFFCURVE",
"390 526 OFFCURVE",
"350 526 CURVE SMOOTH",
"310 526 OFFCURVE",
"276 555 OFFCURVE",
"276 600 CURVE SMOOTH"
);
}
);
width = 700;
},
{
associatedMasterId = "0ac4930a-26e9-4cfa-a42f-96cf237e936b";
layerId = "DB78CC43-A7F6-4AC0-9396-6741CFBC96AA";
name = public.background;
width = 0;
},
{
hints = (
{
horizontal = 1;
place = "{-16, 24}";
type = Stem;
},
{
horizontal = 1;
place = "{423, 23}";
type = Stem;
},
{
horizontal = 1;
place = "{819, 21}";
type = Stem;
},
{
place = "{69, 27}";
type = Stem;
},
{
place = "{99, 24}";
type = Stem;
},
{
place = "{499, 24}";
type = Stem;
},
{
place = "{526, 27}";
type = Stem;
}
);
layerId = "0ac4930a-26e9-4cfa-a42f-96cf237e936b";
paths = (
{
closed = 1;
nodes = (
"99 630 LINE SMOOTH",
"99 539 OFFCURVE",
"154 467 OFFCURVE",
"229 436 CURVE",
"138 404 OFFCURVE",
"69 324 OFFCURVE",
"69 217 CURVE SMOOTH",
"69 82 OFFCURVE",
"173 -16 OFFCURVE",
"311 -16 CURVE SMOOTH",
"449 -16 OFFCURVE",
"553 82 OFFCURVE",
"553 217 CURVE SMOOTH",
"553 324 OFFCURVE",
"484 404 OFFCURVE",
"393 436 CURVE",
"468 467 OFFCURVE",
"523 539 OFFCURVE",
"523 630 CURVE SMOOTH",
"523 754 OFFCURVE",
"428 840 OFFCURVE",
"311 840 CURVE SMOOTH",
"194 840 OFFCURVE",
"99 754 OFFCURVE",
"99 630 CURVE SMOOTH"
);
},
{
closed = 1;
nodes = (
"123 632 LINE SMOOTH",
"123 742 OFFCURVE",
"207 819 OFFCURVE",
"311 819 CURVE SMOOTH",
"415 819 OFFCURVE",
"499 742 OFFCURVE",
"499 632 CURVE SMOOTH",
"499 524 OFFCURVE",
"418 446 OFFCURVE",
"311 446 CURVE SMOOTH",
"204 446 OFFCURVE",
"123 524 OFFCURVE",
"123 632 CURVE SMOOTH"
);
},
{
closed = 1;
nodes = (
"96 216 LINE SMOOTH",
"96 338 OFFCURVE",
"192 423 OFFCURVE",
"311 423 CURVE SMOOTH",
"430 423 OFFCURVE",
"526 338 OFFCURVE",
"526 216 CURVE SMOOTH",
"526 95 OFFCURVE",
"434 8 OFFCURVE",
"311 8 CURVE SMOOTH",
"188 8 OFFCURVE",
"96 95 OFFCURVE",
"96 216 CURVE SMOOTH"
);
}
);
width = 622;
}
);
rightKerningGroup = _A1;
unicode = 0038;
},
{
color = (153,249,255,255);
glyphname = nine;
lastChange = "2019-08-01 18:50:29 +0000";
layers = (
{
hints = (
{
horizontal = 1;
place = "{269, 188}";
type = Stem;
},
{
horizontal = 1;
place = "{658, 182}";
type = Stem;
},
{
horizontal = 1;
place = "{0, -20}";
target = down;
type = TopGhost;
},
{
place = "{19, 221}";
type = Stem;
},
{
place = "{440, 229}";
type = Stem;
}
);
layerId = "9d3a33de-08d4-49ee-85e3-2813f64ed4e4";
paths = (
{
closed = 1;
nodes = (
"19 558 LINE",
"19 361 OFFCURVE",
"174 269 OFFCURVE",
"278 269 CURVE SMOOTH",
"308 269 OFFCURVE",
"324 276 OFFCURVE",
"324 276 CURVE",
"85 0 LINE",
"356 0 LINE",
"527 202 LINE SMOOTH",
"633 327 OFFCURVE",
"669 400 OFFCURVE",
"669 558 CURVE SMOOTH",
"669 716 OFFCURVE",
"519 840 OFFCURVE",
"330 840 CURVE SMOOTH",
"184 840 OFFCURVE",
"19 760 OFFCURVE",
"19 558 CURVE SMOOTH"
);
},
{
closed = 1;
nodes = (
"240 559 LINE",
"240 616 OFFCURVE",
"283 658 OFFCURVE",
"341 658 CURVE SMOOTH",
"399 658 OFFCURVE",
"440 616 OFFCURVE",
"440 559 CURVE SMOOTH",
"440 498 OFFCURVE",
"396 457 OFFCURVE",
"341 457 CURVE SMOOTH",
"284 457 OFFCURVE",
"240 500 OFFCURVE",
"240 559 CURVE SMOOTH"
);
}
);
width = 688;
},
{
hints = (
{
horizontal = 1;
place = "{277, 26}";
type = Stem;
},
{
horizontal = 1;
place = "{814, 26}";
type = Stem;
},
{
horizontal = 1;
place = "{0, -20}";
target = down;
type = TopGhost;
},
{
place = "{69, 26}";
type = Stem;
},
{
place = "{604, 26}";
type = Stem;
}
);
layerId = "0ac4930a-26e9-4cfa-a42f-96cf237e936b";
paths = (
{
closed = 1;
nodes = (
"69 562 LINE",
"69 397 OFFCURVE",
"194 277 OFFCURVE",
"352 277 CURVE SMOOTH",
"398 277 OFFCURVE",
"441 292 OFFCURVE",
"476 312 CURVE",
"214 0 LINE",
"249 0 LINE",
"249 0 OFFCURVE",
"525 329 OFFCURVE",
"559 369 CURVE SMOOTH",
"593 408 OFFCURVE",
"630 485 OFFCURVE",
"630 562 CURVE SMOOTH",
"630 722 OFFCURVE",
"514 840 OFFCURVE",
"352 840 CURVE SMOOTH",
"189 840 OFFCURVE",
"69 722 OFFCURVE",
"69 562 CURVE SMOOTH"
);
},
{
closed = 1;
nodes = (
"95 561 LINE",
"95 707 OFFCURVE",
"204 814 OFFCURVE",
"351 814 CURVE SMOOTH",
"499 814 OFFCURVE",
"604 707 OFFCURVE",
"604 561 CURVE SMOOTH",
"604 421 OFFCURVE",
"490 303 OFFCURVE",
"351 303 CURVE SMOOTH",
"208 303 OFFCURVE",
"95 412 OFFCURVE",
"95 561 CURVE SMOOTH"
);
}
);
width = 699;
}
);
rightKerningGroup = _A1;
unicode = 0039;
},
{
color = (153,249,255,255);
glyphname = colon;
lastChange = "2019-08-01 18:50:29 +0000";
layers = (
{
hints = (
{
horizontal = 1;
place = "{-16, 266}";
type = Stem;
},
{
horizontal = 1;
place = "{318, 266}";
type = Stem;
},
{
place = "{61, 266}";
type = Stem;
}
);
layerId = "9d3a33de-08d4-49ee-85e3-2813f64ed4e4";
paths = (
{
closed = 1;
nodes = (
"194 250 LINE SMOOTH",
"120 250 OFFCURVE",
"61 191 OFFCURVE",
"61 117 CURVE SMOOTH",
"61 43 OFFCURVE",
"120 -16 OFFCURVE",
"194 -16 CURVE SMOOTH",
"268 -16 OFFCURVE",
"327 43 OFFCURVE",
"327 117 CURVE SMOOTH",
"327 191 OFFCURVE",
"268 250 OFFCURVE",
"194 250 CURVE SMOOTH"
);
},
{
closed = 1;
nodes = (
"194 584 LINE SMOOTH",
"120 584 OFFCURVE",
"61 525 OFFCURVE",
"61 451 CURVE SMOOTH",
"61 377 OFFCURVE",
"120 318 OFFCURVE",
"194 318 CURVE SMOOTH",
"268 318 OFFCURVE",
"327 377 OFFCURVE",
"327 451 CURVE SMOOTH",
"327 525 OFFCURVE",
"268 584 OFFCURVE",
"194 584 CURVE SMOOTH"
);
}
);
width = 388;
},
{
hints = (
{
horizontal = 1;
place = "{-16, 48}";
type = Stem;
},
{
horizontal = 1;
place = "{554, -48}";
type = Stem;
},
{
place = "{56, 48}";
type = Stem;
}
);
layerId = "0ac4930a-26e9-4cfa-a42f-96cf237e936b";
paths = (
{
closed = 1;
nodes = (
"80 32 LINE",
"67 32 OFFCURVE",
"56 21 OFFCURVE",
"56 8 CURVE SMOOTH",
"56 -5 OFFCURVE",
"67 -16 OFFCURVE",
"80 -16 CURVE SMOOTH",
"93 -16 OFFCURVE",
"104 -5 OFFCURVE",
"104 8 CURVE SMOOTH",
"104 21 OFFCURVE",
"93 32 OFFCURVE",
"80 32 CURVE SMOOTH"
);
},
{
closed = 1;
nodes = (
"80 554 LINE",
"67 554 OFFCURVE",
"56 543 OFFCURVE",
"56 530 CURVE SMOOTH",
"56 517 OFFCURVE",
"67 506 OFFCURVE",
"80 506 CURVE SMOOTH",
"93 506 OFFCURVE",
"104 517 OFFCURVE",
"104 530 CURVE SMOOTH",
"104 543 OFFCURVE",
"93 554 OFFCURVE",
"80 554 CURVE SMOOTH"
);
}
);
width = 160;
}
);
rightKerningGroup = _A1;
unicode = 003A;
},
{
color = (153,249,255,255);
glyphname = semicolon;
lastChange = "2019-08-01 18:50:29 +0000";
layers = (
{
hints = (
{
horizontal = 1;
place = "{318, 266}";
type = Stem;
},
{
horizontal = 1;
place = "{250, -20}";
target = down;
type = TopGhost;
},
{
horizontal = 1;
place = "{-207, -20}";
target = down;
type = TopGhost;
},
{
place = "{61, 266}";
type = Stem;
},
{
place = "{61, 265}";
type = Stem;
}
);
layerId = "9d3a33de-08d4-49ee-85e3-2813f64ed4e4";
paths = (
{
closed = 1;
nodes = (
"194 584 LINE SMOOTH",
"120 584 OFFCURVE",
"61 525 OFFCURVE",
"61 451 CURVE SMOOTH",
"61 377 OFFCURVE",
"120 318 OFFCURVE",
"194 318 CURVE SMOOTH",
"268 318 OFFCURVE",
"327 377 OFFCURVE",
"327 451 CURVE SMOOTH",
"327 525 OFFCURVE",
"268 584 OFFCURVE",
"194 584 CURVE SMOOTH"
);
},
{
closed = 1;
nodes = (
"193 250 LINE SMOOTH",
"120 250 OFFCURVE",
"61 191 OFFCURVE",
"61 117 CURVE SMOOTH",
"61 56 OFFCURVE",
"103 10 OFFCURVE",
"159 -4 CURVE",
"140 -97 OFFCURVE",
"69 -161 OFFCURVE",
"72 -158 CURVE",
"132 -207 LINE",
"226 -129 OFFCURVE",
"326 -18 OFFCURVE",
"326 117 CURVE SMOOTH",
"326 191 OFFCURVE",
"267 250 OFFCURVE",
"193 250 CURVE SMOOTH"
);
}
);
width = 388;
},
{
hints = (
{
horizontal = 1;
place = "{506, 48}";
type = Stem;
},
{
horizontal = 1;
place = "{-93, -20}";
target = down;
type = TopGhost;
},
{
horizontal = 1;
place = "{-16, -20}";
target = down;
type = TopGhost;
},
{
horizontal = 1;
place = "{32, -20}";
target = down;
type = TopGhost;
},
{
place = "{56, 48}";
type = Stem;
}
);
layerId = "0ac4930a-26e9-4cfa-a42f-96cf237e936b";
paths = (
{
closed = 1;
nodes = (
"80 32 LINE",
"67 32 OFFCURVE",
"56 21 OFFCURVE",
"56 8 CURVE SMOOTH",
"56 -5 OFFCURVE",
"67 -16 OFFCURVE",
"80 -16 CURVE",
"80 -48 OFFCURVE",
"74 -70 OFFCURVE",
"62 -88 CURVE",
"67 -93 LINE",
"89 -74 OFFCURVE",
"104 -40 OFFCURVE",
"104 8 CURVE SMOOTH",
"104 21 OFFCURVE",
"93 32 OFFCURVE",
"80 32 CURVE SMOOTH"
);
},
{
closed = 1;
nodes = (
"80 554 LINE SMOOTH",
"67 554 OFFCURVE",
"56 543 OFFCURVE",
"56 530 CURVE SMOOTH",
"56 517 OFFCURVE",
"67 506 OFFCURVE",
"80 506 CURVE SMOOTH",
"93 506 OFFCURVE",
"104 517 OFFCURVE",
"104 530 CURVE SMOOTH",
"104 543 OFFCURVE",
"93 554 OFFCURVE",
"80 554 CURVE SMOOTH"
);
}
);
width = 160;
}
);
rightKerningGroup = _A1;
unicode = 003B;
},
{
color = (153,249,255,255);
glyphname = exclam;
lastChange = "2019-08-01 18:50:29 +0000";
layers = (
{
hints = (
{
horizontal = 1;
place = "{-16, 266}";
type = Stem;
},
{
horizontal = 1;
place = "{860, -20}";
target = down;
type = TopGhost;
},
{
place = "{49, 266}";
type = Stem;
},
{
place = "{79, 208}";
type = Stem;
}
);
layerId = "9d3a33de-08d4-49ee-85e3-2813f64ed4e4";
paths = (
{
closed = 1;
nodes = (
"79 860 LINE",
"108 290 LINE",
"258 290 LINE",
"287 860 LINE"
);
},
{
closed = 1;
nodes = (
"182 250 LINE SMOOTH",
"108 250 OFFCURVE",
"49 191 OFFCURVE",
"49 117 CURVE SMOOTH",
"49 43 OFFCURVE",
"108 -16 OFFCURVE",
"182 -16 CURVE SMOOTH",
"256 -16 OFFCURVE",
"315 43 OFFCURVE",
"315 117 CURVE SMOOTH",
"315 191 OFFCURVE",
"256 250 OFFCURVE",
"182 250 CURVE SMOOTH"
);
}
);
width = 364;
},
{
hints = (
{
horizontal = 1;
place = "{-16, 48}";
type = Stem;
},
{
horizontal = 1;
place = "{860, -20}";
target = down;
type = TopGhost;
},
{
place = "{127, 26}";
type = Stem;
},
{
place = "{116, 48}";
type = Stem;
}
);
layerId = "0ac4930a-26e9-4cfa-a42f-96cf237e936b";
paths = (
{
closed = 1;
nodes = (
"140 32 LINE",
"127 32 OFFCURVE",
"116 21 OFFCURVE",
"116 8 CURVE SMOOTH",
"116 -5 OFFCURVE",
"127 -16 OFFCURVE",
"140 -16 CURVE SMOOTH",
"153 -16 OFFCURVE",
"164 -5 OFFCURVE",
"164 8 CURVE SMOOTH",
"164 21 OFFCURVE",
"153 32 OFFCURVE",
"140 32 CURVE"
);
},
{
closed = 1;
nodes = (
"127 860 LINE",
"127 168 LINE",
"153 168 LINE",
"153 860 LINE"
);
}
);
width = 280;
}
);
rightKerningGroup = _A1;
unicode = 0021;
},
{
color = (153,249,255,255);
glyphname = question;
lastChange = "2019-08-01 18:50:29 +0000";
layers = (
{
hints = (
{
horizontal = 1;
place = "{-16, -20}";
target = down;
type = TopGhost;
},
{
horizontal = 1;
place = "{351, 173}";
type = Stem;
},
{
horizontal = 1;
place = "{657, 183}";
type = Stem;
},
{
horizontal = 1;
place = "{249, -265}";
type = Stem;
},
{
place = "{167, 265}";
type = Stem;
},
{
place = "{203, 193}";
type = Stem;
},
{
place = "{386, 195}";
type = Stem;
}
);
layerId = "9d3a33de-08d4-49ee-85e3-2813f64ed4e4";
paths = (
{
closed = 1;
nodes = (
"299 249 LINE SMOOTH",
"226 249 OFFCURVE",
"167 190 OFFCURVE",
"167 116 CURVE SMOOTH",
"167 43 OFFCURVE",
"226 -16 OFFCURVE",
"299 -16 CURVE SMOOTH",
"373 -16 OFFCURVE",
"432 43 OFFCURVE",
"432 116 CURVE SMOOTH",
"432 190 OFFCURVE",
"373 249 OFFCURVE",
"299 249 CURVE SMOOTH"
);
},
{
closed = 1;
nodes = (
"20 640 LINE",
"190 602 LINE",
"204 620 OFFCURVE",
"219 657 OFFCURVE",
"298 657 CURVE SMOOTH",
"377 657 OFFCURVE",
"386 599 OFFCURVE",
"386 589 CURVE SMOOTH",
"386 579 OFFCURVE",
"376 524 OFFCURVE",
"301 524 CURVE SMOOTH",
"254 524 OFFCURVE",
"231 526 OFFCURVE",
"203 533 CURVE",
"203 287 LINE",
"396 287 LINE",
"396 351 LINE",
"533 392 OFFCURVE",
"581 516 OFFCURVE",
"581 589 CURVE SMOOTH",
"581 680 OFFCURVE",
"511 840 OFFCURVE",
"298 840 CURVE SMOOTH",
"118 840 OFFCURVE",
"42 723 OFFCURVE",
"20 640 CURVE"
);
}
);
width = 600;
},
{
hints = (
{
horizontal = 1;
place = "{-16, 48}";
type = Stem;
},
{
horizontal = 1;
place = "{812, 28}";
type = Stem;
},
{
horizontal = 1;
place = "{345, 25}";
type = Stem;
},
{
place = "{36, 28}";
type = Stem;
},
{
place = "{241, 25}";
type = Stem;
},
{
place = "{494, 28}";
type = Stem;
},
{
place = "{229, 48}";
type = Stem;
}
);
layerId = "0ac4930a-26e9-4cfa-a42f-96cf237e936b";
paths = (
{
closed = 1;
nodes = (
"36 592 LINE",
"64 592 LINE",
"64 726 OFFCURVE",
"148 812 OFFCURVE",
"278 812 CURVE SMOOTH",
"406 812 OFFCURVE",
"494 729 OFFCURVE",
"494 596 CURVE SMOOTH",
"494 465 OFFCURVE",
"411 370 OFFCURVE",
"265 370 CURVE",
"256 370 OFFCURVE",
"247 371 OFFCURVE",
"241 372 CURVE",
"241 185 LINE",
"266 185 LINE",
"266 345 LINE",
"433 345 OFFCURVE",
"522 464 OFFCURVE",
"522 596 CURVE SMOOTH",
"522 729 OFFCURVE",
"422 840 OFFCURVE",
"278 840 CURVE SMOOTH",
"131 840 OFFCURVE",
"36 742 OFFCURVE",
"36 592 CURVE"
);
},
{
closed = 1;
nodes = (
"253 32 LINE",
"240 32 OFFCURVE",
"229 21 OFFCURVE",
"229 8 CURVE SMOOTH",
"229 -5 OFFCURVE",
"240 -16 OFFCURVE",
"253 -16 CURVE SMOOTH",
"266 -16 OFFCURVE",
"277 -5 OFFCURVE",
"277 8 CURVE SMOOTH",
"277 21 OFFCURVE",
"266 32 OFFCURVE",
"253 32 CURVE SMOOTH"
);
}
);
width = 575;
}
);
rightKerningGroup = _A1;
unicode = 003F;
},
{
color = (153,249,255,255);
glyphname = at;
lastChange = "2019-08-01 18:50:29 +0000";
layers = (
{
hints = (
{
horizontal = 1;
place = "{-16, 165}";
type = Stem;
},
{
horizontal = 1;
place = "{216, 133}";
type = Stem;
},
{
horizontal = 1;
place = "{226, 141}";
type = Stem;
},
{
horizontal = 1;
place = "{464, 128}";
type = Stem;
},
{
horizontal = 1;
place = "{688, 152}";
type = Stem;
},
{
place = "{13, 169}";
type = Stem;
},
{
place = "{237, 159}";
type = Stem;
},
{
place = "{518, 137}";
type = Stem;
},
{
place = "{761, 137}";
type = Stem;
}
);
layerId = "9d3a33de-08d4-49ee-85e3-2813f64ed4e4";
paths = (
{
closed = 1;
nodes = (
"13 413 LINE SMOOTH",
"13 157 OFFCURVE",
"226 -16 OFFCURVE",
"469 -16 CURVE SMOOTH",
"683 -16 OFFCURVE",
"765 108 OFFCURVE",
"765 108 CURVE",
"631 198 LINE",
"631 198 OFFCURVE",
"579 149 OFFCURVE",
"470 149 CURVE SMOOTH",
"314 149 OFFCURVE",
"182 263 OFFCURVE",
"182 413 CURVE SMOOTH",
"182 564 OFFCURVE",
"308 688 OFFCURVE",
"470 688 CURVE SMOOTH",
"636 688 OFFCURVE",
"761 591 OFFCURVE",
"761 448 CURVE SMOOTH",
"761 387 OFFCURVE",
"743 367 OFFCURVE",
"701 367 CURVE SMOOTH",
"674 367 OFFCURVE",
"655 382 OFFCURVE",
"655 410 CURVE SMOOTH",
"655 582 LINE",
"518 582 LINE",
"518 564 LINE",
"489 582 OFFCURVE",
"454 592 OFFCURVE",
"412 592 CURVE SMOOTH",
"309 592 OFFCURVE",
"237 507 OFFCURVE",
"237 403 CURVE SMOOTH",
"237 301 OFFCURVE",
"309 216 OFFCURVE",
"412 216 CURVE SMOOTH",
"466 216 OFFCURVE",
"502 240 OFFCURVE",
"528 267 CURVE",
"566 240 OFFCURVE",
"623 226 OFFCURVE",
"675 226 CURVE SMOOTH",
"776 226 OFFCURVE",
"898 284 OFFCURVE",
"898 448 CURVE SMOOTH",
"898 683 OFFCURVE",
"704 840 OFFCURVE",
"469 840 CURVE SMOOTH",
"222 840 OFFCURVE",
"13 670 OFFCURVE",
"13 413 CURVE SMOOTH"
);
},
{
closed = 1;
nodes = (
"396 405 LINE SMOOTH",
"396 440 OFFCURVE",
"424 464 OFFCURVE",
"456 464 CURVE SMOOTH",
"488 464 OFFCURVE",
"517 440 OFFCURVE",
"517 405 CURVE SMOOTH",
"517 372 OFFCURVE",
"491 349 OFFCURVE",
"456 349 CURVE SMOOTH",
"420 349 OFFCURVE",
"396 370 OFFCURVE",
"396 405 CURVE SMOOTH"
);
}
);
width = 909;
},
{
associatedMasterId = "0ac4930a-26e9-4cfa-a42f-96cf237e936b";
layerId = "AFEC6A54-4B56-4E24-A172-53695BACECFC";
name = public.background;
width = 0;
},
{
hints = (
{
horizontal = 1;
place = "{-16, 27}";
type = Stem;
},
{
horizontal = 1;
place = "{131, 26}";
type = Stem;
},
{
horizontal = 1;
place = "{206, 25}";
type = Stem;
},
{
horizontal = 1;
place = "{650, 26}";
type = Stem;
},
{
horizontal = 1;
place = "{813, 27}";
type = Stem;
},
{
place = "{74, 30}";
type = Stem;
},
{
place = "{214, 27}";
type = Stem;
},
{
place = "{876, 30}";
type = Stem;
},
{
place = "{700, 28}";
type = Stem;
}
);
layerId = "0ac4930a-26e9-4cfa-a42f-96cf237e936b";
paths = (
{
closed = 1;
nodes = (
"74 412 LINE",
"74 171 OFFCURVE",
"246 -16 OFFCURVE",
"491 -16 CURVE SMOOTH",
"634 -16 OFFCURVE",
"756 53 OFFCURVE",
"830 161 CURVE",
"804 174 LINE",
"735 74 OFFCURVE",
"623 11 OFFCURVE",
"490 11 CURVE SMOOTH",
"264 11 OFFCURVE",
"104 186 OFFCURVE",
"104 412 CURVE SMOOTH",
"104 638 OFFCURVE",
"280 813 OFFCURVE",
"490 813 CURVE SMOOTH",
"703 813 OFFCURVE",
"876 638 OFFCURVE",
"876 412 CURVE SMOOTH",
"876 272 OFFCURVE",
"849 231 OFFCURVE",
"803 231 CURVE SMOOTH",
"757 231 OFFCURVE",
"728 262 OFFCURVE",
"728 327 CURVE SMOOTH",
"728 660 LINE",
"700 660 LINE",
"700 529 LINE",
"659 619 OFFCURVE",
"574 676 OFFCURVE",
"471 676 CURVE SMOOTH",
"326 676 OFFCURVE",
"214 563 OFFCURVE",
"214 403 CURVE SMOOTH",
"214 243 OFFCURVE",
"326 131 OFFCURVE",
"471 131 CURVE SMOOTH",
"574 131 OFFCURVE",
"659 188 OFFCURVE",
"700 278 CURVE",
"710 247 OFFCURVE",
"738 206 OFFCURVE",
"803 206 CURVE SMOOTH",
"883 206 OFFCURVE",
"906 296 OFFCURVE",
"906 412 CURVE SMOOTH",
"906 654 OFFCURVE",
"720 840 OFFCURVE",
"491 840 CURVE SMOOTH",
"263 840 OFFCURVE",
"74 654 OFFCURVE",
"74 412 CURVE SMOOTH"
);
},
{
closed = 1;
nodes = (
"241 403 LINE",
"241 548 OFFCURVE",
"339 650 OFFCURVE",
"472 650 CURVE SMOOTH",
"606 650 OFFCURVE",
"703 548 OFFCURVE",
"703 403 CURVE SMOOTH",
"703 259 OFFCURVE",
"606 157 OFFCURVE",
"472 157 CURVE SMOOTH",
"339 157 OFFCURVE",
"241 259 OFFCURVE",
"241 403 CURVE SMOOTH"
);
}
);
width = 980;
}
);
rightKerningGroup = _A1;
unicode = 0040;
},
{
color = (153,249,255,255);
glyphname = A;
lastChange = "2019-08-01 18:53:53 +0000";
layers = (
{
hints = (
{
horizontal = 1;
place = "{137, 193}";
type = Stem;
},
{
horizontal = 1;
place = "{0, -20}";
target = down;
type = TopGhost;
},
{
horizontal = 1;
place = "{825, -20}";
target = down;
type = TopGhost;
},
{
place = "{-34, 876}";
type = Stem;
}
);
layerId = "9d3a33de-08d4-49ee-85e3-2813f64ed4e4";
paths = (
{
closed = 1;
nodes = (
"203 0 LINE",
"253 137 LINE",
"555 137 LINE",
"605 0 LINE",
"842 0 LINE",
"506 825 LINE",
"302 825 LINE",
"-34 0 LINE"
);
},
{
closed = 1;
nodes = (
"404 526 LINE",
"481 330 LINE",
"327 330 LINE"
);
}
);
width = 808;
},
{
hints = (
{
horizontal = 1;
place = "{305, 25}";
type = Stem;
},
{
horizontal = 1;
place = "{0, 21}";
target = up;
type = BottomGhost;
},
{
horizontal = 1;
place = "{825, -20}";
target = down;
type = TopGhost;
},
{
place = "{0, 668}";
type = Stem;
}
);
layerId = "0ac4930a-26e9-4cfa-a42f-96cf237e936b";
paths = (
{
closed = 1;
nodes = (
"30 0 LINE",
"148 305 LINE",
"520 305 LINE",
"638 0 LINE",
"668 0 LINE",
"347 825 LINE",
"321 825 LINE",
"0 0 LINE"
);
},
{
closed = 1;
nodes = (
"334 791 LINE",
"511 330 LINE",
"157 330 LINE"
);
}
);
width = 668;
}
);
leftKerningGroup = _A;
rightKerningGroup = _A1;
unicode = 0041;
},
{
color = (153,249,255,255);
glyphname = B;
lastChange = "2019-08-01 18:55:11 +0000";
layers = (
{
hints = (
{
horizontal = 1;
place = "{0, 169}";
type = Stem;
},
{
horizontal = 1;
place = "{327, -20}";
target = down;
type = TopGhost;
},
{
horizontal = 1;
place = "{825, -169}";
type = Stem;
},
{
horizontal = 1;
place = "{516, -189}";
type = Stem;
},
{
place = "{49, 220}";
type = Stem;
},
{
place = "{369, 213}";
type = Stem;
},
{
place = "{423, 232}";
type = Stem;
}
);
layerId = "9d3a33de-08d4-49ee-85e3-2813f64ed4e4";
paths = (
{
closed = 1;
nodes = (
"382 0 LINE SMOOTH",
"555 0 OFFCURVE",
"655 97 OFFCURVE",
"655 233 CURVE SMOOTH",
"655 369 OFFCURVE",
"582 422 OFFCURVE",
"484 440 CURVE",
"551 477 OFFCURVE",
"582 542 OFFCURVE",
"582 615 CURVE SMOOTH",
"582 776 OFFCURVE",
"466 825 OFFCURVE",
"328 825 CURVE SMOOTH",
"49 825 LINE",
"49 0 LINE"
);
},
{
closed = 1;
nodes = (
"269 327 LINE",
"303 327 LINE SMOOTH",
"381 327 OFFCURVE",
"423 309 OFFCURVE",
"423 241 CURVE SMOOTH",
"423 187 OFFCURVE",
"381 169 OFFCURVE",
"303 169 CURVE SMOOTH",
"269 169 LINE"
);
},
{
closed = 1;
nodes = (
"269 656 LINE",
"264 656 LINE",
"334 656 OFFCURVE",
"369 639 OFFCURVE",
"369 592 CURVE SMOOTH",
"369 533 OFFCURVE",
"333 516 OFFCURVE",
"264 516 CURVE",
"269 516 LINE"
);
}
);
width = 671;
},
{
hints = (
{
horizontal = 1;
place = "{0, 26}";
type = Stem;
},
{
horizontal = 1;
place = "{407, 26}";
type = Stem;
},
{
horizontal = 1;
place = "{801, 24}";
type = Stem;
},
{
place = "{116, 28}";
type = Stem;
},
{
place = "{484, 26}";
type = Stem;
},
{
place = "{557, 26}";
type = Stem;
}
);
layerId = "0ac4930a-26e9-4cfa-a42f-96cf237e936b";
paths = (
{
closed = 1;
nodes = (
"329 0 LINE SMOOTH",
"490 0 OFFCURVE",
"583 81 OFFCURVE",
"583 215 CURVE SMOOTH",
"583 334 OFFCURVE",
"511 411 OFFCURVE",
"384 427 CURVE",
"465 458 OFFCURVE",
"510 523 OFFCURVE",
"510 616 CURVE SMOOTH",
"510 750 OFFCURVE",
"417 825 OFFCURVE",
"256 825 CURVE SMOOTH",
"116 825 LINE",
"116 0 LINE"
);
},
{
closed = 1;
nodes = (
"144 407 LINE",
"329 407 LINE SMOOTH",
"473 407 OFFCURVE",
"557 335 OFFCURVE",
"557 215 CURVE SMOOTH",
"557 96 OFFCURVE",
"473 26 OFFCURVE",
"329 26 CURVE SMOOTH",
"144 26 LINE"
);
},
{
closed = 1;
nodes = (
"144 801 LINE",
"256 801 LINE SMOOTH",
"400 800 OFFCURVE",
"484 735 OFFCURVE",
"484 616 CURVE SMOOTH",
"484 497 OFFCURVE",
"400 434 OFFCURVE",
"256 433 CURVE SMOOTH",
"144 433 LINE"
);
}
);
width = 641;
}
);
rightKerningGroup = _A1;
unicode = 0042;
},
{
color = (153,249,255,255);
glyphname = C;
lastChange = "2019-08-01 18:53:33 +0000";
layers = (
{
associatedMasterId = "9d3a33de-08d4-49ee-85e3-2813f64ed4e4";
layerId = "cf2a3b8c-bb53-4d9e-827a-d6f64e11d495";
name = public.background;
width = 0;
},
{
hints = (
{
horizontal = 1;
place = "{624, 216}";
type = Stem;
},
{
horizontal = 1;
place = "{-16, 216}";
type = Stem;
},
{
place = "{13, 238}";
type = Stem;
}
);
layerId = "9d3a33de-08d4-49ee-85e3-2813f64ed4e4";
paths = (
{
closed = 1;
nodes = (
"13 176 OFFCURVE",
"233 -16 OFFCURVE",
"464 -16 CURVE SMOOTH",
"644 -16 OFFCURVE",
"736 57 OFFCURVE",
"736 57 CURVE",
"643 245 LINE",
"643 245 OFFCURVE",
"585 200 OFFCURVE",
"498 200 CURVE SMOOTH",
"318 200 OFFCURVE",
"251 325 OFFCURVE",
"251 412 CURVE SMOOTH",
"251 499 OFFCURVE",
"318 624 OFFCURVE",
"498 624 CURVE SMOOTH",
"585 624 OFFCURVE",
"643 579 OFFCURVE",
"643 579 CURVE",
"736 767 LINE",
"736 767 OFFCURVE",
"644 840 OFFCURVE",
"464 840 CURVE SMOOTH",
"233 840 OFFCURVE",
"13 648 OFFCURVE",
"13 412 CURVE SMOOTH"
);
}
);
width = 749;
},
{
associatedMasterId = "0ac4930a-26e9-4cfa-a42f-96cf237e936b";
layerId = "63E9AE4B-9341-4333-A90A-42347B2211D4";
name = public.background;
width = 0;
},
{
hints = (
{
horizontal = 1;
place = "{-16, 28}";
type = Stem;
},
{
horizontal = 1;
place = "{812, 28}";
type = Stem;
},
{
place = "{74, 31}";
type = Stem;
}
);
layerId = "0ac4930a-26e9-4cfa-a42f-96cf237e936b";
paths = (
{
closed = 1;
nodes = (
"74 171 OFFCURVE",
"251 -16 OFFCURVE",
"502 -16 CURVE SMOOTH",
"605 -16 OFFCURVE",
"696 17 OFFCURVE",
"768 73 CURVE",
"751 95 LINE",
"685 41 OFFCURVE",
"598 12 OFFCURVE",
"502 12 CURVE SMOOTH",
"269 12 OFFCURVE",
"105 187 OFFCURVE",
"105 412 CURVE SMOOTH",
"105 637 OFFCURVE",
"269 812 OFFCURVE",
"502 812 CURVE SMOOTH",
"598 812 OFFCURVE",
"685 783 OFFCURVE",
"751 729 CURVE",
"768 751 LINE",
"696 807 OFFCURVE",
"605 840 OFFCURVE",
"502 840 CURVE SMOOTH",
"251 840 OFFCURVE",
"74 653 OFFCURVE",
"74 412 CURVE SMOOTH"
);
}
);
width = 842;
}
);
leftKerningGroup = _C;
leftMetricsKey = O;
rightKerningGroup = _C;
rightMetricsKey = O;
unicode = 0043;
},
{
color = (153,249,255,255);
glyphname = D;
lastChange = "2019-08-01 18:50:29 +0000";
layers = (
{
hints = (
{
horizontal = 1;
place = "{0, 197}";
type = Stem;
},
{
horizontal = 1;
place = "{628, 197}";
type = Stem;
},
{
place = "{49, 220}";
type = Stem;
},
{
place = "{481, 238}";
type = Stem;
}
);
layerId = "9d3a33de-08d4-49ee-85e3-2813f64ed4e4";
paths = (
{
closed = 1;
nodes = (
"49 825 LINE",
"49 0 LINE",
"303 0 LINE SMOOTH",
"530 0 OFFCURVE",
"719 171 OFFCURVE",
"719 412 CURVE SMOOTH",
"719 652 OFFCURVE",
"529 825 OFFCURVE",
"303 825 CURVE SMOOTH"
);
},
{
closed = 1;
nodes = (
"269 628 LINE",
"277 628 LINE SMOOTH",
"403 628 OFFCURVE",
"481 532 OFFCURVE",
"481 412 CURVE SMOOTH",
"480 291 OFFCURVE",
"401 197 OFFCURVE",
"277 197 CURVE SMOOTH",
"269 197 LINE"
);
}
);
width = 732;
},
{
hints = (
{
horizontal = 1;
place = "{0, 25}";
type = Stem;
},
{
horizontal = 1;
place = "{800, 25}";
type = Stem;
},
{
place = "{116, 28}";
type = Stem;
},
{
place = "{668, 27}";
type = Stem;
}
);
layerId = "0ac4930a-26e9-4cfa-a42f-96cf237e936b";
paths = (
{
closed = 1;
nodes = (
"116 825 LINE",
"116 0 LINE",
"279 0 LINE SMOOTH",
"506 0 OFFCURVE",
"695 172 OFFCURVE",
"695 413 CURVE SMOOTH",
"695 653 OFFCURVE",
"505 825 OFFCURVE",
"279 825 CURVE SMOOTH"
);
},
{
closed = 1;
nodes = (
"144 800 LINE",
"279 800 LINE SMOOTH",
"488 800 OFFCURVE",
"668 638 OFFCURVE",
"668 413 CURVE SMOOTH",
"668 187 OFFCURVE",
"489 25 OFFCURVE",
"279 25 CURVE SMOOTH",
"144 25 LINE"
);
}
);
width = 769;
}
);
rightKerningGroup = _A1;
unicode = 0044;
},
{
color = (153,249,255,255);
glyphname = E;
lastChange = "2019-08-01 18:50:29 +0000";
layers = (
{
hints = (
{
horizontal = 1;
place = "{0, 193}";
type = Stem;
},
{
horizontal = 1;
place = "{317, 193}";
type = Stem;
},
{
horizontal = 1;
place = "{632, 193}";
type = Stem;
},
{
place = "{49, 220}";
type = Stem;
}
);
layerId = "9d3a33de-08d4-49ee-85e3-2813f64ed4e4";
paths = (
{
closed = 1;
nodes = (
"49 825 LINE",
"49 0 LINE",
"537 0 LINE",
"537 193 LINE",
"269 193 LINE",
"269 317 LINE",
"525 317 LINE",
"525 510 LINE",
"269 510 LINE",
"269 632 LINE",
"537 632 LINE",
"537 825 LINE"
);
}
);
width = 580;
},
{
hints = (
{
horizontal = 1;
place = "{0, 25}";
type = Stem;
},
{
horizontal = 1;
place = "{401, 25}";
type = Stem;
},
{
horizontal = 1;
place = "{800, 25}";
type = Stem;
},
{
place = "{116, 28}";
type = Stem;
}
);
layerId = "0ac4930a-26e9-4cfa-a42f-96cf237e936b";
paths = (
{
closed = 1;
nodes = (
"116 825 LINE",
"116 0 LINE",
"508 0 LINE",
"508 25 LINE",
"144 25 LINE",
"144 401 LINE",
"496 401 LINE",
"496 426 LINE",
"144 426 LINE",
"144 800 LINE",
"508 800 LINE",
"508 825 LINE"
);
}
);
width = 582;
}
);
rightKerningGroup = _E;
unicode = 0045;
},
{
color = (153,249,255,255);
glyphname = F;
lastChange = "2019-08-01 18:50:29 +0000";
layers = (
{
hints = (
{
horizontal = 1;
place = "{317, 193}";
type = Stem;
},
{
horizontal = 1;
place = "{632, 193}";
type = Stem;
},
{
horizontal = 1;
place = "{0, -20}";
target = down;
type = TopGhost;
},
{
place = "{49, 220}";
type = Stem;
}
);
layerId = "9d3a33de-08d4-49ee-85e3-2813f64ed4e4";
paths = (
{
closed = 1;
nodes = (
"49 825 LINE",
"49 0 LINE",
"269 0 LINE",
"269 317 LINE",
"521 317 LINE",
"521 510 LINE",
"269 510 LINE",
"269 632 LINE",
"543 632 LINE",
"543 825 LINE"
);
}
);
width = 580;
},
{
hints = (
{
horizontal = 1;
place = "{401, 25}";
type = Stem;
},
{
horizontal = 1;
place = "{800, 25}";
type = Stem;
},
{
horizontal = 1;
place = "{0, -20}";
target = down;
type = TopGhost;
},
{
place = "{116, 28}";
type = Stem;
}
);
layerId = "0ac4930a-26e9-4cfa-a42f-96cf237e936b";
paths = (
{
closed = 1;
nodes = (
"116 825 LINE",
"116 0 LINE",
"144 0 LINE",
"144 401 LINE",
"485 401 LINE",
"485 426 LINE",
"144 426 LINE",
"144 800 LINE",
"508 800 LINE",
"508 825 LINE"
);
}
);
width = 586;
}
);
rightKerningGroup = _A1;
unicode = 0046;
},
{
color = (153,249,255,255);
glyphname = G;
lastChange = "2019-08-01 18:50:29 +0000";
layers = (
{
hints = (
{
horizontal = 1;
place = "{-16, 203}";
type = Stem;
},
{
horizontal = 1;
place = "{316, 160}";
type = Stem;
},
{
horizontal = 1;
place = "{641, 199}";
type = Stem;
},
{
place = "{13, 238}";
type = Stem;
},
{
place = "{572, 224}";
type = Stem;
}
);
layerId = "9d3a33de-08d4-49ee-85e3-2813f64ed4e4";
paths = (
{
closed = 1;
nodes = (
"13 412 LINE SMOOTH",
"13 176 OFFCURVE",
"193 -16 OFFCURVE",
"415 -16 CURVE SMOOTH",
"664 -16 OFFCURVE",
"796 175 OFFCURVE",
"796 316 CURVE SMOOTH",
"796 476 LINE",
"415 476 LINE",
"415 307 LINE",
"572 307 LINE",
"572 226 OFFCURVE",
"493 187 OFFCURVE",
"428 187 CURVE SMOOTH",
"330 187 OFFCURVE",
"251 289 OFFCURVE",
"251 412 CURVE SMOOTH",
"251 539 OFFCURVE",
"332 641 OFFCURVE",
"428 641 CURVE SMOOTH",
"506 641 OFFCURVE",
"572 607 OFFCURVE",
"598 551 CURVE",
"733 699 LINE",
"663 791 OFFCURVE",
"555 840 OFFCURVE",
"415 840 CURVE SMOOTH",
"183 840 OFFCURVE",
"13 649 OFFCURVE",
"13 412 CURVE SMOOTH"
);
}
);
width = 806;
},
{
hints = (
{
horizontal = 1;
place = "{-16, 25}";
type = Stem;
},
{
horizontal = 1;
place = "{361, 26}";
type = Stem;
},
{
horizontal = 1;
place = "{815, 25}";
type = Stem;
},
{
place = "{74, 29}";
type = Stem;
},
{
place = "{829, 29}";
type = Stem;
}
);
layerId = "0ac4930a-26e9-4cfa-a42f-96cf237e936b";
paths = (
{
closed = 1;
nodes = (
"74 411 LINE",
"74 175 OFFCURVE",
"254 -16 OFFCURVE",
"476 -16 CURVE SMOOTH",
"674 -16 OFFCURVE",
"858 105 OFFCURVE",
"858 342 CURVE SMOOTH",
"858 387 LINE",
"476 387 LINE",
"476 361 LINE",
"829 361 LINE",
"829 323 LINE SMOOTH",
"829 134 OFFCURVE",
"659 9 OFFCURVE",
"476 9 CURVE SMOOTH",
"270 9 OFFCURVE",
"103 189 OFFCURVE",
"103 411 CURVE SMOOTH",
"103 635 OFFCURVE",
"261 815 OFFCURVE",
"476 815 CURVE SMOOTH",
"610 815 OFFCURVE",
"710 760 OFFCURVE",
"776 679 CURVE",
"795 699 LINE",
"723 786 OFFCURVE",
"622 840 OFFCURVE",
"476 840 CURVE SMOOTH",
"244 840 OFFCURVE",
"74 649 OFFCURVE",
"74 411 CURVE SMOOTH"
);
}
);
width = 926;
}
);
rightKerningGroup = _A1;
unicode = 0047;
},
{
color = (153,249,255,255);
glyphname = H;
lastChange = "2019-08-01 18:50:29 +0000";
layers = (
{
hints = (
{
horizontal = 1;
place = "{317, 193}";
type = Stem;
},
{
horizontal = 1;
place = "{0, -20}";
target = down;
type = TopGhost;
},
{
horizontal = 1;
place = "{825, -20}";
target = down;
type = TopGhost;
},
{
place = "{49, 220}";
type = Stem;
},
{
place = "{481, 220}";
type = Stem;
}
);
layerId = "9d3a33de-08d4-49ee-85e3-2813f64ed4e4";
paths = (
{
closed = 1;
nodes = (
"49 825 LINE",
"49 0 LINE",
"269 0 LINE",
"269 317 LINE",
"481 317 LINE",
"481 0 LINE",
"701 0 LINE",
"701 825 LINE",
"481 825 LINE",
"481 510 LINE",
"269 510 LINE",
"269 825 LINE"
);
}
);
width = 750;
},
{
hints = (
{
horizontal = 1;
place = "{401, 25}";
type = Stem;
},
{
horizontal = 1;
place = "{825, -20}";
target = down;
type = TopGhost;
},
{
horizontal = 1;
place = "{0, -20}";
target = down;
type = TopGhost;
},
{
place = "{116, 28}";
type = Stem;
},
{
place = "{674, 28}";
type = Stem;
}
);
layerId = "0ac4930a-26e9-4cfa-a42f-96cf237e936b";
paths = (
{
closed = 1;
nodes = (
"116 825 LINE",
"116 0 LINE",
"144 0 LINE",
"144 401 LINE",
"674 401 LINE",
"674 0 LINE",
"702 0 LINE",
"702 825 LINE",
"674 825 LINE",
"674 426 LINE",
"144 426 LINE",
"144 825 LINE"
);
}
);
width = 818;
}
);
rightKerningGroup = _A1;
unicode = 0048;
},
{
color = (153,249,255,255);
glyphname = I;
lastChange = "2019-08-01 18:50:29 +0000";
layers = (
{
hints = (
{
horizontal = 1;
place = "{825, -20}";
target = down;
type = TopGhost;
},
{
horizontal = 1;
place = "{0, -20}";
target = down;
type = TopGhost;
},
{
place = "{49, 220}";
type = Stem;
}
);
layerId = "9d3a33de-08d4-49ee-85e3-2813f64ed4e4";
paths = (
{
closed = 1;
nodes = (
"49 825 LINE",
"49 0 LINE",
"269 0 LINE",
"269 825 LINE"
);
}
);
width = 318;
},
{
hints = (
{
horizontal = 1;
place = "{825, -20}";
target = down;
type = TopGhost;
},
{
horizontal = 1;
place = "{0, -20}";
target = down;
type = TopGhost;
},
{
place = "{116, 28}";
type = Stem;
}
);
layerId = "0ac4930a-26e9-4cfa-a42f-96cf237e936b";
paths = (
{
closed = 1;
nodes = (
"116 825 LINE",
"116 0 LINE",
"144 0 LINE",
"144 825 LINE"
);
}
);
width = 260;
}
);
leftKerningGroup = _I;
rightKerningGroup = _A1;
unicode = 0049;
},
{
color = (153,249,255,255);
glyphname = J;
lastChange = "2019-08-01 18:50:29 +0000";
layers = (
{
hints = (
{
horizontal = 1;
place = "{825, -20}";
target = down;
type = TopGhost;
},
{
horizontal = 1;
place = "{-16, 211}";
type = Stem;
},
{
place = "{196, 220}";
type = Stem;
}
);
layerId = "9d3a33de-08d4-49ee-85e3-2813f64ed4e4";
paths = (
{
closed = 1;
nodes = (
"196 825 LINE",
"196 287 LINE SMOOTH",
"196 219 OFFCURVE",
"163 195 OFFCURVE",
"128 195 CURVE SMOOTH",
"91 195 OFFCURVE",
"36 245 OFFCURVE",
"36 245 CURVE",
"-34 63 LINE",
"-34 63 OFFCURVE",
"41 -16 OFFCURVE",
"159 -16 CURVE SMOOTH",
"324 -16 OFFCURVE",
"416 70 OFFCURVE",
"416 232 CURVE SMOOTH",
"416 825 LINE"
);
}
);
width = 454;
},
{
hints = (
{
horizontal = 1;
place = "{-16, 26}";
type = Stem;
},
{
horizontal = 1;
place = "{825, -20}";
target = down;
type = TopGhost;
},
{
place = "{405, 28}";
type = Stem;
}
);
layerId = "0ac4930a-26e9-4cfa-a42f-96cf237e936b";
paths = (
{
closed = 1;
nodes = (
"405 825 LINE",
"405 244 LINE SMOOTH",
"405 86 OFFCURVE",
"325 10 OFFCURVE",
"175 10 CURVE SMOOTH",
"72 10 OFFCURVE",
"-6 95 OFFCURVE",
"-6 95 CURVE SMOOTH",
"-18 63 LINE SMOOTH",
"-18 63 OFFCURVE",
"57 -16 OFFCURVE",
"175 -16 CURVE SMOOTH",
"341 -16 OFFCURVE",
"433 70 OFFCURVE",
"433 232 CURVE SMOOTH",
"433 825 LINE"
);
}
);
width = 549;
}
);
rightKerningGroup = _A1;
unicode = 004A;
},
{
color = (153,249,255,255);
glyphname = K;
lastChange = "2019-08-01 18:50:29 +0000";
layers = (
{
hints = (
{
horizontal = 1;
place = "{0, -20}";
target = down;
type = TopGhost;
},
{
horizontal = 1;
place = "{825, -20}";
target = down;
type = TopGhost;
},
{
place = "{49, 220}";
type = Stem;
}
);
layerId = "9d3a33de-08d4-49ee-85e3-2813f64ed4e4";
paths = (
{
closed = 1;
nodes = (
"49 825 LINE",
"49 0 LINE",
"269 0 LINE",
"269 331 LINE",
"545 0 LINE",
"848 0 LINE",
"473 436 LINE",
"793 825 LINE",
"526 825 LINE",
"269 504 LINE",
"269 825 LINE"
);
}
);
width = 819;
},
{
hints = (
{
horizontal = 1;
place = "{0, -20}";
target = down;
type = TopGhost;
},
{
horizontal = 1;
place = "{825, -20}";
target = down;
type = TopGhost;
},
{
place = "{116, 28}";
type = Stem;
}
);
layerId = "0ac4930a-26e9-4cfa-a42f-96cf237e936b";
paths = (
{
closed = 1;
nodes = (
"116 825 LINE",
"116 0 LINE",
"144 0 LINE",
"144 374 LINE",
"176 405 LINE",
"587 0 LINE",
"626 0 LINE",
"195 425 LINE",
"591 825 LINE",
"557 825 LINE",
"144 408 LINE",
"144 825 LINE"
);
}
);
width = 626;
}
);
rightKerningGroup = _A1;
unicode = 004B;
},
{
color = (153,249,255,255);
glyphname = L;
lastChange = "2019-08-01 18:50:29 +0000";
layers = (
{
hints = (
{
horizontal = 1;
place = "{0, 193}";
type = Stem;
},
{
horizontal = 1;
place = "{825, -20}";
target = down;
type = TopGhost;
},
{
place = "{49, 220}";
type = Stem;
}
);
layerId = "9d3a33de-08d4-49ee-85e3-2813f64ed4e4";
paths = (
{
closed = 1;
nodes = (
"49 825 LINE",
"49 0 LINE",
"535 0 LINE",
"535 193 LINE",
"269 193 LINE",
"269 825 LINE"
);
}
);
width = 568;
},
{
hints = (
{
horizontal = 1;
place = "{0, 25}";
type = Stem;
},
{
horizontal = 1;
place = "{825, -20}";
target = down;
type = TopGhost;
},
{
place = "{116, 28}";
type = Stem;
}
);
layerId = "0ac4930a-26e9-4cfa-a42f-96cf237e936b";
paths = (
{
closed = 1;
nodes = (
"116 825 LINE",
"116 0 LINE",
"516 0 LINE",
"516 25 LINE",
"144 25 LINE",
"144 825 LINE"
);
}
);
width = 549;
}
);
rightKerningGroup = _L;
unicode = 004C;
},
{
color = (153,249,255,255);
glyphname = M;
lastChange = "2019-08-01 18:50:29 +0000";
layers = (
{
hints = (
{
horizontal = 1;
place = "{0, -20}";
target = down;
type = TopGhost;
},
{
horizontal = 1;
place = "{825, -20}";
target = down;
type = TopGhost;
},
{
place = "{8, 930}";
type = Stem;
}
);
layerId = "9d3a33de-08d4-49ee-85e3-2813f64ed4e4";
paths = (
{
closed = 1;
nodes = (
"73 825 LINE",
"8 0 LINE",
"228 0 LINE",
"252 433 LINE",
"408 0 LINE",
"538 0 LINE",
"694 433 LINE",
"718 0 LINE",
"938 0 LINE",
"873 825 LINE",
"639 825 LINE",
"473 397 LINE",
"307 825 LINE"
);
}
);
width = 946;
},
{
hints = (
{
horizontal = 1;
place = "{0, -20}";
target = down;
type = TopGhost;
},
{
horizontal = 1;
place = "{825, -20}";
target = down;
type = TopGhost;
},
{
place = "{56, 838}";
type = Stem;
}
);
layerId = "0ac4930a-26e9-4cfa-a42f-96cf237e936b";
paths = (
{
closed = 1;
nodes = (
"177 825 LINE",
"56 0 LINE",
"84 0 LINE",
"198 767 LINE",
"460 67 LINE",
"490 67 LINE",
"752 767 LINE",
"866 0 LINE",
"894 0 LINE",
"773 825 LINE",
"743 825 LINE",
"475 107 LINE",
"207 825 LINE"
);
}
);
width = 950;
}
);
rightKerningGroup = _A1;
unicode = 004D;
},
{
color = (153,249,255,255);
glyphname = M.1;
lastChange = "2019-08-01 18:50:29 +0000";
layers = (
{
hints = (
{
horizontal = 1;
place = "{825, -20}";
target = down;
type = TopGhost;
},
{
horizontal = 1;
place = "{0, -20}";
target = down;
type = TopGhost;
},
{
place = "{49, 220}";
type = Stem;
},
{
place = "{701, 220}";
type = Stem;
}
);
layerId = "9d3a33de-08d4-49ee-85e3-2813f64ed4e4";
paths = (
{
closed = 1;
nodes = (
"49 825 LINE",
"49 0 LINE",
"269 0 LINE",
"269 365 LINE",
"421 0 LINE",
"549 0 LINE",
"701 365 LINE",
"701 0 LINE",
"921 0 LINE",
"921 825 LINE",
"669 825 LINE",
"485 397 LINE",
"301 825 LINE"
);
}
);
width = 970;
},
{
hints = (
{
horizontal = 1;
place = "{825, -20}";
target = down;
type = TopGhost;
},
{
horizontal = 1;
place = "{0, -20}";
target = down;
type = TopGhost;
},
{
place = "{116, 28}";
type = Stem;
},
{
place = "{744, 28}";
type = Stem;
}
);
layerId = "0ac4930a-26e9-4cfa-a42f-96cf237e936b";
paths = (
{
closed = 1;
nodes = (
"116 825 LINE",
"116 0 LINE",
"144 0 LINE",
"144 750 LINE",
"429 67 LINE",
"459 67 LINE",
"744 750 LINE",
"744 0 LINE",
"772 0 LINE",
"772 825 LINE",
"742 825 LINE",
"444 107 LINE",
"146 825 LINE"
);
}
);
width = 888;
}
);
},
{
color = (153,249,255,255);
glyphname = N;
lastChange = "2019-08-01 18:50:29 +0000";
layers = (
{
hints = (
{
horizontal = 1;
place = "{0, -20}";
target = down;
type = TopGhost;
},
{
horizontal = 1;
place = "{825, -20}";
target = down;
type = TopGhost;
},
{
place = "{49, 220}";
type = Stem;
},
{
place = "{565, 220}";
type = Stem;
}
);
layerId = "9d3a33de-08d4-49ee-85e3-2813f64ed4e4";
paths = (
{
closed = 1;
nodes = (
"49 825 LINE",
"49 0 LINE",
"269 0 LINE",
"269 460 LINE",
"565 0 LINE",
"785 0 LINE",
"785 825 LINE",
"565 825 LINE",
"565 365 LINE",
"269 825 LINE"
);
}
);
width = 834;
},
{
hints = (
{
horizontal = 1;
place = "{825, -20}";
target = down;
type = TopGhost;
},
{
horizontal = 1;
place = "{0, -20}";
target = down;
type = TopGhost;
},
{
place = "{116, 28}";
type = Stem;
},
{
place = "{636, 28}";
type = Stem;
}
);
layerId = "0ac4930a-26e9-4cfa-a42f-96cf237e936b";
paths = (
{
closed = 1;
nodes = (
"116 825 LINE",
"116 0 LINE",
"144 0 LINE",
"144 773 LINE",
"636 0 LINE",
"664 0 LINE",
"664 825 LINE",
"636 825 LINE",
"636 51 LINE",
"144 825 LINE"
);
}
);
width = 780;
}
);
rightKerningGroup = _A1;
unicode = 004E;
},
{
color = (153,249,255,255);
glyphname = O;
lastChange = "2019-08-01 18:50:29 +0000";
layers = (
{
associatedMasterId = "9d3a33de-08d4-49ee-85e3-2813f64ed4e4";
layerId = "cf2a3b8c-bb53-4d9e-827a-d6f64e11d495";
name = public.background;
width = 0;
},
{
hints = (
{
horizontal = 1;
place = "{-16, 212}";
type = Stem;
},
{
horizontal = 1;
place = "{628, 212}";
type = Stem;
},
{
place = "{13, 237}";
type = Stem;
},
{
place = "{608, 237}";
type = Stem;
}
);
layerId = "9d3a33de-08d4-49ee-85e3-2813f64ed4e4";
paths = (
{
closed = 1;
nodes = (
"13 412 LINE SMOOTH",
"13 171 OFFCURVE",
"202 -16 OFFCURVE",
"429 -16 CURVE SMOOTH",
"656 -16 OFFCURVE",
"845 171 OFFCURVE",
"845 412 CURVE SMOOTH",
"845 653 OFFCURVE",
"656 840 OFFCURVE",
"429 840 CURVE SMOOTH",
"202 840 OFFCURVE",
"13 653 OFFCURVE",
"13 412 CURVE SMOOTH"
);
},
{
closed = 1;
nodes = (
"250 412 LINE SMOOTH",
"250 514 OFFCURVE",
"297 628 OFFCURVE",
"429 628 CURVE SMOOTH",
"561 628 OFFCURVE",
"608 514 OFFCURVE",
"608 412 CURVE SMOOTH",
"608 310 OFFCURVE",
"561 196 OFFCURVE",
"429 196 CURVE SMOOTH",
"297 196 OFFCURVE",
"250 310 OFFCURVE",
"250 412 CURVE SMOOTH"
);
}
);
width = 858;
},
{
associatedMasterId = "0ac4930a-26e9-4cfa-a42f-96cf237e936b";
layerId = "4A6FBE7D-34BB-4AB2-8DEE-42AB1427F406";
name = public.background;
width = 0;
},
{
hints = (
{
horizontal = 1;
place = "{-16, 27}";
type = Stem;
},
{
horizontal = 1;
place = "{813, 27}";
type = Stem;
},
{
place = "{74, 30}";
type = Stem;
},
{
place = "{876, 30}";
type = Stem;
}
);
layerId = "0ac4930a-26e9-4cfa-a42f-96cf237e936b";
paths = (
{
closed = 1;
nodes = (
"104 412 LINE SMOOTH",
"104 638 OFFCURVE",
"280 813 OFFCURVE",
"490 813 CURVE SMOOTH",
"700 813 OFFCURVE",
"876 638 OFFCURVE",
"876 412 CURVE SMOOTH",
"876 186 OFFCURVE",
"700 11 OFFCURVE",
"490 11 CURVE SMOOTH",
"280 11 OFFCURVE",
"104 186 OFFCURVE",
"104 412 CURVE SMOOTH"
);
},
{
closed = 1;
nodes = (
"74 412 LINE SMOOTH",
"74 170 OFFCURVE",
"263 -16 OFFCURVE",
"490 -16 CURVE SMOOTH",
"717 -16 OFFCURVE",
"906 170 OFFCURVE",
"906 412 CURVE SMOOTH",
"906 654 OFFCURVE",
"717 840 OFFCURVE",
"490 840 CURVE SMOOTH",
"263 840 OFFCURVE",
"74 654 OFFCURVE",
"74 412 CURVE SMOOTH"
);
}
);
width = 980;
}
);
leftKerningGroup = _O;
rightKerningGroup = _O;
unicode = 004F;
},
{
color = (153,249,255,255);
glyphname = P;
lastChange = "2019-08-01 18:50:29 +0000";
layers = (
{
hints = (
{
horizontal = 1;
place = "{294, 174}";
type = Stem;
},
{
horizontal = 1;
place = "{650, 175}";
type = Stem;
},
{
horizontal = 1;
place = "{0, -20}";
target = down;
type = TopGhost;
},
{
place = "{49, 220}";
type = Stem;
},
{
place = "{430, 232}";
type = Stem;
}
);
layerId = "9d3a33de-08d4-49ee-85e3-2813f64ed4e4";
paths = (
{
closed = 1;
nodes = (
"49 825 LINE",
"49 0 LINE",
"269 0 LINE",
"269 294 LINE",
"375 294 LINE SMOOTH",
"535 294 OFFCURVE",
"662 388 OFFCURVE",
"662 565 CURVE SMOOTH",
"662 743 OFFCURVE",
"535 825 OFFCURVE",
"375 825 CURVE SMOOTH"
);
},
{
closed = 1;
nodes = (
"269 650 LINE",
"303 650 LINE SMOOTH",
"362 650 OFFCURVE",
"430 636 OFFCURVE",
"430 558 CURVE SMOOTH",
"430 481 OFFCURVE",
"362 468 OFFCURVE",
"303 468 CURVE SMOOTH",
"269 468 LINE"
);
}
);
width = 675;
},
{
hints = (
{
horizontal = 1;
place = "{368, 27}";
type = Stem;
},
{
horizontal = 1;
place = "{801, 24}";
type = Stem;
},
{
horizontal = 1;
place = "{0, -20}";
target = down;
type = TopGhost;
},
{
place = "{116, 28}";
type = Stem;
},
{
place = "{522, 26}";
type = Stem;
}
);
layerId = "0ac4930a-26e9-4cfa-a42f-96cf237e936b";
paths = (
{
closed = 1;
nodes = (
"116 825 LINE",
"116 0 LINE",
"144 0 LINE",
"144 368 LINE",
"293 368 LINE SMOOTH",
"455 368 OFFCURVE",
"548 467 OFFCURVE",
"548 601 CURVE SMOOTH",
"548 736 OFFCURVE",
"455 825 OFFCURVE",
"293 825 CURVE SMOOTH"
);
},
{
closed = 1;
nodes = (
"144 801 LINE",
"293 801 LINE SMOOTH",
"438 801 OFFCURVE",
"522 721 OFFCURVE",
"522 601 CURVE SMOOTH",
"522 482 OFFCURVE",
"438 395 OFFCURVE",
"293 395 CURVE SMOOTH",
"144 395 LINE"
);
}
);
width = 622;
}
);
rightKerningGroup = _A1;
unicode = 0050;
},
{
color = (153,249,255,255);
glyphname = Q;
lastChange = "2019-08-01 18:50:29 +0000";
layers = (
{
associatedMasterId = "9d3a33de-08d4-49ee-85e3-2813f64ed4e4";
layerId = "cf2a3b8c-bb53-4d9e-827a-d6f64e11d495";
name = public.background;
width = 0;
},
{
hints = (
{
horizontal = 1;
place = "{-16, 212}";
type = Stem;
},
{
horizontal = 1;
place = "{628, 212}";
type = Stem;
},
{
horizontal = 1;
place = "{-27, 21}";
target = up;
type = BottomGhost;
},
{
place = "{13, 237}";
type = Stem;
},
{
place = "{608, 237}";
type = Stem;
}
);
layerId = "9d3a33de-08d4-49ee-85e3-2813f64ed4e4";
paths = (
{
closed = 1;
nodes = (
"13 171 OFFCURVE",
"202 -16 OFFCURVE",
"429 -16 CURVE SMOOTH",
"509 -16 OFFCURVE",
"585 7 OFFCURVE",
"649 48 CURVE",
"698 18 OFFCURVE",
"748 -7 OFFCURVE",
"800 -27 CURVE",
"897 169 LINE",
"862 178 OFFCURVE",
"827 189 OFFCURVE",
"792 202 CURVE",
"826 264 OFFCURVE",
"845 335 OFFCURVE",
"845 412 CURVE SMOOTH",
"845 653 OFFCURVE",
"656 840 OFFCURVE",
"429 840 CURVE SMOOTH",
"202 840 OFFCURVE",
"13 653 OFFCURVE",
"13 412 CURVE SMOOTH"
);
},
{
closed = 1;
nodes = (
"250 514 OFFCURVE",
"297 628 OFFCURVE",
"429 628 CURVE SMOOTH",
"561 628 OFFCURVE",
"608 514 OFFCURVE",
"608 412 CURVE SMOOTH",
"608 377 OFFCURVE",
"602 342 OFFCURVE",
"590 310 CURVE",
"542 343 OFFCURVE",
"498 382 OFFCURVE",
"459 424 CURVE",
"366 307 LINE",
"391 271 OFFCURVE",
"422 234 OFFCURVE",
"459 198 CURVE",
"459 198 OFFCURVE",
"446 196 OFFCURVE",
"429 196 CURVE SMOOTH",
"297 196 OFFCURVE",
"250 310 OFFCURVE",
"250 412 CURVE SMOOTH"
);
}
);
width = 0;
},
{
hints = (
{
horizontal = 1;
place = "{-16, 27}";
type = Stem;
},
{
horizontal = 1;
place = "{813, 27}";
type = Stem;
},
{
place = "{74, 30}";
type = Stem;
},
{
place = "{875, 31}";
type = Stem;
}
);
layerId = "0ac4930a-26e9-4cfa-a42f-96cf237e936b";
paths = (
{
closed = 1;
nodes = (
"74 171 OFFCURVE",
"246 -16 OFFCURVE",
"490 -16 CURVE SMOOTH",
"584 -16 OFFCURVE",
"669 13 OFFCURVE",
"737 64 CURVE",
"795 26 OFFCURVE",
"853 -5 OFFCURVE",
"908 -27 CURVE",
"921 -1 LINE",
"868 18 OFFCURVE",
"813 46 OFFCURVE",
"758 80 CURVE",
"849 158 OFFCURVE",
"906 277 OFFCURVE",
"906 412 CURVE SMOOTH",
"906 654 OFFCURVE",
"719 840 OFFCURVE",
"490 840 CURVE SMOOTH",
"263 840 OFFCURVE",
"74 654 OFFCURVE",
"74 412 CURVE SMOOTH"
);
},
{
closed = 1;
nodes = (
"104 638 OFFCURVE",
"280 813 OFFCURVE",
"490 813 CURVE SMOOTH",
"703 813 OFFCURVE",
"875 638 OFFCURVE",
"875 412 CURVE SMOOTH",
"875 283 OFFCURVE",
"821 170 OFFCURVE",
"733 97 CURVE",
"671 138 OFFCURVE",
"612 186 OFFCURVE",
"559 239 CURVE",
"545 225 LINE",
"595 172 OFFCURVE",
"652 123 OFFCURVE",
"712 81 CURVE",
"650 37 OFFCURVE",
"574 11 OFFCURVE",
"490 11 CURVE SMOOTH",
"264 11 OFFCURVE",
"104 186 OFFCURVE",
"104 412 CURVE SMOOTH"
);
}
);
width = 980;
}
);
rightKerningGroup = _A1;
unicode = 0051;
},
{
color = (153,249,255,255);
glyphname = Q.1;
lastChange = "2019-08-01 18:50:29 +0000";
layers = (
{
associatedMasterId = "9d3a33de-08d4-49ee-85e3-2813f64ed4e4";
layerId = "cf2a3b8c-bb53-4d9e-827a-d6f64e11d495";
name = public.background;
width = 0;
},
{
hints = (
{
horizontal = 1;
place = "{-236, 216}";
type = Stem;
},
{
horizontal = 1;
place = "{-149, 139}";
type = Stem;
},
{
horizontal = 1;
place = "{628, 212}";
type = Stem;
},
{
place = "{13, 237}";
type = Stem;
},
{
place = "{608, 237}";
type = Stem;
}
);
layerId = "9d3a33de-08d4-49ee-85e3-2813f64ed4e4";
paths = (
{
closed = 1;
nodes = (
"13 412 LINE SMOOTH",
"13 195 OFFCURVE",
"165 22 OFFCURVE",
"361 -10 CURVE",
"283 -7 OFFCURVE",
"213 -105 OFFCURVE",
"213 -105 CURVE",
"265 -184 LINE",
"265 -184 OFFCURVE",
"304 -149 OFFCURVE",
"373 -149 CURVE SMOOTH",
"496 -149 OFFCURVE",
"554 -236 OFFCURVE",
"680 -236 CURVE SMOOTH",
"818 -236 OFFCURVE",
"874 -114 OFFCURVE",
"874 -114 CURVE",
"805 34 LINE",
"805 34 OFFCURVE",
"766 -20 OFFCURVE",
"681 -20 CURVE SMOOTH",
"638 -20 OFFCURVE",
"584 -4 OFFCURVE",
"539 0 CURVE",
"714 48 OFFCURVE",
"845 211 OFFCURVE",
"845 412 CURVE SMOOTH",
"845 653 OFFCURVE",
"656 840 OFFCURVE",
"429 840 CURVE SMOOTH",
"202 840 OFFCURVE",
"13 653 OFFCURVE",
"13 412 CURVE SMOOTH"
);
},
{
closed = 1;
nodes = (
"250 412 LINE SMOOTH",
"250 514 OFFCURVE",
"297 628 OFFCURVE",
"429 628 CURVE SMOOTH",
"561 628 OFFCURVE",
"608 514 OFFCURVE",
"608 412 CURVE SMOOTH",
"608 310 OFFCURVE",
"561 196 OFFCURVE",
"429 196 CURVE SMOOTH",
"297 196 OFFCURVE",
"250 310 OFFCURVE",
"250 412 CURVE SMOOTH"
);
}
);
width = 858;
},
{
associatedMasterId = "0ac4930a-26e9-4cfa-a42f-96cf237e936b";
layerId = "FDAB794C-6955-4018-A525-4D19168BF14C";
name = public.background;
width = 0;
},
{
hints = (
{
horizontal = 1;
place = "{-48, 27}";
type = Stem;
},
{
horizontal = 1;
place = "{-16, 17}";
type = Stem;
},
{
horizontal = 1;
place = "{813, 27}";
type = Stem;
},
{
horizontal = 1;
place = "{-116, -20}";
target = down;
type = TopGhost;
},
{
place = "{74, 30}";
type = Stem;
},
{
place = "{875, 31}";
type = Stem;
}
);
layerId = "0ac4930a-26e9-4cfa-a42f-96cf237e936b";
paths = (
{
closed = 1;
nodes = (
"74 413 LINE",
"74 203 OFFCURVE",
"205 34 OFFCURVE",
"400 -7 CURVE",
"314 -33 OFFCURVE",
"268 -106 OFFCURVE",
"268 -106 CURVE",
"275 -116 LINE",
"275 -116 OFFCURVE",
"344 -16 OFFCURVE",
"468 -16 CURVE SMOOTH",
"615 -16 OFFCURVE",
"630 -48 OFFCURVE",
"737 -48 CURVE SMOOTH",
"836 -48 OFFCURVE",
"871 14 OFFCURVE",
"871 14 CURVE",
"862 33 LINE",
"862 33 OFFCURVE",
"823 -21 OFFCURVE",
"738 -21 CURVE SMOOTH",
"692 -21 OFFCURVE",
"657 -8 OFFCURVE",
"610 1 CURVE",
"785 51 OFFCURVE",
"906 213 OFFCURVE",
"906 413 CURVE SMOOTH",
"906 654 OFFCURVE",
"720 840 OFFCURVE",
"490 840 CURVE SMOOTH",
"263 840 OFFCURVE",
"74 654 OFFCURVE",
"74 413 CURVE SMOOTH"
);
},
{
closed = 1;
nodes = (
"104 413 LINE",
"104 638 OFFCURVE",
"280 813 OFFCURVE",
"490 813 CURVE SMOOTH",
"703 813 OFFCURVE",
"875 638 OFFCURVE",
"875 413 CURVE SMOOTH",
"875 187 OFFCURVE",
"710 11 OFFCURVE",
"490 11 CURVE SMOOTH",
"264 11 OFFCURVE",
"104 187 OFFCURVE",
"104 413 CURVE SMOOTH"
);
}
);
width = 981;
}
);
rightKerningGroup = _A1;
},
{
color = (153,249,255,255);
glyphname = R;
lastChange = "2019-08-01 18:50:29 +0000";
layers = (
{
hints = (
{
horizontal = 1;
place = "{650, 175}";
type = Stem;
},
{
horizontal = 1;
place = "{0, -20}";
target = down;
type = TopGhost;
},
{
horizontal = 1;
place = "{286, 182}";
type = Stem;
},
{
place = "{49, 220}";
type = Stem;
},
{
place = "{430, 232}";
type = Stem;
}
);
layerId = "9d3a33de-08d4-49ee-85e3-2813f64ed4e4";
paths = (
{
closed = 1;
nodes = (
"49 825 LINE",
"49 0 LINE",
"269 0 LINE",
"269 286 LINE",
"491 0 LINE",
"770 0 LINE",
"503 313 LINE",
"597 353 OFFCURVE",
"662 436 OFFCURVE",
"662 565 CURVE SMOOTH",
"662 743 OFFCURVE",
"535 825 OFFCURVE",
"375 825 CURVE SMOOTH"
);
},
{
closed = 1;
nodes = (
"269 650 LINE",
"303 650 LINE SMOOTH",
"362 650 OFFCURVE",
"430 636 OFFCURVE",
"430 558 CURVE SMOOTH",
"430 481 OFFCURVE",
"362 468 OFFCURVE",
"303 468 CURVE SMOOTH",
"269 468 LINE"
);
}
);
width = 749;
},
{
associatedMasterId = "0ac4930a-26e9-4cfa-a42f-96cf237e936b";
layerId = "454B1066-9EE6-460C-8752-99282EC1D07B";
name = public.background;
width = 0;
},
{
hints = (
{
horizontal = 1;
place = "{368, 27}";
type = Stem;
},
{
horizontal = 1;
place = "{801, 24}";
type = Stem;
},
{
horizontal = 1;
place = "{0, -20}";
target = down;
type = TopGhost;
},
{
place = "{116, 28}";
type = Stem;
},
{
place = "{522, 26}";
type = Stem;
}
);
layerId = "0ac4930a-26e9-4cfa-a42f-96cf237e936b";
paths = (
{
closed = 1;
nodes = (
"116 825 LINE",
"116 0 LINE",
"144 0 LINE",
"144 368 LINE",
"269 368 LINE",
"546 0 LINE",
"582 0 LINE",
"305 368 LINE",
"459 373 OFFCURVE",
"548 470 OFFCURVE",
"548 601 CURVE SMOOTH",
"548 736 OFFCURVE",
"455 825 OFFCURVE",
"293 825 CURVE"
);
},
{
closed = 1;
nodes = (
"144 801 LINE",
"293 801 LINE",
"438 801 OFFCURVE",
"522 721 OFFCURVE",
"522 601 CURVE SMOOTH",
"522 482 OFFCURVE",
"438 395 OFFCURVE",
"293 395 CURVE",
"144 395 LINE"
);
}
);
width = 620;
}
);
rightKerningGroup = _R;
unicode = 0052;
},
{
color = (153,249,255,255);
glyphname = R.1;
lastChange = "2019-08-01 18:50:29 +0000";
layers = (
{
hints = (
{
horizontal = 1;
place = "{-15, 197}";
type = Stem;
},
{
horizontal = 1;
place = "{650, 175}";
type = Stem;
},
{
place = "{49, 220}";
type = Stem;
},
{
place = "{430, 232}";
type = Stem;
}
);
layerId = "9d3a33de-08d4-49ee-85e3-2813f64ed4e4";
paths = (
{
closed = 1;
nodes = (
"49 825 LINE",
"49 0 LINE",
"269 0 LINE",
"269 294 LINE",
"262 294 LINE",
"426 84 LINE SMOOTH",
"426 84 OFFCURVE",
"492 -15 OFFCURVE",
"610 -15 CURVE SMOOTH",
"711 -15 OFFCURVE",
"763 39 OFFCURVE",
"763 39 CURVE",
"700 197 LINE",
"701 199 OFFCURVE",
"682 182 OFFCURVE",
"653 182 CURVE SMOOTH",
"635 182 OFFCURVE",
"617 185 OFFCURVE",
"583 223 CURVE SMOOTH",
"503 313 LINE",
"597 353 OFFCURVE",
"662 436 OFFCURVE",
"662 565 CURVE SMOOTH",
"662 743 OFFCURVE",
"535 825 OFFCURVE",
"375 825 CURVE SMOOTH"
);
},
{
closed = 1;
nodes = (
"269 650 LINE",
"303 650 LINE SMOOTH",
"362 650 OFFCURVE",
"430 636 OFFCURVE",
"430 558 CURVE SMOOTH",
"430 481 OFFCURVE",
"362 468 OFFCURVE",
"303 468 CURVE SMOOTH",
"269 468 LINE"
);
}
);
width = 742;
},
{
associatedMasterId = "0ac4930a-26e9-4cfa-a42f-96cf237e936b";
layerId = "B0E0D760-0CB5-439B-A50B-AD498CECD727";
name = public.background;
width = 0;
},
{
hints = (
{
horizontal = 1;
place = "{-15, 28}";
type = Stem;
},
{
horizontal = 1;
place = "{368, 27}";
type = Stem;
},
{
horizontal = 1;
place = "{801, 24}";
type = Stem;
},
{
horizontal = 1;
place = "{0, -20}";
target = down;
type = TopGhost;
},
{
place = "{116, 28}";
type = Stem;
},
{
place = "{522, 26}";
type = Stem;
}
);
layerId = "0ac4930a-26e9-4cfa-a42f-96cf237e936b";
paths = (
{
closed = 1;
nodes = (
"116 825 LINE",
"116 0 LINE",
"144 0 LINE",
"144 368 LINE",
"269 368 LINE",
"533 18 LINE SMOOTH",
"533 18 OFFCURVE",
"554 -15 OFFCURVE",
"594 -15 CURVE SMOOTH",
"628 -15 OFFCURVE",
"645 3 OFFCURVE",
"645 3 CURVE",
"636 27 LINE",
"627 21 OFFCURVE",
"611 13 OFFCURVE",
"594 13 CURVE SMOOTH",
"571 13 OFFCURVE",
"551 42 OFFCURVE",
"551 42 CURVE SMOOTH",
"305 368 LINE",
"459 373 OFFCURVE",
"548 470 OFFCURVE",
"548 601 CURVE SMOOTH",
"548 736 OFFCURVE",
"455 825 OFFCURVE",
"293 825 CURVE"
);
},
{
closed = 1;
nodes = (
"144 801 LINE",
"293 801 LINE",
"438 801 OFFCURVE",
"522 721 OFFCURVE",
"522 601 CURVE SMOOTH",
"522 482 OFFCURVE",
"438 395 OFFCURVE",
"293 395 CURVE",
"144 395 LINE"
);
}
);
width = 683;
}
);
rightKerningGroup = _R;
},
{
color = (153,249,255,255);
glyphname = S;
lastChange = "2019-08-01 18:50:29 +0000";
layers = (
{
associatedMasterId = "9d3a33de-08d4-49ee-85e3-2813f64ed4e4";
layerId = "cf2a3b8c-bb53-4d9e-827a-d6f64e11d495";
name = public.background;
width = 0;
},
{
hints = (
{
horizontal = 1;
place = "{640, 200}";
type = Stem;
},
{
horizontal = 1;
place = "{-16, 204}";
type = Stem;
},
{
place = "{91, 216}";
type = Stem;
},
{
place = "{416, 242}";
type = Stem;
}
);
layerId = "9d3a33de-08d4-49ee-85e3-2813f64ed4e4";
paths = (
{
closed = 1;
nodes = (
"91 579 LINE SMOOTH",
"91 495 OFFCURVE",
"151 416 OFFCURVE",
"246 373 CURVE SMOOTH",
"352 325 OFFCURVE",
"416 296 OFFCURVE",
"416 246 CURVE SMOOTH",
"416 207 OFFCURVE",
"391 188 OFFCURVE",
"338 188 CURVE SMOOTH",
"233 188 OFFCURVE",
"123 266 OFFCURVE",
"123 266 CURVE",
"14 79 LINE",
"14 79 OFFCURVE",
"125 -16 OFFCURVE",
"334 -16 CURVE SMOOTH",
"498 -16 OFFCURVE",
"658 49 OFFCURVE",
"658 259 CURVE SMOOTH",
"658 408 OFFCURVE",
"507 480 OFFCURVE",
"400 520 CURVE SMOOTH",
"320 550 OFFCURVE",
"307 570 OFFCURVE",
"307 587 CURVE SMOOTH",
"307 623 OFFCURVE",
"335 640 OFFCURVE",
"387 640 CURVE SMOOTH",
"471 640 OFFCURVE",
"552 592 OFFCURVE",
"552 592 CURVE",
"639 769 LINE",
"639 769 OFFCURVE",
"530 840 OFFCURVE",
"371 840 CURVE SMOOTH",
"235 840 OFFCURVE",
"91 739 OFFCURVE",
"91 579 CURVE SMOOTH"
);
}
);
width = 678;
},
{
hints = (
{
horizontal = 1;
place = "{-16, 26}";
type = Stem;
},
{
horizontal = 1;
place = "{814, 26}";
type = Stem;
},
{
place = "{116, 25}";
type = Stem;
},
{
place = "{548, 26}";
type = Stem;
}
);
layerId = "0ac4930a-26e9-4cfa-a42f-96cf237e936b";
paths = (
{
closed = 1;
nodes = (
"116 629 LINE",
"116 533 OFFCURVE",
"176 468 OFFCURVE",
"315 425 CURVE SMOOTH",
"475 376 OFFCURVE",
"548 313 OFFCURVE",
"548 205 CURVE SMOOTH",
"548 78 OFFCURVE",
"450 10 OFFCURVE",
"328 10 CURVE SMOOTH",
"167 10 OFFCURVE",
"100 142 OFFCURVE",
"89 175 CURVE",
"67 163 LINE",
"75 133 OFFCURVE",
"150 -16 OFFCURVE",
"328 -16 CURVE SMOOTH",
"472 -16 OFFCURVE",
"574 71 OFFCURVE",
"574 205 CURVE SMOOTH",
"574 326 OFFCURVE",
"495 398 OFFCURVE",
"328 449 CURVE SMOOTH",
"223 481 OFFCURVE",
"141 529 OFFCURVE",
"141 629 CURVE SMOOTH",
"141 718 OFFCURVE",
"206 814 OFFCURVE",
"328 814 CURVE SMOOTH",
"419 814 OFFCURVE",
"482 759 OFFCURVE",
"502 708 CURVE",
"525 719 LINE",
"501 775 OFFCURVE",
"432 840 OFFCURVE",
"328 840 CURVE SMOOTH",
"209 840 OFFCURVE",
"116 752 OFFCURVE",
"116 629 CURVE"
);
}
);
width = 641;
}
);
leftKerningGroup = _S;
rightKerningGroup = _A1;
unicode = 0053;
},
{
color = (153,249,255,255);
glyphname = T;
lastChange = "2019-08-01 18:50:29 +0000";
layers = (
{
hints = (
{
horizontal = 1;
place = "{632, 193}";
type = Stem;
},
{
horizontal = 1;
place = "{0, -20}";
target = down;
type = TopGhost;
},
{
place = "{190, 220}";
type = Stem;
}
);
layerId = "9d3a33de-08d4-49ee-85e3-2813f64ed4e4";
paths = (
{
closed = 1;
nodes = (
"10 825 LINE",
"10 632 LINE",
"190 632 LINE",
"190 0 LINE",
"410 0 LINE",
"410 632 LINE",
"590 632 LINE",
"590 825 LINE"
);
}
);
width = 600;
},
{
hints = (
{
horizontal = 1;
place = "{797, 28}";
type = Stem;
},
{
horizontal = 1;
place = "{0, -20}";
target = down;
type = TopGhost;
},
{
place = "{276, 28}";
type = Stem;
}
);
layerId = "0ac4930a-26e9-4cfa-a42f-96cf237e936b";
paths = (
{
closed = 1;
nodes = (
"0 825 LINE",
"0 797 LINE",
"276 797 LINE",
"276 0 LINE",
"304 0 LINE",
"304 797 LINE",
"580 797 LINE",
"580 825 LINE"
);
}
);
width = 580;
}
);
leftKerningGroup = _T;
rightKerningGroup = _T;
unicode = 0054;
},
{
color = (153,249,255,255);
glyphname = U;
lastChange = "2019-08-01 18:50:29 +0000";
layers = (
{
hints = (
{
horizontal = 1;
place = "{-16, 216}";
type = Stem;
},
{
horizontal = 1;
place = "{825, -20}";
target = down;
type = TopGhost;
},
{
place = "{38, 220}";
type = Stem;
},
{
place = "{484, 220}";
type = Stem;
}
);
layerId = "9d3a33de-08d4-49ee-85e3-2813f64ed4e4";
paths = (
{
closed = 1;
nodes = (
"484 825 LINE",
"484 357 LINE SMOOTH",
"484 229 OFFCURVE",
"450 200 OFFCURVE",
"371 200 CURVE SMOOTH",
"292 200 OFFCURVE",
"258 229 OFFCURVE",
"258 357 CURVE SMOOTH",
"258 825 LINE",
"38 825 LINE",
"38 291 LINE SMOOTH",
"38 87 OFFCURVE",
"154 -16 OFFCURVE",
"371 -16 CURVE SMOOTH",
"588 -16 OFFCURVE",
"704 87 OFFCURVE",
"704 291 CURVE SMOOTH",
"704 825 LINE"
);
}
);
width = 742;
},
{
hints = (
{
horizontal = 1;
place = "{-16, 28}";
type = Stem;
},
{
horizontal = 1;
place = "{825, -20}";
target = down;
type = TopGhost;
},
{
place = "{108, 28}";
type = Stem;
},
{
place = "{620, 28}";
type = Stem;
}
);
layerId = "0ac4930a-26e9-4cfa-a42f-96cf237e936b";
paths = (
{
closed = 1;
nodes = (
"108 825 LINE",
"108 297 LINE SMOOTH",
"108 92 OFFCURVE",
"194 -16 OFFCURVE",
"378 -16 CURVE SMOOTH",
"562 -16 OFFCURVE",
"648 92 OFFCURVE",
"648 297 CURVE SMOOTH",
"648 825 LINE",
"620 825 LINE",
"620 297 LINE SMOOTH",
"620 111 OFFCURVE",
"537 12 OFFCURVE",
"378 12 CURVE SMOOTH",
"219 12 OFFCURVE",
"136 111 OFFCURVE",
"136 297 CURVE SMOOTH",
"136 825 LINE"
);
}
);
width = 756;
}
);
rightKerningGroup = _A1;
unicode = 0055;
},
{
color = (153,249,255,255);
glyphname = V;
lastChange = "2019-08-01 18:50:29 +0000";
layers = (
{
hints = (
{
horizontal = 1;
place = "{0, -20}";
target = down;
type = TopGhost;
},
{
horizontal = 1;
place = "{825, -20}";
target = down;
type = TopGhost;
},
{
place = "{-20, 864}";
type = Stem;
}
);
layerId = "9d3a33de-08d4-49ee-85e3-2813f64ed4e4";
paths = (
{
closed = 1;
nodes = (
"-20 825 LINE",
"326 0 LINE",
"498 0 LINE",
"844 825 LINE",
"596 825 LINE",
"412 331 LINE",
"228 825 LINE"
);
}
);
width = 824;
},
{
hints = (
{
place = "{8, 714}";
type = Stem;
},
{
horizontal = 1;
place = "{825, -20}";
target = down;
type = TopGhost;
},
{
horizontal = 1;
place = "{0, -20}";
target = down;
type = TopGhost;
}
);
layerId = "0ac4930a-26e9-4cfa-a42f-96cf237e936b";
paths = (
{
closed = 1;
nodes = (
"8 825 LINE",
"354 0 LINE",
"376 0 LINE",
"722 825 LINE",
"690 825 LINE",
"365 42 LINE",
"40 825 LINE"
);
}
);
width = 730;
}
);
leftKerningGroup = _V;
rightKerningGroup = _V;
unicode = 0056;
},
{
color = (153,249,255,255);
glyphname = W;
lastChange = "2019-08-01 18:50:29 +0000";
layers = (
{
hints = (
{
horizontal = 1;
place = "{0, -20}";
target = down;
type = TopGhost;
},
{
horizontal = 1;
place = "{825, -20}";
target = down;
type = TopGhost;
},
{
place = "{-20, 1160}";
type = Stem;
}
);
layerId = "9d3a33de-08d4-49ee-85e3-2813f64ed4e4";
paths = (
{
closed = 1;
nodes = (
"895 825 LINE",
"773 305 LINE",
"642 825 LINE",
"478 825 LINE",
"347 305 LINE",
"225 825 LINE",
"-20 825 LINE",
"213 0 LINE",
"457 0 LINE",
"560 402 LINE",
"663 0 LINE",
"907 0 LINE",
"1140 825 LINE"
);
}
);
width = 1120;
},
{
hints = (
{
place = "{8, 1112}";
type = Stem;
},
{
horizontal = 1;
place = "{825, -20}";
target = down;
type = TopGhost;
},
{
horizontal = 1;
place = "{0, -20}";
target = down;
type = TopGhost;
}
);
layerId = "0ac4930a-26e9-4cfa-a42f-96cf237e936b";
paths = (
{
closed = 1;
nodes = (
"8 825 LINE",
"257 0 LINE",
"290 0 LINE",
"564 767 LINE",
"838 0 LINE",
"871 0 LINE",
"1120 825 LINE",
"1089 825 LINE",
"855 30 LINE",
"576 825 LINE",
"552 825 LINE",
"273 30 LINE",
"39 825 LINE"
);
}
);
width = 1128;
}
);
leftKerningGroup = _V;
rightKerningGroup = _V;
unicode = 0057;
},
{
color = (153,249,255,255);
glyphname = X;
lastChange = "2019-08-01 18:50:29 +0000";
layers = (
{
hints = (
{
horizontal = 1;
place = "{0, -20}";
target = down;
type = TopGhost;
},
{
horizontal = 1;
place = "{825, -20}";
target = down;
type = TopGhost;
},
{
place = "{-20, 892}";
type = Stem;
}
);
layerId = "9d3a33de-08d4-49ee-85e3-2813f64ed4e4";
paths = (
{
closed = 1;
nodes = (
"558 825 LINE",
"426 626 LINE",
"294 825 LINE",
"32 825 LINE",
"291 444 LINE",
"-20 0 LINE",
"252 0 LINE",
"426 253 LINE",
"600 0 LINE",
"872 0 LINE",
"561 444 LINE",
"820 825 LINE"
);
}
);
width = 852;
},
{
hints = (
{
horizontal = 1;
place = "{825, -20}";
target = down;
type = TopGhost;
},
{
horizontal = 1;
place = "{0, -20}";
target = down;
type = TopGhost;
},
{
place = "{8, 670}";
type = Stem;
}
);
layerId = "0ac4930a-26e9-4cfa-a42f-96cf237e936b";
paths = (
{
closed = 1;
nodes = (
"56 825 LINE",
"325 446 LINE",
"8 0 LINE",
"44 0 LINE",
"343 421 LINE",
"642 0 LINE",
"678 0 LINE",
"361 446 LINE",
"630 825 LINE",
"595 825 LINE",
"343 471 LINE",
"91 825 LINE"
);
}
);
width = 686;
}
);
rightKerningGroup = _A1;
unicode = 0058;
},
{
color = (153,249,255,255);
glyphname = Y;
lastChange = "2019-08-01 18:50:29 +0000";
layers = (
{
hints = (
{
horizontal = 1;
place = "{0, -20}";
target = down;
type = TopGhost;
},
{
horizontal = 1;
place = "{825, -20}";
target = down;
type = TopGhost;
},
{
place = "{290, 220}";
type = Stem;
},
{
place = "{-20, 840}";
type = Stem;
}
);
layerId = "9d3a33de-08d4-49ee-85e3-2813f64ed4e4";
paths = (
{
closed = 1;
nodes = (
"-20 825 LINE",
"290 374 LINE",
"290 0 LINE",
"510 0 LINE",
"510 374 LINE",
"820 825 LINE",
"555 825 LINE",
"400 596 LINE",
"245 825 LINE"
);
}
);
width = 800;
},
{
hints = (
{
horizontal = 1;
place = "{825, -20}";
target = down;
type = TopGhost;
},
{
horizontal = 1;
place = "{0, -20}";
target = down;
type = TopGhost;
},
{
place = "{283, 28}";
type = Stem;
},
{
place = "{8, 578}";
type = Stem;
}
);
layerId = "0ac4930a-26e9-4cfa-a42f-96cf237e936b";
paths = (
{
closed = 1;
nodes = (
"8 825 LINE",
"283 352 LINE",
"283 0 LINE",
"311 0 LINE",
"311 352 LINE",
"586 825 LINE",
"552 825 LINE",
"297 386 LINE",
"42 825 LINE"
);
}
);
width = 594;
}
);
leftKerningGroup = _Y;
rightKerningGroup = _Y;
unicode = 0059;
},
{
color = (153,249,255,255);
glyphname = Z;
lastChange = "2019-08-01 18:50:29 +0000";
layers = (
{
hints = (
{
horizontal = 1;
place = "{633, 192}";
type = Stem;
},
{
horizontal = 1;
place = "{0, 192}";
type = Stem;
},
{
place = "{9, 754}";
type = Stem;
}
);
layerId = "9d3a33de-08d4-49ee-85e3-2813f64ed4e4";
paths = (
{
closed = 1;
nodes = (
"68 825 LINE",
"68 633 LINE",
"380 633 LINE",
"9 0 LINE",
"737 0 LINE",
"737 192 LINE",
"392 192 LINE",
"763 825 LINE"
);
}
);
width = 773;
},
{
hints = (
{
horizontal = 1;
place = "{0, 28}";
type = Stem;
},
{
horizontal = 1;
place = "{797, 28}";
type = Stem;
},
{
place = "{50, 651}";
type = Stem;
}
);
layerId = "0ac4930a-26e9-4cfa-a42f-96cf237e936b";
paths = (
{
closed = 1;
nodes = (
"106 825 LINE",
"106 797 LINE",
"645 797 LINE",
"50 0 LINE",
"673 0 LINE",
"673 28 LINE",
"106 28 LINE",
"701 825 LINE"
);
}
);
width = 751;
}
);
rightKerningGroup = _A1;
unicode = 005A;
},
{
color = (153,249,255,255);
glyphname = bracketleft;
lastChange = "2019-08-01 18:50:29 +0000";
layers = (
{
hints = (
{
horizontal = 1;
place = "{-260, 135}";
type = Stem;
},
{
horizontal = 1;
place = "{725, 135}";
type = Stem;
},
{
place = "{49, 178}";
type = Stem;
}
);
layerId = "9d3a33de-08d4-49ee-85e3-2813f64ed4e4";
paths = (
{
closed = 1;
nodes = (
"49 860 LINE",
"49 -260 LINE",
"403 -260 LINE",
"403 -125 LINE",
"227 -125 LINE",
"227 725 LINE",
"403 725 LINE",
"403 860 LINE"
);
}
);
width = 478;
},
{
hints = (
{
horizontal = 1;
place = "{-260, 28}";
type = Stem;
},
{
horizontal = 1;
place = "{832, 28}";
type = Stem;
},
{
place = "{116, 28}";
type = Stem;
}
);
layerId = "0ac4930a-26e9-4cfa-a42f-96cf237e936b";
paths = (
{
closed = 1;
nodes = (
"116 860 LINE",
"116 -260 LINE",
"278 -260 LINE",
"278 -232 LINE",
"144 -232 LINE",
"144 832 LINE",
"278 832 LINE",
"278 860 LINE"
);
}
);
width = 260;
}
);
rightKerningGroup = _A1;
unicode = 005B;
},
{
color = (153,249,255,255);
glyphname = backslash;
lastChange = "2019-08-01 18:50:29 +0000";
layers = (
{
hints = (
{
horizontal = 1;
place = "{0, -20}";
target = down;
type = TopGhost;
},
{
horizontal = 1;
place = "{860, -20}";
target = down;
type = TopGhost;
},
{
place = "{28, 591}";
type = Stem;
}
);
layerId = "9d3a33de-08d4-49ee-85e3-2813f64ed4e4";
paths = (
{
closed = 1;
nodes = (
"28 860 LINE",
"440 0 LINE",
"619 0 LINE",
"207 860 LINE"
);
}
);
width = 647;
},
{
hints = (
{
horizontal = 1;
place = "{860, -20}";
target = down;
type = TopGhost;
},
{
horizontal = 1;
place = "{0, -20}";
target = down;
type = TopGhost;
},
{
place = "{0, 432}";
type = Stem;
}
);
layerId = "0ac4930a-26e9-4cfa-a42f-96cf237e936b";
paths = (
{
closed = 1;
nodes = (
"0 860 LINE",
"412 0 LINE",
"432 0 LINE",
"20 860 LINE"
);
}
);
width = 432;
}
);
rightKerningGroup = _A1;
unicode = 005C;
},
{
color = (153,249,255,255);
glyphname = bracketright;
lastChange = "2019-08-01 18:50:29 +0000";
layers = (
{
hints = (
{
horizontal = 1;
place = "{-260, 135}";
type = Stem;
},
{
horizontal = 1;
place = "{725, 135}";
type = Stem;
},
{
place = "{252, 178}";
type = Stem;
}
);
layerId = "9d3a33de-08d4-49ee-85e3-2813f64ed4e4";
paths = (
{
closed = 1;
nodes = (
"76 860 LINE",
"76 725 LINE",
"252 725 LINE",
"252 -125 LINE",
"76 -125 LINE",
"76 -260 LINE",
"430 -260 LINE",
"430 860 LINE"
);
}
);
width = 478;
},
{
hints = (
{
horizontal = 1;
place = "{-260, 28}";
type = Stem;
},
{
horizontal = 1;
place = "{832, 28}";
type = Stem;
},
{
place = "{116, 28}";
type = Stem;
}
);
layerId = "0ac4930a-26e9-4cfa-a42f-96cf237e936b";
paths = (
{
closed = 1;
nodes = (
"-18 860 LINE",
"-18 832 LINE",
"116 832 LINE",
"116 -232 LINE",
"-18 -232 LINE",
"-18 -260 LINE",
"144 -260 LINE",
"144 860 LINE"
);
}
);
width = 260;
}
);
rightKerningGroup = _A1;
unicode = 005D;
},
{
color = (153,249,255,255);
glyphname = asciicircum;
lastChange = "2019-08-01 18:50:29 +0000";
layers = (
{
hints = (
{
place = "{-6, 522}";
type = Stem;
},
{
horizontal = 1;
place = "{841, -20}";
target = down;
type = TopGhost;
},
{
horizontal = 1;
place = "{605, -20}";
target = down;
type = TopGhost;
}
);
layerId = "9d3a33de-08d4-49ee-85e3-2813f64ed4e4";
paths = (
{
closed = 1;
nodes = (
"201 841 LINE",
"-6 605 LINE",
"182 605 LINE",
"255 692 LINE",
"328 605 LINE",
"516 605 LINE",
"309 841 LINE"
);
}
);
width = 510;
},
{
hints = (
{
horizontal = 1;
place = "{605, -20}";
target = down;
type = TopGhost;
},
{
horizontal = 1;
place = "{840, -17}";
type = Stem;
},
{
place = "{0, 428}";
type = Stem;
}
);
layerId = "0ac4930a-26e9-4cfa-a42f-96cf237e936b";
paths = (
{
closed = 1;
nodes = (
"0 605 LINE",
"24 605 LINE",
"214 823 LINE",
"404 605 LINE",
"428 605 LINE",
"221 840 LINE",
"207 840 LINE"
);
}
);
width = 428;
}
);
rightKerningGroup = _A1;
unicode = 005E;
},
{
color = (153,249,255,255);
glyphname = underscore;
lastChange = "2019-08-01 18:50:29 +0000";
layers = (
{
hints = (
{
horizontal = 1;
place = "{-101, 98}";
type = Stem;
},
{
place = "{0, 513}";
type = Stem;
}
);
layerId = "9d3a33de-08d4-49ee-85e3-2813f64ed4e4";
paths = (
{
closed = 1;
nodes = (
"0 -3 LINE",
"0 -101 LINE",
"513 -101 LINE",
"513 -3 LINE"
);
}
);
width = 513;
},
{
hints = (
{
horizontal = 1;
place = "{-100, 20}";
type = Stem;
},
{
place = "{0, 513}";
type = Stem;
}
);
layerId = "0ac4930a-26e9-4cfa-a42f-96cf237e936b";
paths = (
{
closed = 1;
nodes = (
"0 -80 LINE",
"0 -100 LINE",
"513 -100 LINE",
"513 -80 LINE"
);
}
);
width = 513;
}
);
rightKerningGroup = _A1;
unicode = 005F;
},
{
color = (153,154,255,255);
glyphname = grave;
lastChange = "2019-08-01 18:50:29 +0000";
layers = (
{
hints = (
{
horizontal = 1;
place = "{840, -20}";
target = down;
type = TopGhost;
},
{
horizontal = 1;
place = "{558, -20}";
target = down;
type = TopGhost;
},
{
place = "{45, 326}";
type = Stem;
}
);
layerId = "9d3a33de-08d4-49ee-85e3-2813f64ed4e4";
paths = (
{
closed = 1;
nodes = (
"45 708 LINE",
"307 558 LINE",
"371 646 LINE",
"150 840 LINE"
);
}
);
width = 416;
},
{
hints = (
{
horizontal = 1;
place = "{840, -20}";
target = down;
type = TopGhost;
},
{
horizontal = 1;
place = "{734, -20}";
target = down;
type = TopGhost;
},
{
place = "{58, 134}";
type = Stem;
}
);
layerId = "0ac4930a-26e9-4cfa-a42f-96cf237e936b";
paths = (
{
closed = 1;
nodes = (
"58 809 LINE",
"177 734 LINE",
"192 755 LINE",
"79 840 LINE"
);
}
);
width = 250;
}
);
rightKerningGroup = _A1;
unicode = 0060;
},
{
color = (153,249,255,255);
glyphname = a;
lastChange = "2019-08-01 18:50:29 +0000";
layers = (
{
hints = (
{
horizontal = 1;
place = "{0, -20}";
target = down;
type = TopGhost;
},
{
horizontal = 1;
place = "{-16, 176}";
type = Stem;
},
{
horizontal = 1;
place = "{512, -20}";
target = down;
type = TopGhost;
},
{
horizontal = 1;
place = "{352, 176}";
type = Stem;
},
{
place = "{14, 220}";
type = Stem;
},
{
place = "{423, 208}";
type = Stem;
}
);
layerId = "9d3a33de-08d4-49ee-85e3-2813f64ed4e4";
paths = (
{
closed = 1;
nodes = (
"14 256 LINE",
"14 108 OFFCURVE",
"116 -16 OFFCURVE",
"267 -16 CURVE SMOOTH",
"329 -16 OFFCURVE",
"383 9 OFFCURVE",
"423 40 CURVE",
"423 0 LINE",
"631 0 LINE",
"631 512 LINE",
"423 512 LINE",
"423 479 LINE",
"381 511 OFFCURVE",
"329 528 OFFCURVE",
"267 528 CURVE SMOOTH",
"116 528 OFFCURVE",
"14 404 OFFCURVE",
"14 256 CURVE SMOOTH"
);
},
{
closed = 1;
nodes = (
"234 256 LINE SMOOTH",
"234 312 OFFCURVE",
"277 352 OFFCURVE",
"331 352 CURVE SMOOTH",
"383 352 OFFCURVE",
"427 312 OFFCURVE",
"427 256 CURVE SMOOTH",
"427 201 OFFCURVE",
"387 160 OFFCURVE",
"331 160 CURVE SMOOTH",
"271 160 OFFCURVE",
"234 201 OFFCURVE",
"234 256 CURVE SMOOTH"
);
}
);
width = 678;
},
{
associatedMasterId = "0ac4930a-26e9-4cfa-a42f-96cf237e936b";
layerId = "85749D19-289E-47ED-9120-BFBCA965247D";
name = public.background;
width = 0;
},
{
hints = (
{
horizontal = 1;
place = "{-16, 26}";
type = Stem;
},
{
horizontal = 1;
place = "{502, 26}";
type = Stem;
},
{
horizontal = 1;
place = "{0, -20}";
target = down;
type = TopGhost;
},
{
horizontal = 1;
place = "{512, -20}";
target = down;
type = TopGhost;
},
{
place = "{75, 27}";
type = Stem;
},
{
place = "{561, 28}";
type = Stem;
}
);
layerId = "0ac4930a-26e9-4cfa-a42f-96cf237e936b";
paths = (
{
closed = 1;
nodes = (
"75 256 LINE",
"75 96 OFFCURVE",
"187 -16 OFFCURVE",
"332 -16 CURVE SMOOTH",
"435 -16 OFFCURVE",
"520 41 OFFCURVE",
"561 131 CURVE",
"561 0 LINE",
"589 0 LINE",
"589 512 LINE",
"561 512 LINE",
"561 381 LINE",
"520 471 OFFCURVE",
"435 528 OFFCURVE",
"332 528 CURVE SMOOTH",
"187 528 OFFCURVE",
"75 416 OFFCURVE",
"75 256 CURVE SMOOTH"
);
},
{
closed = 1;
nodes = (
"102 256 LINE",
"102 401 OFFCURVE",
"200 502 OFFCURVE",
"333 502 CURVE SMOOTH",
"467 502 OFFCURVE",
"564 401 OFFCURVE",
"564 256 CURVE SMOOTH",
"564 112 OFFCURVE",
"467 10 OFFCURVE",
"333 10 CURVE SMOOTH",
"200 10 OFFCURVE",
"102 112 OFFCURVE",
"102 256 CURVE SMOOTH"
);
}
);
width = 700;
}
);
leftKerningGroup = _a;
rightKerningGroup = _a;
unicode = 0061;
},
{
color = (153,249,255,255);
glyphname = a.1;
lastChange = "2019-08-01 18:50:29 +0000";
layers = (
{
hints = (
{
horizontal = 1;
place = "{364, 164}";
type = Stem;
},
{
horizontal = 1;
place = "{-16, 123}";
type = Stem;
},
{
horizontal = 1;
place = "{190, 108}";
type = Stem;
},
{
place = "{40, 206}";
type = Stem;
},
{
place = "{372, 211}";
type = Stem;
}
);
layerId = "9d3a33de-08d4-49ee-85e3-2813f64ed4e4";
paths = (
{
closed = 1;
nodes = (
"40 133 LINE SMOOTH",
"40 41 OFFCURVE",
"122 -16 OFFCURVE",
"227 -16 CURVE SMOOTH",
"293 -16 OFFCURVE",
"339 0 OFFCURVE",
"372 13 CURVE",
"372 0 LINE",
"583 0 LINE",
"583 289 LINE SMOOTH",
"583 476 OFFCURVE",
"398 528 OFFCURVE",
"274 528 CURVE SMOOTH",
"148 528 OFFCURVE",
"74 484 OFFCURVE",
"74 484 CURVE",
"137 342 LINE",
"137 342 OFFCURVE",
"194 364 OFFCURVE",
"274 364 CURVE SMOOTH",
"312 364 OFFCURVE",
"372 339 OFFCURVE",
"372 297 CURVE SMOOTH",
"372 267 LINE",
"352 276 OFFCURVE",
"306 298 OFFCURVE",
"219 298 CURVE SMOOTH",
"103 298 OFFCURVE",
"40 224 OFFCURVE",
"40 133 CURVE SMOOTH"
);
},
{
closed = 1;
nodes = (
"246 151 LINE SMOOTH",
"246 177 OFFCURVE",
"276 190 OFFCURVE",
"313 190 CURVE SMOOTH",
"349 190 OFFCURVE",
"379 170 OFFCURVE",
"379 148 CURVE SMOOTH",
"379 126 OFFCURVE",
"349 107 OFFCURVE",
"313 107 CURVE SMOOTH",
"276 107 OFFCURVE",
"246 125 OFFCURVE",
"246 151 CURVE SMOOTH"
);
}
);
width = 632;
},
{
guideLines = (
{
angle = 90;
position = "{-1192, 0}";
}
);
hints = (
{
horizontal = 1;
place = "{-16, 26}";
type = Stem;
},
{
horizontal = 1;
place = "{291, 26}";
type = Stem;
},
{
horizontal = 1;
place = "{503, 25}";
type = Stem;
},
{
horizontal = 1;
place = "{0, -20}";
target = down;
type = TopGhost;
},
{
place = "{69, 26}";
type = Stem;
},
{
place = "{448, 28}";
type = Stem;
}
);
layerId = "0ac4930a-26e9-4cfa-a42f-96cf237e936b";
paths = (
{
closed = 1;
nodes = (
"69 150 LINE",
"69 52 OFFCURVE",
"158 -16 OFFCURVE",
"273 -16 CURVE SMOOTH",
"349 -16 OFFCURVE",
"413 14 OFFCURVE",
"448 62 CURVE",
"448 0 LINE",
"476 0 LINE",
"476 320 LINE SMOOTH",
"476 440 OFFCURVE",
"414 528 OFFCURVE",
"269 528 CURVE SMOOTH",
"210 528 OFFCURVE",
"143 501 OFFCURVE",
"100 446 CURVE",
"120 430 LINE",
"154 468 OFFCURVE",
"204 503 OFFCURVE",
"269 503 CURVE SMOOTH",
"385 503 OFFCURVE",
"448 433 OFFCURVE",
"448 311 CURVE SMOOTH",
"448 239 LINE",
"413 287 OFFCURVE",
"349 317 OFFCURVE",
"273 317 CURVE SMOOTH",
"158 317 OFFCURVE",
"69 249 OFFCURVE",
"69 150 CURVE SMOOTH"
);
},
{
closed = 1;
nodes = (
"95 151 LINE",
"95 236 OFFCURVE",
"175 291 OFFCURVE",
"273 291 CURVE SMOOTH",
"371 291 OFFCURVE",
"451 236 OFFCURVE",
"451 151 CURVE SMOOTH",
"451 66 OFFCURVE",
"371 10 OFFCURVE",
"273 10 CURVE SMOOTH",
"175 10 OFFCURVE",
"95 66 OFFCURVE",
"95 151 CURVE SMOOTH"
);
}
);
width = 579;
}
);
},
{
color = (153,249,255,255);
glyphname = b;
lastChange = "2019-08-01 18:50:29 +0000";
layers = (
{
hints = (
{
horizontal = 1;
place = "{0, -20}";
target = down;
type = TopGhost;
},
{
horizontal = 1;
place = "{-16, 176}";
type = Stem;
},
{
horizontal = 1;
place = "{860, -20}";
target = down;
type = TopGhost;
},
{
horizontal = 1;
place = "{352, 176}";
type = Stem;
},
{
place = "{664, -220}";
type = Stem;
},
{
place = "{255, -208}";
type = Stem;
}
);
layerId = "9d3a33de-08d4-49ee-85e3-2813f64ed4e4";
paths = (
{
closed = 1;
nodes = (
"664 256 LINE",
"664 404 OFFCURVE",
"562 528 OFFCURVE",
"411 528 CURVE SMOOTH",
"349 528 OFFCURVE",
"297 511 OFFCURVE",
"255 479 CURVE",
"255 860 LINE",
"47 860 LINE",
"47 0 LINE",
"255 0 LINE",
"255 40 LINE",
"295 9 OFFCURVE",
"349 -16 OFFCURVE",
"411 -16 CURVE SMOOTH",
"562 -16 OFFCURVE",
"664 108 OFFCURVE",
"664 256 CURVE"
);
},
{
closed = 1;
nodes = (
"444 256 LINE",
"444 201 OFFCURVE",
"407 160 OFFCURVE",
"347 160 CURVE SMOOTH",
"291 160 OFFCURVE",
"251 201 OFFCURVE",
"251 256 CURVE SMOOTH",
"251 312 OFFCURVE",
"295 352 OFFCURVE",
"347 352 CURVE SMOOTH",
"401 352 OFFCURVE",
"444 312 OFFCURVE",
"444 256 CURVE SMOOTH"
);
}
);
width = 678;
},
{
associatedMasterId = "0ac4930a-26e9-4cfa-a42f-96cf237e936b";
layerId = "A9201882-7FF0-4238-AD99-0293326F994A";
name = public.background;
width = 0;
},
{
hints = (
{
horizontal = 1;
place = "{502, 26}";
type = Stem;
},
{
horizontal = 1;
place = "{860, -20}";
target = down;
type = TopGhost;
},
{
horizontal = 1;
place = "{0, -20}";
target = down;
type = TopGhost;
},
{
horizontal = 1;
place = "{10, -26}";
type = Stem;
},
{
place = "{111, 28}";
type = Stem;
},
{
place = "{598, 27}";
type = Stem;
}
);
layerId = "0ac4930a-26e9-4cfa-a42f-96cf237e936b";
paths = (
{
closed = 1;
nodes = (
"111 860 LINE",
"111 0 LINE",
"139 0 LINE",
"139 131 LINE",
"180 41 OFFCURVE",
"265 -16 OFFCURVE",
"368 -16 CURVE SMOOTH",
"513 -16 OFFCURVE",
"625 96 OFFCURVE",
"625 256 CURVE SMOOTH",
"625 416 OFFCURVE",
"513 528 OFFCURVE",
"368 528 CURVE SMOOTH",
"265 528 OFFCURVE",
"180 471 OFFCURVE",
"139 381 CURVE",
"139 860 LINE"
);
},
{
closed = 1;
nodes = (
"136 256 LINE",
"136 401 OFFCURVE",
"233 502 OFFCURVE",
"367 502 CURVE SMOOTH",
"500 502 OFFCURVE",
"598 401 OFFCURVE",
"598 256 CURVE SMOOTH",
"598 112 OFFCURVE",
"500 10 OFFCURVE",
"367 10 CURVE SMOOTH",
"233 10 OFFCURVE",
"136 112 OFFCURVE",
"136 256 CURVE SMOOTH"
);
}
);
width = 694;
}
);
rightKerningGroup = _b;
unicode = 0062;
},
{
color = (153,249,255,255);
glyphname = c;
lastChange = "2019-08-01 18:50:29 +0000";
layers = (
{
hints = (
{
horizontal = 1;
place = "{359, 169}";
type = Stem;
},
{
horizontal = 1;
place = "{-16, 169}";
type = Stem;
},
{
place = "{14, 220}";
type = Stem;
}
);
layerId = "9d3a33de-08d4-49ee-85e3-2813f64ed4e4";
paths = (
{
closed = 1;
nodes = (
"14 256 LINE",
"14 107 OFFCURVE",
"152 -16 OFFCURVE",
"300 -16 CURVE SMOOTH",
"413 -16 OFFCURVE",
"471 30 OFFCURVE",
"471 30 CURVE",
"403 170 LINE",
"384 158 OFFCURVE",
"366 153 OFFCURVE",
"331 153 CURVE SMOOTH",
"279 153 OFFCURVE",
"234 201 OFFCURVE",
"234 256 CURVE SMOOTH",
"234 311 OFFCURVE",
"279 359 OFFCURVE",
"331 359 CURVE SMOOTH",
"366 359 OFFCURVE",
"384 354 OFFCURVE",
"403 342 CURVE",
"471 482 LINE",
"471 482 OFFCURVE",
"413 528 OFFCURVE",
"300 528 CURVE SMOOTH",
"152 528 OFFCURVE",
"14 405 OFFCURVE",
"14 256 CURVE SMOOTH"
);
}
);
width = 470;
},
{
hints = (
{
horizontal = 1;
place = "{-16, 26}";
type = Stem;
},
{
horizontal = 1;
place = "{502, 26}";
type = Stem;
},
{
place = "{69, 26}";
type = Stem;
}
);
layerId = "0ac4930a-26e9-4cfa-a42f-96cf237e936b";
paths = (
{
closed = 1;
nodes = (
"69 256 LINE",
"69 97 OFFCURVE",
"188 -16 OFFCURVE",
"342 -16 CURVE SMOOTH",
"410 -16 OFFCURVE",
"471 6 OFFCURVE",
"519 44 CURVE",
"501 63 LINE",
"458 28 OFFCURVE",
"403 10 OFFCURVE",
"342 10 CURVE SMOOTH",
"199 10 OFFCURVE",
"95 113 OFFCURVE",
"95 256 CURVE SMOOTH",
"95 399 OFFCURVE",
"199 502 OFFCURVE",
"342 502 CURVE SMOOTH",
"403 502 OFFCURVE",
"458 484 OFFCURVE",
"502 449 CURVE",
"519 468 LINE",
"472 506 OFFCURVE",
"410 528 OFFCURVE",
"342 528 CURVE SMOOTH",
"188 528 OFFCURVE",
"69 416 OFFCURVE",
"69 256 CURVE SMOOTH"
);
}
);
width = 595;
}
);
leftKerningGroup = _c;
rightKerningGroup = _c;
unicode = 0063;
},
{
color = (153,249,255,255);
glyphname = d;
lastChange = "2019-08-01 18:50:29 +0000";
layers = (
{
hints = (
{
horizontal = 1;
place = "{0, 21}";
target = up;
type = BottomGhost;
},
{
horizontal = 1;
place = "{-16, 176}";
type = Stem;
},
{
horizontal = 1;
place = "{860, -20}";
target = down;
type = TopGhost;
},
{
horizontal = 1;
place = "{352, 176}";
type = Stem;
},
{
place = "{14, 220}";
type = Stem;
},
{
place = "{423, 208}";
type = Stem;
}
);
layerId = "9d3a33de-08d4-49ee-85e3-2813f64ed4e4";
paths = (
{
closed = 1;
nodes = (
"14 108 OFFCURVE",
"116 -16 OFFCURVE",
"267 -16 CURVE SMOOTH",
"329 -16 OFFCURVE",
"383 9 OFFCURVE",
"423 40 CURVE",
"423 0 LINE",
"631 0 LINE",
"631 860 LINE",
"423 860 LINE",
"423 479 LINE",
"381 511 OFFCURVE",
"329 528 OFFCURVE",
"267 528 CURVE SMOOTH",
"116 528 OFFCURVE",
"14 404 OFFCURVE",
"14 256 CURVE SMOOTH"
);
},
{
closed = 1;
nodes = (
"234 312 OFFCURVE",
"277 352 OFFCURVE",
"331 352 CURVE SMOOTH",
"383 352 OFFCURVE",
"427 312 OFFCURVE",
"427 256 CURVE SMOOTH",
"427 201 OFFCURVE",
"387 160 OFFCURVE",
"331 160 CURVE SMOOTH",
"271 160 OFFCURVE",
"234 201 OFFCURVE",
"234 256 CURVE SMOOTH"
);
}
);
width = 678;
},
{
associatedMasterId = "0ac4930a-26e9-4cfa-a42f-96cf237e936b";
layerId = "8AE301AE-D628-465F-B848-DA025172E735";
name = public.background;
width = 0;
},
{
hints = (
{
horizontal = 1;
place = "{-16, 26}";
type = Stem;
},
{
horizontal = 1;
place = "{502, 26}";
type = Stem;
},
{
horizontal = 1;
place = "{861, -20}";
target = down;
type = TopGhost;
},
{
horizontal = 1;
place = "{0, 21}";
target = up;
type = BottomGhost;
},
{
place = "{69, 27}";
type = Stem;
},
{
place = "{555, 28}";
type = Stem;
}
);
layerId = "0ac4930a-26e9-4cfa-a42f-96cf237e936b";
paths = (
{
closed = 1;
nodes = (
"69 96 OFFCURVE",
"181 -16 OFFCURVE",
"326 -16 CURVE SMOOTH",
"429 -16 OFFCURVE",
"514 41 OFFCURVE",
"555 131 CURVE",
"555 0 LINE",
"583 0 LINE",
"583 861 LINE",
"555 861 LINE",
"555 381 LINE",
"514 471 OFFCURVE",
"429 528 OFFCURVE",
"326 528 CURVE SMOOTH",
"181 528 OFFCURVE",
"69 416 OFFCURVE",
"69 256 CURVE SMOOTH"
);
},
{
closed = 1;
nodes = (
"96 401 OFFCURVE",
"194 502 OFFCURVE",
"327 502 CURVE SMOOTH",
"461 502 OFFCURVE",
"558 401 OFFCURVE",
"558 256 CURVE SMOOTH",
"558 112 OFFCURVE",
"461 10 OFFCURVE",
"327 10 CURVE SMOOTH",
"194 10 OFFCURVE",
"96 112 OFFCURVE",
"96 256 CURVE SMOOTH"
);
}
);
width = 0;
}
);
leftKerningGroup = _d;
rightKerningGroup = _A1;
unicode = 0064;
},
{
color = (153,249,255,255);
glyphname = e;
lastChange = "2019-08-01 18:50:29 +0000";
layers = (
{
hints = (
{
horizontal = 1;
place = "{-16, 164}";
type = Stem;
},
{
horizontal = 1;
place = "{227, 108}";
type = Stem;
},
{
horizontal = 1;
place = "{390, 138}";
type = Stem;
},
{
place = "{14, 215}";
type = Stem;
},
{
place = "{375, 201}";
type = Stem;
}
);
layerId = "9d3a33de-08d4-49ee-85e3-2813f64ed4e4";
paths = (
{
closed = 1;
nodes = (
"14 257 LINE SMOOTH",
"14 110 OFFCURVE",
"142 -16 OFFCURVE",
"298 -16 CURVE SMOOTH",
"414 -16 OFFCURVE",
"510 19 OFFCURVE",
"570 120 CURVE",
"421 194 LINE",
"378 153 OFFCURVE",
"363 148 OFFCURVE",
"313 148 CURVE SMOOTH",
"288 148 OFFCURVE",
"229 161 OFFCURVE",
"229 227 CURVE",
"576 227 LINE",
"577 239 OFFCURVE",
"578 251 OFFCURVE",
"578 262 CURVE SMOOTH",
"578 436 OFFCURVE",
"459 528 OFFCURVE",
"300 528 CURVE SMOOTH",
"143 528 OFFCURVE",
"14 407 OFFCURVE",
"14 257 CURVE SMOOTH"
);
},
{
closed = 1;
nodes = (
"235 335 LINE",
"236 366 OFFCURVE",
"257 390 OFFCURVE",
"306 390 CURVE SMOOTH",
"344 390 OFFCURVE",
"368 375 OFFCURVE",
"375 335 CURVE"
);
}
);
width = 592;
},
{
hints = (
{
horizontal = 1;
place = "{-16, 26}";
type = Stem;
},
{
horizontal = 1;
place = "{256, 25}";
type = Stem;
},
{
horizontal = 1;
place = "{502, 26}";
type = Stem;
},
{
place = "{69, 26}";
type = Stem;
},
{
place = "{567, 28}";
type = Stem;
}
);
layerId = "0ac4930a-26e9-4cfa-a42f-96cf237e936b";
paths = (
{
closed = 1;
nodes = (
"69 256 LINE",
"69 96 OFFCURVE",
"188 -16 OFFCURVE",
"342 -16 CURVE SMOOTH",
"442 -16 OFFCURVE",
"526 30 OFFCURVE",
"574 106 CURVE",
"552 120 LINE",
"510 52 OFFCURVE",
"434 10 OFFCURVE",
"342 10 CURVE SMOOTH",
"199 10 OFFCURVE",
"95 113 OFFCURVE",
"95 256 CURVE",
"595 256 LINE",
"595 407 OFFCURVE",
"477 528 OFFCURVE",
"332 528 CURVE SMOOTH",
"187 528 OFFCURVE",
"69 407 OFFCURVE",
"69 256 CURVE SMOOTH"
);
},
{
closed = 1;
nodes = (
"96 281 LINE",
"108 406 OFFCURVE",
"209 502 OFFCURVE",
"332 502 CURVE SMOOTH",
"454 502 OFFCURVE",
"555 406 OFFCURVE",
"567 281 CURVE"
);
}
);
width = 664;
}
);
leftKerningGroup = _c;
rightKerningGroup = _c;
unicode = 0065;
},
{
color = (153,249,255,255);
glyphname = f;
lastChange = "2019-08-01 18:50:29 +0000";
layers = (
{
hints = (
{
horizontal = 1;
place = "{691, 184}";
type = Stem;
},
{
horizontal = 1;
place = "{0, -20}";
target = down;
type = TopGhost;
},
{
horizontal = 1;
place = "{512, -158}";
type = Stem;
},
{
place = "{85, 208}";
type = Stem;
}
);
layerId = "9d3a33de-08d4-49ee-85e3-2813f64ed4e4";
paths = (
{
closed = 1;
nodes = (
"5 512 LINE",
"5 354 LINE",
"85 354 LINE",
"85 0 LINE",
"293 0 LINE",
"293 354 LINE",
"407 354 LINE",
"407 512 LINE",
"293 512 LINE",
"293 594 LINE SMOOTH",
"293 662 OFFCURVE",
"298 691 OFFCURVE",
"341 691 CURVE SMOOTH",
"370 691 OFFCURVE",
"392 679 OFFCURVE",
"392 679 CURVE",
"464 824 LINE",
"464 824 OFFCURVE",
"404 875 OFFCURVE",
"304 875 CURVE SMOOTH",
"164 875 OFFCURVE",
"85 759 OFFCURVE",
"85 601 CURVE SMOOTH",
"85 512 LINE"
);
}
);
width = 419;
},
{
associatedMasterId = "0ac4930a-26e9-4cfa-a42f-96cf237e936b";
layerId = "945C0794-60C4-4F50-9C0C-49732EF9DCEE";
name = public.background;
width = 0;
},
{
hints = (
{
horizontal = 1;
place = "{491, 21}";
type = Stem;
},
{
horizontal = 1;
place = "{851, 24}";
type = Stem;
},
{
horizontal = 1;
place = "{0, -20}";
target = down;
type = TopGhost;
},
{
place = "{111, 28}";
type = Stem;
}
);
layerId = "0ac4930a-26e9-4cfa-a42f-96cf237e936b";
paths = (
{
closed = 1;
nodes = (
"69 512 LINE",
"69 491 LINE",
"111 491 LINE",
"111 0 LINE",
"139 0 LINE",
"139 491 LINE",
"275 491 LINE",
"275 512 LINE",
"139 512 LINE",
"139 732 LINE SMOOTH",
"139 818 OFFCURVE",
"172 851 OFFCURVE",
"229 851 CURVE SMOOTH",
"258 851 OFFCURVE",
"278 843 OFFCURVE",
"292 831 CURVE",
"302 852 LINE",
"288 863 OFFCURVE",
"266 875 OFFCURVE",
"227 875 CURVE SMOOTH",
"159 875 OFFCURVE",
"111 837 OFFCURVE",
"111 727 CURVE SMOOTH",
"111 512 LINE"
);
}
);
width = 277;
}
);
rightKerningGroup = _A1;
unicode = 0066;
},
{
color = (153,249,255,255);
glyphname = g;
lastChange = "2019-08-01 18:50:29 +0000";
layers = (
{
associatedMasterId = "9d3a33de-08d4-49ee-85e3-2813f64ed4e4";
layerId = "cf2a3b8c-bb53-4d9e-827a-d6f64e11d495";
name = public.background;
width = 0;
},
{
hints = (
{
horizontal = 1;
place = "{-16, 176}";
type = Stem;
},
{
horizontal = 1;
place = "{512, -20}";
target = down;
type = TopGhost;
},
{
horizontal = 1;
place = "{352, 176}";
type = Stem;
},
{
horizontal = 1;
place = "{-275, 180}";
type = Stem;
},
{
place = "{14, 220}";
type = Stem;
},
{
place = "{423, 208}";
type = Stem;
}
);
layerId = "9d3a33de-08d4-49ee-85e3-2813f64ed4e4";
paths = (
{
closed = 1;
nodes = (
"14 108 OFFCURVE",
"116 -16 OFFCURVE",
"267 -16 CURVE SMOOTH",
"329 -16 OFFCURVE",
"383 9 OFFCURVE",
"423 40 CURVE",
"423 4 LINE SMOOTH",
"423 -80 OFFCURVE",
"349 -95 OFFCURVE",
"321 -95 CURVE SMOOTH",
"251 -95 OFFCURVE",
"217 -64 OFFCURVE",
"200 -43 CURVE",
"32 -126 LINE",
"90 -259 OFFCURVE",
"222 -275 OFFCURVE",
"322 -275 CURVE SMOOTH",
"497 -275 OFFCURVE",
"631 -188 OFFCURVE",
"631 -14 CURVE SMOOTH",
"631 512 LINE",
"423 512 LINE",
"423 479 LINE",
"381 511 OFFCURVE",
"329 528 OFFCURVE",
"267 528 CURVE SMOOTH",
"116 528 OFFCURVE",
"14 404 OFFCURVE",
"14 256 CURVE SMOOTH"
);
},
{
closed = 1;
nodes = (
"234 312 OFFCURVE",
"277 352 OFFCURVE",
"331 352 CURVE SMOOTH",
"383 352 OFFCURVE",
"427 312 OFFCURVE",
"427 256 CURVE SMOOTH",
"427 201 OFFCURVE",
"387 160 OFFCURVE",
"331 160 CURVE SMOOTH",
"271 160 OFFCURVE",
"234 201 OFFCURVE",
"234 256 CURVE SMOOTH"
);
}
);
width = 0;
},
{
associatedMasterId = "0ac4930a-26e9-4cfa-a42f-96cf237e936b";
layerId = "6CA75D3D-B82A-4C69-86B1-9FA7483062D9";
name = public.background;
width = 0;
},
{
hints = (
{
horizontal = 1;
place = "{-275, 23}";
type = Stem;
},
{
horizontal = 1;
place = "{-16, 26}";
type = Stem;
},
{
horizontal = 1;
place = "{502, 26}";
type = Stem;
},
{
horizontal = 1;
place = "{512, -20}";
target = down;
type = TopGhost;
},
{
place = "{83, 27}";
type = Stem;
},
{
place = "{569, 28}";
type = Stem;
}
);
layerId = "0ac4930a-26e9-4cfa-a42f-96cf237e936b";
paths = (
{
closed = 1;
nodes = (
"83 96 OFFCURVE",
"195 -16 OFFCURVE",
"340 -16 CURVE SMOOTH",
"443 -16 OFFCURVE",
"528 41 OFFCURVE",
"569 131 CURVE",
"569 -24 LINE SMOOTH",
"569 -154 OFFCURVE",
"484 -252 OFFCURVE",
"329 -252 CURVE SMOOTH",
"218 -252 OFFCURVE",
"133 -194 OFFCURVE",
"101 -116 CURVE",
"75 -126 LINE",
"113 -210 OFFCURVE",
"191 -275 OFFCURVE",
"329 -275 CURVE SMOOTH",
"505 -275 OFFCURVE",
"597 -177 OFFCURVE",
"597 -14 CURVE SMOOTH",
"597 512 LINE",
"569 512 LINE",
"569 381 LINE",
"528 471 OFFCURVE",
"443 528 OFFCURVE",
"340 528 CURVE SMOOTH",
"195 528 OFFCURVE",
"83 416 OFFCURVE",
"83 256 CURVE SMOOTH"
);
},
{
closed = 1;
nodes = (
"110 401 OFFCURVE",
"208 502 OFFCURVE",
"341 502 CURVE SMOOTH",
"475 502 OFFCURVE",
"572 401 OFFCURVE",
"572 256 CURVE SMOOTH",
"572 112 OFFCURVE",
"475 10 OFFCURVE",
"341 10 CURVE SMOOTH",
"208 10 OFFCURVE",
"110 112 OFFCURVE",
"110 256 CURVE SMOOTH"
);
}
);
width = 0;
}
);
leftKerningGroup = _g;
rightKerningGroup = _g;
unicode = 0067;
},
{
color = (153,249,255,255);
glyphname = h;
lastChange = "2019-08-01 18:50:29 +0000";
layers = (
{
associatedMasterId = "9d3a33de-08d4-49ee-85e3-2813f64ed4e4";
layerId = "cf2a3b8c-bb53-4d9e-827a-d6f64e11d495";
name = public.background;
width = 0;
},
{
hints = (
{
horizontal = 1;
place = "{367, 161}";
type = Stem;
},
{
horizontal = 1;
place = "{0, -20}";
target = down;
type = TopGhost;
},
{
horizontal = 1;
place = "{860, -20}";
target = down;
type = TopGhost;
},
{
place = "{49, 208}";
type = Stem;
},
{
place = "{425, 208}";
type = Stem;
}
);
layerId = "9d3a33de-08d4-49ee-85e3-2813f64ed4e4";
paths = (
{
closed = 1;
nodes = (
"49 860 LINE",
"49 0 LINE",
"257 0 LINE",
"257 278 LINE SMOOTH",
"257 324 OFFCURVE",
"298 367 OFFCURVE",
"349 367 CURVE SMOOTH",
"396 367 OFFCURVE",
"425 331 OFFCURVE",
"425 286 CURVE SMOOTH",
"425 0 LINE",
"633 0 LINE",
"633 342 LINE SMOOTH",
"633 489 OFFCURVE",
"486 528 OFFCURVE",
"403 528 CURVE SMOOTH",
"347 528 OFFCURVE",
"292 499 OFFCURVE",
"257 464 CURVE",
"257 860 LINE"
);
}
);
width = 673;
},
{
associatedMasterId = "0ac4930a-26e9-4cfa-a42f-96cf237e936b";
layerId = "CF794EA4-438E-4F76-BF0D-AA9D1DDD1056";
name = public.background;
width = 0;
},
{
hints = (
{
horizontal = 1;
place = "{503, 25}";
type = Stem;
},
{
horizontal = 1;
place = "{861, -20}";
target = down;
type = TopGhost;
},
{
horizontal = 1;
place = "{0, -20}";
target = down;
type = TopGhost;
},
{
place = "{111, 28}";
type = Stem;
},
{
place = "{471, 28}";
type = Stem;
}
);
layerId = "0ac4930a-26e9-4cfa-a42f-96cf237e936b";
paths = (
{
closed = 1;
nodes = (
"111 861 LINE",
"111 0 LINE",
"139 0 LINE",
"139 351 LINE SMOOTH",
"139 424 OFFCURVE",
"199 503 OFFCURVE",
"303 503 CURVE SMOOTH",
"419 503 OFFCURVE",
"471 433 OFFCURVE",
"471 311 CURVE SMOOTH",
"471 0 LINE",
"499 0 LINE",
"499 320 LINE SMOOTH",
"499 440 OFFCURVE",
"448 528 OFFCURVE",
"303 528 CURVE SMOOTH",
"246 528 OFFCURVE",
"166 501 OFFCURVE",
"139 435 CURVE",
"139 861 LINE"
);
}
);
width = 602;
}
);
rightKerningGroup = _b;
unicode = 0068;
},
{
color = (153,249,255,255);
glyphname = i;
lastChange = "2019-08-01 18:50:29 +0000";
layers = (
{
associatedMasterId = "9d3a33de-08d4-49ee-85e3-2813f64ed4e4";
layerId = "cf2a3b8c-bb53-4d9e-827a-d6f64e11d495";
name = public.background;
width = 0;
},
{
hints = (
{
horizontal = 1;
place = "{865, -244}";
type = Stem;
},
{
horizontal = 1;
place = "{0, -20}";
target = down;
type = TopGhost;
},
{
horizontal = 1;
place = "{512, -20}";
target = down;
type = TopGhost;
},
{
place = "{49, 208}";
type = Stem;
},
{
place = "{30, 244}";
type = Stem;
}
);
layerId = "9d3a33de-08d4-49ee-85e3-2813f64ed4e4";
paths = (
{
closed = 1;
nodes = (
"49 512 LINE",
"49 0 LINE",
"257 0 LINE",
"257 512 LINE"
);
},
{
closed = 1;
nodes = (
"152 865 LINE SMOOTH",
"85 865 OFFCURVE",
"30 810 OFFCURVE",
"30 743 CURVE SMOOTH",
"30 676 OFFCURVE",
"85 621 OFFCURVE",
"152 621 CURVE SMOOTH",
"219 621 OFFCURVE",
"274 676 OFFCURVE",
"274 743 CURVE SMOOTH",
"274 810 OFFCURVE",
"219 865 OFFCURVE",
"152 865 CURVE SMOOTH"
);
}
);
width = 306;
},
{
associatedMasterId = "0ac4930a-26e9-4cfa-a42f-96cf237e936b";
layerId = "2E15A8F2-0283-4238-BC3C-E28F5A9A9CDF";
name = public.background;
width = 0;
},
{
hints = (
{
horizontal = 1;
place = "{613, 48}";
type = Stem;
},
{
horizontal = 1;
place = "{0, -20}";
target = down;
type = TopGhost;
},
{
horizontal = 1;
place = "{512, -20}";
target = down;
type = TopGhost;
},
{
place = "{111, 48}";
type = Stem;
},
{
place = "{121, 28}";
type = Stem;
}
);
layerId = "0ac4930a-26e9-4cfa-a42f-96cf237e936b";
paths = (
{
closed = 1;
nodes = (
"121 512 LINE",
"121 0 LINE",
"149 0 LINE",
"149 512 LINE"
);
},
{
closed = 1;
nodes = (
"135 661 LINE",
"122 661 OFFCURVE",
"111 650 OFFCURVE",
"111 637 CURVE SMOOTH",
"111 624 OFFCURVE",
"122 613 OFFCURVE",
"135 613 CURVE SMOOTH",
"148 613 OFFCURVE",
"159 624 OFFCURVE",
"159 637 CURVE",
"159 650 OFFCURVE",
"148 661 OFFCURVE",
"135 661 CURVE SMOOTH"
);
}
);
width = 270;
}
);
leftKerningGroup = _I;
rightKerningGroup = _A1;
unicode = 0069;
},
{
color = (153,249,255,255);
glyphname = j;
lastChange = "2019-08-01 18:50:29 +0000";
layers = (
{
hints = (
{
horizontal = 1;
place = "{-275, 187}";
type = Stem;
},
{
horizontal = 1;
place = "{621, 244}";
type = Stem;
},
{
horizontal = 1;
place = "{512, -20}";
target = down;
type = TopGhost;
},
{
place = "{30, 244}";
type = Stem;
},
{
place = "{49, 208}";
type = Stem;
}
);
layerId = "9d3a33de-08d4-49ee-85e3-2813f64ed4e4";
paths = (
{
closed = 1;
nodes = (
"49 512 LINE",
"49 -28 LINE SMOOTH",
"49 -69 OFFCURVE",
"34 -88 OFFCURVE",
"9 -88 CURVE SMOOTH",
"-9 -88 OFFCURVE",
"-32 -74 OFFCURVE",
"-32 -74 CURVE",
"-96 -241 LINE",
"-96 -241 OFFCURVE",
"-43 -275 OFFCURVE",
"58 -275 CURVE SMOOTH",
"213 -275 OFFCURVE",
"257 -157 OFFCURVE",
"257 -69 CURVE SMOOTH",
"257 512 LINE"
);
},
{
closed = 1;
nodes = (
"152 865 LINE SMOOTH",
"85 865 OFFCURVE",
"30 810 OFFCURVE",
"30 743 CURVE SMOOTH",
"30 676 OFFCURVE",
"85 621 OFFCURVE",
"152 621 CURVE SMOOTH",
"219 621 OFFCURVE",
"274 676 OFFCURVE",
"274 743 CURVE SMOOTH",
"274 810 OFFCURVE",
"219 865 OFFCURVE",
"152 865 CURVE SMOOTH"
);
}
);
width = 306;
},
{
hints = (
{
horizontal = 1;
place = "{-275, 24}";
type = Stem;
},
{
horizontal = 1;
place = "{613, 48}";
type = Stem;
},
{
horizontal = 1;
place = "{512, -20}";
target = down;
type = TopGhost;
},
{
place = "{111, 28}";
type = Stem;
},
{
place = "{101, 48}";
type = Stem;
}
);
layerId = "0ac4930a-26e9-4cfa-a42f-96cf237e936b";
paths = (
{
closed = 1;
nodes = (
"125 661 LINE",
"112 661 OFFCURVE",
"101 650 OFFCURVE",
"101 637 CURVE SMOOTH",
"101 624 OFFCURVE",
"112 613 OFFCURVE",
"125 613 CURVE SMOOTH",
"138 613 OFFCURVE",
"149 624 OFFCURVE",
"149 637 CURVE SMOOTH",
"149 650 OFFCURVE",
"138 661 OFFCURVE",
"125 661 CURVE"
);
},
{
closed = 1;
nodes = (
"111 512 LINE",
"111 -132 LINE",
"111 -214 OFFCURVE",
"78 -251 OFFCURVE",
"21 -251 CURVE SMOOTH",
"-9 -251 OFFCURVE",
"-30 -243 OFFCURVE",
"-44 -230 CURVE",
"-52 -252 LINE",
"-38 -264 OFFCURVE",
"-16 -275 OFFCURVE",
"23 -275 CURVE SMOOTH",
"91 -275 OFFCURVE",
"139 -237 OFFCURVE",
"139 -127 CURVE SMOOTH",
"139 512 LINE"
);
}
);
width = 260;
}
);
rightKerningGroup = _A1;
unicode = 006A;
},
{
color = (153,249,255,255);
glyphname = j.1;
lastChange = "2019-08-01 18:50:29 +0000";
layers = (
{
hints = (
{
horizontal = 1;
place = "{865, -244}";
type = Stem;
},
{
horizontal = 1;
place = "{-260, -20}";
target = down;
type = TopGhost;
},
{
horizontal = 1;
place = "{512, -20}";
target = down;
type = TopGhost;
},
{
place = "{49, 208}";
type = Stem;
},
{
place = "{30, 244}";
type = Stem;
}
);
layerId = "9d3a33de-08d4-49ee-85e3-2813f64ed4e4";
paths = (
{
closed = 1;
nodes = (
"49 512 LINE",
"49 -260 LINE",
"257 -260 LINE",
"257 512 LINE"
);
},
{
closed = 1;
nodes = (
"152 865 LINE SMOOTH",
"85 865 OFFCURVE",
"30 810 OFFCURVE",
"30 743 CURVE SMOOTH",
"30 676 OFFCURVE",
"85 621 OFFCURVE",
"152 621 CURVE SMOOTH",
"219 621 OFFCURVE",
"274 676 OFFCURVE",
"274 743 CURVE SMOOTH",
"274 810 OFFCURVE",
"219 865 OFFCURVE",
"152 865 CURVE SMOOTH"
);
}
);
width = 306;
},
{
hints = (
{
horizontal = 1;
place = "{661, -48}";
type = Stem;
},
{
horizontal = 1;
place = "{512, -20}";
target = down;
type = TopGhost;
},
{
horizontal = 1;
place = "{-260, -20}";
target = down;
type = TopGhost;
},
{
place = "{111, 28}";
type = Stem;
},
{
place = "{101, 48}";
type = Stem;
}
);
layerId = "0ac4930a-26e9-4cfa-a42f-96cf237e936b";
paths = (
{
closed = 1;
nodes = (
"125 661 LINE",
"112 661 OFFCURVE",
"101 650 OFFCURVE",
"101 637 CURVE SMOOTH",
"101 624 OFFCURVE",
"112 613 OFFCURVE",
"125 613 CURVE SMOOTH",
"138 613 OFFCURVE",
"149 624 OFFCURVE",
"149 637 CURVE SMOOTH",
"149 650 OFFCURVE",
"138 661 OFFCURVE",
"125 661 CURVE"
);
},
{
closed = 1;
nodes = (
"111 512 LINE",
"111 -260 LINE",
"139 -260 LINE",
"139 512 LINE"
);
}
);
width = 260;
}
);
},
{
color = (153,249,255,255);
glyphname = k;
lastChange = "2019-08-01 18:50:29 +0000";
layers = (
{
hints = (
{
horizontal = 1;
place = "{860, -20}";
target = down;
type = TopGhost;
},
{
horizontal = 1;
place = "{0, -20}";
target = down;
type = TopGhost;
},
{
place = "{49, 208}";
type = Stem;
}
);
layerId = "9d3a33de-08d4-49ee-85e3-2813f64ed4e4";
paths = (
{
closed = 1;
nodes = (
"49 860 LINE",
"49 0 LINE",
"257 0 LINE",
"257 175 LINE",
"449 0 LINE",
"716 0 LINE",
"443 254 LINE",
"705 512 LINE",
"436 512 LINE",
"257 340 LINE",
"257 860 LINE"
);
}
);
width = 691;
},
{
hints = (
{
horizontal = 1;
place = "{0, -20}";
target = down;
type = TopGhost;
},
{
horizontal = 1;
place = "{860, -20}";
target = down;
type = TopGhost;
},
{
horizontal = 1;
place = "{512, -20}";
target = down;
type = TopGhost;
},
{
place = "{111, 28}";
type = Stem;
}
);
layerId = "0ac4930a-26e9-4cfa-a42f-96cf237e936b";
paths = (
{
closed = 1;
nodes = (
"111 860 LINE",
"111 0 LINE",
"139 0 LINE",
"139 257 LINE",
"182 310 LINE",
"409 0 LINE",
"442 0 LINE",
"199 331 LINE",
"349 512 LINE",
"349 512 OFFCURVE",
"315 512 OFFCURVE",
"315 512 CURVE",
"139 299 LINE",
"139 860 LINE"
);
}
);
width = 422;
}
);
rightKerningGroup = _A1;
unicode = 006B;
},
{
color = (153,249,255,255);
glyphname = l;
lastChange = "2019-08-01 18:50:29 +0000";
layers = (
{
hints = (
{
horizontal = 1;
place = "{0, -20}";
target = down;
type = TopGhost;
},
{
horizontal = 1;
place = "{860, -20}";
target = down;
type = TopGhost;
},
{
place = "{49, 208}";
type = Stem;
}
);
layerId = "9d3a33de-08d4-49ee-85e3-2813f64ed4e4";
paths = (
{
closed = 1;
nodes = (
"49 860 LINE",
"49 0 LINE",
"257 0 LINE",
"257 860 LINE"
);
}
);
width = 306;
},
{
hints = (
{
horizontal = 1;
place = "{860, -20}";
target = down;
type = TopGhost;
},
{
horizontal = 1;
place = "{0, -20}";
target = down;
type = TopGhost;
},
{
place = "{111, 28}";
type = Stem;
}
);
layerId = "0ac4930a-26e9-4cfa-a42f-96cf237e936b";
paths = (
{
closed = 1;
nodes = (
"111 860 LINE",
"111 0 LINE",
"139 0 LINE",
"139 860 LINE"
);
}
);
width = 250;
}
);
leftKerningGroup = _I;
rightKerningGroup = _A1;
unicode = 006C;
},
{
color = (153,249,255,255);
glyphname = m;
lastChange = "2019-08-01 18:50:29 +0000";
layers = (
{
hints = (
{
horizontal = 1;
place = "{512, -20}";
target = down;
type = TopGhost;
},
{
horizontal = 1;
place = "{363, 165}";
type = Stem;
},
{
horizontal = 1;
place = "{0, -20}";
target = down;
type = TopGhost;
},
{
place = "{49, 208}";
type = Stem;
},
{
place = "{395, 208}";
type = Stem;
},
{
place = "{742, 208}";
type = Stem;
}
);
layerId = "9d3a33de-08d4-49ee-85e3-2813f64ed4e4";
paths = (
{
closed = 1;
nodes = (
"49 512 LINE",
"49 0 LINE",
"257 0 LINE",
"257 287 LINE SMOOTH",
"257 326 OFFCURVE",
"270 363 OFFCURVE",
"322 363 CURVE SMOOTH",
"375 363 OFFCURVE",
"395 323 OFFCURVE",
"395 286 CURVE SMOOTH",
"395 0 LINE",
"603 0 LINE",
"603 294 LINE",
"603 331 OFFCURVE",
"620 363 OFFCURVE",
"669 363 CURVE SMOOTH",
"722 363 OFFCURVE",
"742 323 OFFCURVE",
"742 286 CURVE SMOOTH",
"742 0 LINE",
"950 0 LINE",
"950 342 LINE SMOOTH",
"950 489 OFFCURVE",
"833 528 OFFCURVE",
"749 528 CURVE SMOOTH",
"698 528 OFFCURVE",
"640 504 OFFCURVE",
"581 438 CURVE",
"542 507 OFFCURVE",
"463 528 OFFCURVE",
"402 528 CURVE SMOOTH",
"347 528 OFFCURVE",
"300 499 OFFCURVE",
"257 464 CURVE",
"257 512 LINE"
);
}
);
width = 990;
},
{
associatedMasterId = "0ac4930a-26e9-4cfa-a42f-96cf237e936b";
layerId = "6D0A90D4-BD96-4D7E-BEC8-0A5B6FB40867";
name = public.background;
width = 0;
},
{
hints = (
{
horizontal = 1;
place = "{503, 25}";
type = Stem;
},
{
horizontal = 1;
place = "{512, -20}";
target = down;
type = TopGhost;
},
{
horizontal = 1;
place = "{0, -20}";
target = down;
type = TopGhost;
},
{
place = "{111, 28}";
type = Stem;
},
{
place = "{472, 28}";
type = Stem;
},
{
place = "{833, 28}";
type = Stem;
}
);
layerId = "0ac4930a-26e9-4cfa-a42f-96cf237e936b";
paths = (
{
closed = 1;
nodes = (
"111 512 LINE",
"111 0 LINE",
"139 0 LINE",
"139 367 LINE SMOOTH",
"139 414 OFFCURVE",
"209 503 OFFCURVE",
"304 503 CURVE SMOOTH",
"417 503 OFFCURVE",
"472 430 OFFCURVE",
"472 311 CURVE SMOOTH",
"472 0 LINE",
"500 0 LINE",
"500 367 LINE SMOOTH",
"500 414 OFFCURVE",
"570 503 OFFCURVE",
"665 503 CURVE SMOOTH",
"778 503 OFFCURVE",
"833 430 OFFCURVE",
"833 311 CURVE SMOOTH",
"833 0 LINE",
"861 0 LINE",
"861 320 LINE SMOOTH",
"861 440 OFFCURVE",
"810 528 OFFCURVE",
"665 528 CURVE SMOOTH",
"582 528 OFFCURVE",
"515 474 OFFCURVE",
"486 414 CURVE",
"463 483 OFFCURVE",
"408 528 OFFCURVE",
"304 528 CURVE SMOOTH",
"247 528 OFFCURVE",
"173 498 OFFCURVE",
"139 435 CURVE",
"139 512 LINE"
);
}
);
width = 964;
}
);
leftKerningGroup = _m;
rightKerningGroup = _b;
unicode = 006D;
},
{
color = (153,249,255,255);
glyphname = n;
lastChange = "2019-08-01 18:50:29 +0000";
layers = (
{
hints = (
{
horizontal = 1;
place = "{367, 161}";
type = Stem;
},
{
horizontal = 1;
place = "{0, -20}";
target = down;
type = TopGhost;
},
{
horizontal = 1;
place = "{512, -20}";
target = down;
type = TopGhost;
},
{
place = "{49, 208}";
type = Stem;
},
{
place = "{425, 208}";
type = Stem;
}
);
layerId = "9d3a33de-08d4-49ee-85e3-2813f64ed4e4";
paths = (
{
closed = 1;
nodes = (
"49 512 LINE",
"49 0 LINE",
"257 0 LINE",
"257 278 LINE SMOOTH",
"257 324 OFFCURVE",
"298 367 OFFCURVE",
"349 367 CURVE SMOOTH",
"396 367 OFFCURVE",
"425 331 OFFCURVE",
"425 286 CURVE SMOOTH",
"425 0 LINE",
"633 0 LINE",
"633 342 LINE SMOOTH",
"633 489 OFFCURVE",
"486 528 OFFCURVE",
"403 528 CURVE SMOOTH",
"347 528 OFFCURVE",
"292 499 OFFCURVE",
"257 464 CURVE",
"257 512 LINE"
);
}
);
width = 673;
},
{
associatedMasterId = "0ac4930a-26e9-4cfa-a42f-96cf237e936b";
layerId = "0299380A-EB82-43CE-8B3D-728F7508224F";
name = public.background;
width = 0;
},
{
hints = (
{
horizontal = 1;
place = "{503, 25}";
type = Stem;
},
{
horizontal = 1;
place = "{512, -20}";
target = down;
type = TopGhost;
},
{
horizontal = 1;
place = "{0, -20}";
target = down;
type = TopGhost;
},
{
place = "{111, 28}";
type = Stem;
},
{
place = "{471, 28}";
type = Stem;
}
);
layerId = "0ac4930a-26e9-4cfa-a42f-96cf237e936b";
paths = (
{
closed = 1;
nodes = (
"111 512 LINE",
"111 0 LINE",
"139 0 LINE",
"139 351 LINE SMOOTH",
"139 424 OFFCURVE",
"199 503 OFFCURVE",
"303 503 CURVE SMOOTH",
"419 503 OFFCURVE",
"471 433 OFFCURVE",
"471 311 CURVE SMOOTH",
"471 0 LINE",
"499 0 LINE",
"499 320 LINE SMOOTH",
"499 440 OFFCURVE",
"448 528 OFFCURVE",
"303 528 CURVE SMOOTH",
"246 528 OFFCURVE",
"166 501 OFFCURVE",
"139 435 CURVE",
"139 512 LINE"
);
}
);
width = 602;
}
);
leftKerningGroup = _m;
rightKerningGroup = _b;
unicode = 006E;
},
{
color = (153,249,255,255);
glyphname = o;
lastChange = "2019-08-01 18:50:29 +0000";
layers = (
{
associatedMasterId = "9d3a33de-08d4-49ee-85e3-2813f64ed4e4";
layerId = "cf2a3b8c-bb53-4d9e-827a-d6f64e11d495";
name = public.background;
width = 0;
},
{
hints = (
{
horizontal = 1;
place = "{-16, -20}";
target = down;
type = TopGhost;
},
{
horizontal = 1;
place = "{352, 176}";
type = Stem;
},
{
horizontal = 1;
place = "{160, -176}";
type = Stem;
},
{
place = "{14, 218}";
type = Stem;
},
{
place = "{420, 218}";
type = Stem;
}
);
layerId = "9d3a33de-08d4-49ee-85e3-2813f64ed4e4";
paths = (
{
closed = 1;
nodes = (
"14 256 LINE SMOOTH",
"14 96 OFFCURVE",
"150 -16 OFFCURVE",
"326 -16 CURVE SMOOTH",
"502 -16 OFFCURVE",
"638 96 OFFCURVE",
"638 256 CURVE SMOOTH",
"638 416 OFFCURVE",
"502 528 OFFCURVE",
"326 528 CURVE SMOOTH",
"150 528 OFFCURVE",
"14 416 OFFCURVE",
"14 256 CURVE SMOOTH"
);
},
{
closed = 1;
nodes = (
"232 256 LINE SMOOTH",
"232 313 OFFCURVE",
"275 352 OFFCURVE",
"326 352 CURVE SMOOTH",
"377 352 OFFCURVE",
"420 313 OFFCURVE",
"420 256 CURVE SMOOTH",
"420 199 OFFCURVE",
"377 160 OFFCURVE",
"326 160 CURVE SMOOTH",
"275 160 OFFCURVE",
"232 199 OFFCURVE",
"232 256 CURVE SMOOTH"
);
}
);
width = 652;
},
{
hints = (
{
horizontal = 1;
place = "{-16, 26}";
type = Stem;
},
{
horizontal = 1;
place = "{502, 26}";
type = Stem;
},
{
place = "{69, 26}";
type = Stem;
},
{
place = "{591, 26}";
type = Stem;
}
);
layerId = "0ac4930a-26e9-4cfa-a42f-96cf237e936b";
paths = (
{
closed = 1;
nodes = (
"69 256 LINE SMOOTH",
"69 95 OFFCURVE",
"188 -16 OFFCURVE",
"343 -16 CURVE SMOOTH",
"498 -16 OFFCURVE",
"617 95 OFFCURVE",
"617 256 CURVE SMOOTH",
"617 417 OFFCURVE",
"498 528 OFFCURVE",
"343 528 CURVE SMOOTH",
"188 528 OFFCURVE",
"69 417 OFFCURVE",
"69 256 CURVE SMOOTH"
);
},
{
closed = 1;
nodes = (
"95 256 LINE SMOOTH",
"95 399 OFFCURVE",
"199 502 OFFCURVE",
"343 502 CURVE SMOOTH",
"487 502 OFFCURVE",
"591 399 OFFCURVE",
"591 256 CURVE SMOOTH",
"591 113 OFFCURVE",
"487 10 OFFCURVE",
"343 10 CURVE SMOOTH",
"199 10 OFFCURVE",
"95 113 OFFCURVE",
"95 256 CURVE SMOOTH"
);
}
);
width = 686;
}
);
leftKerningGroup = _c;
rightKerningGroup = _c;
unicode = 006F;
},
{
color = (153,249,255,255);
glyphname = p;
lastChange = "2019-08-01 18:50:29 +0000";
layers = (
{
hints = (
{
horizontal = 1;
place = "{-260, -20}";
target = down;
type = TopGhost;
},
{
horizontal = 1;
place = "{-16, 176}";
type = Stem;
},
{
horizontal = 1;
place = "{512, -20}";
target = down;
type = TopGhost;
},
{
horizontal = 1;
place = "{352, 176}";
type = Stem;
},
{
place = "{664, -220}";
type = Stem;
},
{
place = "{255, -208}";
type = Stem;
}
);
layerId = "9d3a33de-08d4-49ee-85e3-2813f64ed4e4";
paths = (
{
closed = 1;
nodes = (
"664 256 LINE",
"664 108 OFFCURVE",
"562 -16 OFFCURVE",
"411 -16 CURVE SMOOTH",
"349 -16 OFFCURVE",
"295 9 OFFCURVE",
"255 40 CURVE",
"255 -260 LINE",
"47 -260 LINE",
"47 512 LINE",
"255 512 LINE",
"255 479 LINE",
"297 511 OFFCURVE",
"349 528 OFFCURVE",
"411 528 CURVE SMOOTH",
"562 528 OFFCURVE",
"664 404 OFFCURVE",
"664 256 CURVE SMOOTH"
);
},
{
closed = 1;
nodes = (
"444 256 LINE SMOOTH",
"444 312 OFFCURVE",
"401 352 OFFCURVE",
"347 352 CURVE SMOOTH",
"295 352 OFFCURVE",
"251 312 OFFCURVE",
"251 256 CURVE SMOOTH",
"251 201 OFFCURVE",
"291 160 OFFCURVE",
"347 160 CURVE SMOOTH",
"407 160 OFFCURVE",
"444 201 OFFCURVE",
"444 256 CURVE SMOOTH"
);
}
);
width = 678;
},
{
associatedMasterId = "0ac4930a-26e9-4cfa-a42f-96cf237e936b";
layerId = "956CA07B-6B02-424A-A513-D972B6D36F65";
name = public.background;
width = 0;
},
{
hints = (
{
horizontal = 1;
place = "{-16, 26}";
type = Stem;
},
{
horizontal = 1;
place = "{502, 26}";
type = Stem;
},
{
horizontal = 1;
place = "{-260, -20}";
target = down;
type = TopGhost;
},
{
horizontal = 1;
place = "{512, -20}";
target = down;
type = TopGhost;
},
{
place = "{111, 28}";
type = Stem;
},
{
place = "{598, 27}";
type = Stem;
}
);
layerId = "0ac4930a-26e9-4cfa-a42f-96cf237e936b";
paths = (
{
closed = 1;
nodes = (
"111 512 LINE",
"111 -260 LINE",
"139 -260 LINE",
"139 131 LINE",
"180 41 OFFCURVE",
"265 -16 OFFCURVE",
"368 -16 CURVE SMOOTH",
"513 -16 OFFCURVE",
"625 96 OFFCURVE",
"625 256 CURVE SMOOTH",
"625 416 OFFCURVE",
"513 528 OFFCURVE",
"368 528 CURVE SMOOTH",
"265 528 OFFCURVE",
"180 472 OFFCURVE",
"139 382 CURVE",
"139 512 LINE"
);
},
{
closed = 1;
nodes = (
"136 256 LINE",
"136 401 OFFCURVE",
"233 502 OFFCURVE",
"367 502 CURVE SMOOTH",
"500 502 OFFCURVE",
"598 401 OFFCURVE",
"598 256 CURVE SMOOTH",
"598 112 OFFCURVE",
"500 10 OFFCURVE",
"367 10 CURVE SMOOTH",
"233 10 OFFCURVE",
"136 112 OFFCURVE",
"136 256 CURVE SMOOTH"
);
}
);
width = 700;
}
);
leftKerningGroup = _m;
rightKerningGroup = _b;
unicode = 0070;
},
{
color = (153,249,255,255);
glyphname = q;
lastChange = "2019-08-01 18:50:29 +0000";
layers = (
{
associatedMasterId = "9d3a33de-08d4-49ee-85e3-2813f64ed4e4";
layerId = "cf2a3b8c-bb53-4d9e-827a-d6f64e11d495";
name = public.background;
width = 0;
},
{
hints = (
{
horizontal = 1;
place = "{-260, -20}";
target = down;
type = TopGhost;
},
{
horizontal = 1;
place = "{-16, 176}";
type = Stem;
},
{
horizontal = 1;
place = "{512, -20}";
target = down;
type = TopGhost;
},
{
horizontal = 1;
place = "{352, 176}";
type = Stem;
},
{
place = "{14, 220}";
type = Stem;
},
{
place = "{423, 208}";
type = Stem;
}
);
layerId = "9d3a33de-08d4-49ee-85e3-2813f64ed4e4";
paths = (
{
closed = 1;
nodes = (
"14 256 LINE",
"14 108 OFFCURVE",
"116 -16 OFFCURVE",
"267 -16 CURVE SMOOTH",
"329 -16 OFFCURVE",
"383 9 OFFCURVE",
"423 40 CURVE",
"423 -260 LINE",
"631 -260 LINE",
"631 512 LINE",
"423 512 LINE",
"423 479 LINE",
"381 511 OFFCURVE",
"329 528 OFFCURVE",
"267 528 CURVE SMOOTH",
"116 528 OFFCURVE",
"14 404 OFFCURVE",
"14 256 CURVE SMOOTH"
);
},
{
closed = 1;
nodes = (
"234 256 LINE SMOOTH",
"234 312 OFFCURVE",
"277 352 OFFCURVE",
"331 352 CURVE SMOOTH",
"383 352 OFFCURVE",
"427 312 OFFCURVE",
"427 256 CURVE SMOOTH",
"427 201 OFFCURVE",
"387 160 OFFCURVE",
"331 160 CURVE SMOOTH",
"271 160 OFFCURVE",
"234 201 OFFCURVE",
"234 256 CURVE SMOOTH"
);
}
);
width = 678;
},
{
associatedMasterId = "0ac4930a-26e9-4cfa-a42f-96cf237e936b";
layerId = "AC2D2F9B-E1C3-44FC-B2F7-A417915000A9";
name = public.background;
width = 0;
},
{
hints = (
{
horizontal = 1;
place = "{-16, 26}";
type = Stem;
},
{
horizontal = 1;
place = "{502, 26}";
type = Stem;
},
{
horizontal = 1;
place = "{-260, -20}";
target = down;
type = TopGhost;
},
{
horizontal = 1;
place = "{512, -20}";
target = down;
type = TopGhost;
},
{
place = "{75, 27}";
type = Stem;
},
{
place = "{561, 28}";
type = Stem;
}
);
layerId = "0ac4930a-26e9-4cfa-a42f-96cf237e936b";
paths = (
{
closed = 1;
nodes = (
"75 256 LINE",
"75 96 OFFCURVE",
"187 -16 OFFCURVE",
"332 -16 CURVE SMOOTH",
"435 -16 OFFCURVE",
"520 41 OFFCURVE",
"561 131 CURVE",
"561 -260 LINE",
"589 -260 LINE",
"589 512 LINE",
"561 512 LINE",
"561 381 LINE",
"520 471 OFFCURVE",
"435 528 OFFCURVE",
"332 528 CURVE SMOOTH",
"187 528 OFFCURVE",
"75 416 OFFCURVE",
"75 256 CURVE SMOOTH"
);
},
{
closed = 1;
nodes = (
"102 256 LINE",
"102 401 OFFCURVE",
"200 502 OFFCURVE",
"333 502 CURVE SMOOTH",
"467 502 OFFCURVE",
"564 401 OFFCURVE",
"564 256 CURVE SMOOTH",
"564 112 OFFCURVE",
"467 10 OFFCURVE",
"333 10 CURVE SMOOTH",
"200 10 OFFCURVE",
"102 112 OFFCURVE",
"102 256 CURVE SMOOTH"
);
}
);
width = 700;
}
);
leftKerningGroup = _d;
rightKerningGroup = _A1;
unicode = 0071;
},
{
color = (153,249,255,255);
glyphname = r;
lastChange = "2019-08-01 18:50:29 +0000";
layers = (
{
hints = (
{
horizontal = 1;
place = "{512, -20}";
target = down;
type = TopGhost;
},
{
horizontal = 1;
place = "{348, 180}";
type = Stem;
},
{
horizontal = 1;
place = "{0, -20}";
target = down;
type = TopGhost;
},
{
place = "{49, 208}";
type = Stem;
}
);
layerId = "9d3a33de-08d4-49ee-85e3-2813f64ed4e4";
paths = (
{
closed = 1;
nodes = (
"49 512 LINE",
"49 0 LINE",
"257 0 LINE",
"257 251 LINE SMOOTH",
"257 257 OFFCURVE",
"262 348 OFFCURVE",
"354 348 CURVE SMOOTH",
"420 348 OFFCURVE",
"450 317 OFFCURVE",
"450 317 CURVE",
"537 492 LINE",
"537 492 OFFCURVE",
"490 528 OFFCURVE",
"418 528 CURVE SMOOTH",
"318 528 OFFCURVE",
"257 440 OFFCURVE",
"257 440 CURVE",
"257 512 LINE"
);
}
);
width = 525;
},
{
associatedMasterId = "0ac4930a-26e9-4cfa-a42f-96cf237e936b";
layerId = "D477A0E3-AB33-423E-A4B6-BC72A3115B3D";
name = public.background;
width = 0;
},
{
hints = (
{
horizontal = 1;
place = "{503, 25}";
type = Stem;
},
{
horizontal = 1;
place = "{512, -20}";
target = down;
type = TopGhost;
},
{
horizontal = 1;
place = "{0, -20}";
target = down;
type = TopGhost;
},
{
place = "{111, 28}";
type = Stem;
}
);
layerId = "0ac4930a-26e9-4cfa-a42f-96cf237e936b";
paths = (
{
closed = 1;
nodes = (
"111 512 LINE",
"111 0 LINE",
"139 0 LINE",
"139 367 LINE SMOOTH",
"139 414 OFFCURVE",
"189 503 OFFCURVE",
"284 503 CURVE SMOOTH",
"311 503 OFFCURVE",
"334 499 OFFCURVE",
"353 492 CURVE",
"364 516 LINE",
"342 524 OFFCURVE",
"316 528 OFFCURVE",
"284 528 CURVE SMOOTH",
"227 528 OFFCURVE",
"170 504 OFFCURVE",
"139 435 CURVE",
"139 512 LINE"
);
}
);
width = 364;
}
);
leftKerningGroup = _m;
rightKerningGroup = _r;
unicode = 0072;
},
{
color = (153,249,255,255);
glyphname = s;
lastChange = "2019-08-01 18:50:29 +0000";
layers = (
{
hints = (
{
horizontal = 1;
place = "{-16, 152}";
type = Stem;
},
{
horizontal = 1;
place = "{384, 144}";
type = Stem;
},
{
place = "{50, 198}";
type = Stem;
},
{
place = "{256, 219}";
type = Stem;
}
);
layerId = "9d3a33de-08d4-49ee-85e3-2813f64ed4e4";
paths = (
{
closed = 1;
nodes = (
"290 528 LINE SMOOTH",
"147 528 OFFCURVE",
"50 468 OFFCURVE",
"50 355 CURVE SMOOTH",
"50 279 OFFCURVE",
"96 242 OFFCURVE",
"147 213 CURVE SMOOTH",
"203 181 OFFCURVE",
"256 181 OFFCURVE",
"256 153 CURVE SMOOTH",
"256 142 OFFCURVE",
"248 136 OFFCURVE",
"218 136 CURVE SMOOTH",
"164 136 OFFCURVE",
"97 183 OFFCURVE",
"97 183 CURVE",
"15 39 LINE",
"15 39 OFFCURVE",
"85 -16 OFFCURVE",
"217 -16 CURVE SMOOTH",
"326 -16 OFFCURVE",
"475 2 OFFCURVE",
"475 161 CURVE SMOOTH",
"475 267 OFFCURVE",
"387 309 OFFCURVE",
"319 330 CURVE SMOOTH",
"277 343 OFFCURVE",
"248 347 OFFCURVE",
"248 367 CURVE SMOOTH",
"248 379 OFFCURVE",
"256 384 OFFCURVE",
"290 384 CURVE SMOOTH",
"344 384 OFFCURVE",
"405 360 OFFCURVE",
"405 360 CURVE",
"470 497 LINE",
"470 497 OFFCURVE",
"396 528 OFFCURVE",
"290 528 CURVE SMOOTH"
);
}
);
width = 496;
},
{
hints = (
{
horizontal = 1;
place = "{-16, 25}";
type = Stem;
},
{
horizontal = 1;
place = "{503, 25}";
type = Stem;
},
{
place = "{104, 26}";
type = Stem;
},
{
place = "{384, 25}";
type = Stem;
}
);
layerId = "0ac4930a-26e9-4cfa-a42f-96cf237e936b";
paths = (
{
closed = 1;
nodes = (
"249 528 LINE",
"154 528 OFFCURVE",
"104 469 OFFCURVE",
"104 404 CURVE SMOOTH",
"104 322 OFFCURVE",
"185 289 OFFCURVE",
"243 271 CURVE SMOOTH",
"309 251 OFFCURVE",
"384 228 OFFCURVE",
"384 148 CURVE SMOOTH",
"384 57 OFFCURVE",
"312 9 OFFCURVE",
"241 9 CURVE SMOOTH",
"168 9 OFFCURVE",
"111 54 OFFCURVE",
"85 131 CURVE",
"61 123 LINE",
"91 35 OFFCURVE",
"156 -16 OFFCURVE",
"241 -16 CURVE SMOOTH",
"325 -16 OFFCURVE",
"409 40 OFFCURVE",
"409 148 CURVE SMOOTH",
"409 247 OFFCURVE",
"321 274 OFFCURVE",
"251 295 CURVE SMOOTH",
"168 321 OFFCURVE",
"130 353 OFFCURVE",
"130 404 CURVE SMOOTH",
"130 457 OFFCURVE",
"167 503 OFFCURVE",
"249 503 CURVE SMOOTH",
"301 503 OFFCURVE",
"341 467 OFFCURVE",
"357 432 CURVE",
"380 443 LINE",
"360 485 OFFCURVE",
"312 528 OFFCURVE",
"249 528 CURVE"
);
}
);
width = 470;
}
);
leftKerningGroup = _s;
rightKerningGroup = _s;
unicode = 0073;
},
{
color = (153,249,255,255);
glyphname = t;
lastChange = "2019-08-01 18:50:29 +0000";
layers = (
{
hints = (
{
horizontal = 1;
place = "{-16, 186}";
type = Stem;
},
{
horizontal = 1;
place = "{354, 158}";
type = Stem;
},
{
horizontal = 1;
place = "{704, -20}";
target = down;
type = TopGhost;
},
{
place = "{85, 208}";
type = Stem;
}
);
layerId = "9d3a33de-08d4-49ee-85e3-2813f64ed4e4";
paths = (
{
closed = 1;
nodes = (
"5 512 LINE",
"5 354 LINE",
"85 354 LINE",
"85 194 LINE SMOOTH",
"85 97 OFFCURVE",
"123 -16 OFFCURVE",
"276 -16 CURVE SMOOTH",
"355 -16 OFFCURVE",
"419 19 OFFCURVE",
"419 19 CURVE",
"367 186 LINE",
"367 186 OFFCURVE",
"347 170 OFFCURVE",
"327 170 CURVE SMOOTH",
"304 170 OFFCURVE",
"293 190 OFFCURVE",
"293 235 CURVE SMOOTH",
"293 354 LINE",
"395 354 LINE",
"395 512 LINE",
"293 512 LINE",
"293 704 LINE",
"85 704 LINE",
"85 512 LINE"
);
}
);
width = 415;
},
{
hints = (
{
horizontal = 1;
place = "{-16, 24}";
type = Stem;
},
{
horizontal = 1;
place = "{491, 21}";
type = Stem;
},
{
horizontal = 1;
place = "{703, -20}";
target = down;
type = TopGhost;
},
{
place = "{112, 28}";
type = Stem;
}
);
layerId = "0ac4930a-26e9-4cfa-a42f-96cf237e936b";
paths = (
{
closed = 1;
nodes = (
"69 512 LINE",
"69 491 LINE",
"112 491 LINE",
"112 111 LINE SMOOTH",
"112 48 OFFCURVE",
"124 -16 OFFCURVE",
"209 -16 CURVE SMOOTH",
"255 -16 OFFCURVE",
"276 3 OFFCURVE",
"276 3 CURVE",
"269 25 LINE",
"269 25 OFFCURVE",
"248 8 OFFCURVE",
"213 8 CURVE SMOOTH",
"159 8 OFFCURVE",
"140 44 OFFCURVE",
"140 111 CURVE SMOOTH",
"140 491 LINE",
"276 491 LINE",
"276 512 LINE",
"140 512 LINE",
"140 703 LINE",
"112 703 LINE",
"112 512 LINE"
);
}
);
width = 295;
}
);
leftKerningGroup = _t;
rightKerningGroup = _t;
unicode = 0074;
},
{
color = (153,249,255,255);
glyphname = t.1;
lastChange = "2019-08-01 18:50:29 +0000";
layers = (
{
hints = (
{
horizontal = 1;
place = "{512, -158}";
type = Stem;
},
{
place = "{49, 208}";
type = Stem;
}
);
layerId = "9d3a33de-08d4-49ee-85e3-2813f64ed4e4";
paths = (
{
closed = 1;
nodes = (
"49 704 LINE",
"49 512 LINE",
"-27 512 LINE",
"-27 354 LINE",
"49 354 LINE",
"49 0 LINE",
"257 0 LINE",
"257 354 LINE",
"363 354 LINE",
"363 512 LINE",
"257 512 LINE",
"257 704 LINE"
);
}
);
width = 297;
},
{
hints = (
{
horizontal = 1;
place = "{491, 21}";
type = Stem;
},
{
horizontal = 1;
place = "{703, -20}";
target = down;
type = TopGhost;
},
{
horizontal = 1;
place = "{0, -20}";
target = down;
type = TopGhost;
},
{
place = "{112, 28}";
type = Stem;
}
);
layerId = "0ac4930a-26e9-4cfa-a42f-96cf237e936b";
paths = (
{
closed = 1;
nodes = (
"112 703 LINE",
"112 512 LINE",
"49 512 LINE",
"49 491 LINE",
"112 491 LINE",
"112 0 LINE",
"140 0 LINE",
"140 491 LINE",
"256 491 LINE",
"256 512 LINE",
"140 512 LINE",
"140 703 LINE"
);
}
);
width = 295;
}
);
},
{
color = (153,249,255,255);
glyphname = u;
lastChange = "2019-08-01 18:50:29 +0000";
layers = (
{
hints = (
{
horizontal = 1;
place = "{-16, 168}";
type = Stem;
},
{
horizontal = 1;
place = "{512, -20}";
target = down;
type = TopGhost;
},
{
place = "{40, 208}";
type = Stem;
},
{
place = "{424, 208}";
type = Stem;
}
);
layerId = "9d3a33de-08d4-49ee-85e3-2813f64ed4e4";
paths = (
{
closed = 1;
nodes = (
"424 512 LINE",
"424 279 LINE SMOOTH",
"424 191 OFFCURVE",
"405 152 OFFCURVE",
"336 152 CURVE SMOOTH",
"267 152 OFFCURVE",
"248 191 OFFCURVE",
"248 279 CURVE SMOOTH",
"248 512 LINE",
"40 512 LINE",
"40 227 LINE SMOOTH",
"40 54 OFFCURVE",
"130 -16 OFFCURVE",
"336 -16 CURVE SMOOTH",
"542 -16 OFFCURVE",
"632 54 OFFCURVE",
"632 227 CURVE SMOOTH",
"632 512 LINE"
);
}
);
width = 672;
},
{
hints = (
{
horizontal = 1;
place = "{-16, 26}";
type = Stem;
},
{
horizontal = 1;
place = "{512, -20}";
target = down;
type = TopGhost;
},
{
place = "{103, 28}";
type = Stem;
},
{
place = "{455, 28}";
type = Stem;
}
);
layerId = "0ac4930a-26e9-4cfa-a42f-96cf237e936b";
paths = (
{
closed = 1;
nodes = (
"103 512 LINE",
"103 207 LINE SMOOTH",
"103 40 OFFCURVE",
"159 -16 OFFCURVE",
"293 -16 CURVE SMOOTH",
"427 -16 OFFCURVE",
"483 40 OFFCURVE",
"483 207 CURVE SMOOTH",
"483 512 LINE",
"455 512 LINE",
"455 207 LINE SMOOTH",
"455 43 OFFCURVE",
"391 10 OFFCURVE",
"293 10 CURVE SMOOTH",
"195 10 OFFCURVE",
"131 43 OFFCURVE",
"131 207 CURVE SMOOTH",
"131 512 LINE"
);
}
);
width = 586;
}
);
leftKerningGroup = _u;
rightKerningGroup = _u;
unicode = 0075;
},
{
color = (153,249,255,255);
glyphname = u.1;
lastChange = "2019-08-01 18:50:29 +0000";
layers = (
{
hints = (
{
horizontal = 1;
place = "{0, -20}";
target = down;
type = TopGhost;
},
{
horizontal = 1;
place = "{145, -161}";
type = Stem;
},
{
horizontal = 1;
place = "{512, -20}";
target = down;
type = TopGhost;
},
{
place = "{623, -208}";
type = Stem;
},
{
place = "{247, -208}";
type = Stem;
}
);
layerId = "9d3a33de-08d4-49ee-85e3-2813f64ed4e4";
paths = (
{
closed = 1;
nodes = (
"623 0 LINE",
"623 512 LINE",
"415 512 LINE",
"415 234 LINE SMOOTH",
"415 188 OFFCURVE",
"374 145 OFFCURVE",
"323 145 CURVE SMOOTH",
"276 145 OFFCURVE",
"247 181 OFFCURVE",
"247 226 CURVE SMOOTH",
"247 512 LINE",
"39 512 LINE",
"39 170 LINE SMOOTH",
"39 23 OFFCURVE",
"186 -16 OFFCURVE",
"269 -16 CURVE SMOOTH",
"325 -16 OFFCURVE",
"380 13 OFFCURVE",
"415 48 CURVE",
"415 0 LINE"
);
}
);
width = 673;
},
{
hints = (
{
horizontal = 1;
place = "{9, -25}";
type = Stem;
},
{
place = "{103, 28}";
type = Stem;
},
{
place = "{463, 28}";
type = Stem;
}
);
layerId = "0ac4930a-26e9-4cfa-a42f-96cf237e936b";
paths = (
{
closed = 1;
nodes = (
"103 512 LINE",
"103 192 LINE SMOOTH",
"103 72 OFFCURVE",
"154 -16 OFFCURVE",
"299 -16 CURVE SMOOTH",
"356 -16 OFFCURVE",
"436 11 OFFCURVE",
"463 77 CURVE",
"463 0 LINE",
"491 0 LINE",
"491 512 LINE",
"463 512 LINE",
"463 161 LINE SMOOTH",
"463 88 OFFCURVE",
"403 9 OFFCURVE",
"299 9 CURVE SMOOTH",
"183 9 OFFCURVE",
"131 79 OFFCURVE",
"131 201 CURVE SMOOTH",
"131 512 LINE"
);
}
);
width = 602;
}
);
},
{
color = (153,249,255,255);
glyphname = v;
lastChange = "2019-08-01 18:50:29 +0000";
layers = (
{
hints = (
{
horizontal = 1;
place = "{0, -20}";
target = down;
type = TopGhost;
},
{
horizontal = 1;
place = "{512, -20}";
target = down;
type = TopGhost;
},
{
place = "{-25, 706}";
type = Stem;
}
);
layerId = "9d3a33de-08d4-49ee-85e3-2813f64ed4e4";
paths = (
{
closed = 1;
nodes = (
"-25 512 LINE",
"258 0 LINE",
"398 0 LINE",
"681 512 LINE",
"435 512 LINE",
"328 270 LINE",
"221 512 LINE"
);
}
);
width = 656;
},
{
hints = (
{
horizontal = 1;
place = "{512, -20}";
target = down;
type = TopGhost;
},
{
horizontal = 1;
place = "{0, -20}";
target = down;
type = TopGhost;
},
{
place = "{5, 492}";
type = Stem;
}
);
layerId = "0ac4930a-26e9-4cfa-a42f-96cf237e936b";
paths = (
{
closed = 1;
nodes = (
"5 512 LINE",
"242 0 LINE",
"260 0 LINE",
"497 512 LINE",
"465 512 LINE",
"251 49 LINE",
"37 512 LINE"
);
}
);
width = 502;
}
);
leftKerningGroup = _v;
rightKerningGroup = _v;
unicode = 0076;
},
{
color = (153,249,255,255);
glyphname = w;
lastChange = "2019-08-01 18:50:29 +0000";
layers = (
{
hints = (
{
horizontal = 1;
place = "{0, -20}";
target = down;
type = TopGhost;
},
{
horizontal = 1;
place = "{512, -20}";
target = down;
type = TopGhost;
},
{
place = "{-25, 1058}";
type = Stem;
}
);
layerId = "9d3a33de-08d4-49ee-85e3-2813f64ed4e4";
paths = (
{
closed = 1;
nodes = (
"-25 512 LINE",
"258 0 LINE",
"398 0 LINE",
"504 226 LINE",
"610 0 LINE",
"750 0 LINE",
"1033 512 LINE",
"795 512 LINE",
"687 272 LINE",
"575 512 LINE",
"433 512 LINE",
"321 272 LINE",
"213 512 LINE"
);
}
);
width = 1008;
},
{
hints = (
{
place = "{5, 866}";
type = Stem;
},
{
horizontal = 1;
place = "{512, -20}";
target = down;
type = TopGhost;
},
{
horizontal = 1;
place = "{0, -20}";
target = down;
type = TopGhost;
}
);
layerId = "0ac4930a-26e9-4cfa-a42f-96cf237e936b";
paths = (
{
closed = 1;
nodes = (
"5 512 LINE",
"242 0 LINE",
"260 0 LINE",
"438 456 LINE",
"616 0 LINE",
"634 0 LINE",
"871 512 LINE",
"839 512 LINE",
"625 49 LINE",
"447 512 LINE",
"429 512 LINE",
"251 49 LINE",
"37 512 LINE"
);
}
);
width = 876;
}
);
leftKerningGroup = _v;
rightKerningGroup = _v;
unicode = 0077;
},
{
color = (153,249,255,255);
glyphname = x;
lastChange = "2019-08-01 18:50:29 +0000";
layers = (
{
hints = (
{
horizontal = 1;
place = "{0, -20}";
target = down;
type = TopGhost;
},
{
horizontal = 1;
place = "{512, -20}";
target = down;
type = TopGhost;
},
{
place = "{-15, 690}";
type = Stem;
}
);
layerId = "9d3a33de-08d4-49ee-85e3-2813f64ed4e4";
paths = (
{
closed = 1;
nodes = (
"17 512 LINE",
"205 270 LINE",
"-15 0 LINE",
"235 0 LINE",
"330 124 LINE",
"425 0 LINE",
"675 0 LINE",
"455 270 LINE",
"643 512 LINE",
"401 512 LINE",
"330 415 LINE",
"259 512 LINE"
);
}
);
width = 660;
},
{
associatedMasterId = "0ac4930a-26e9-4cfa-a42f-96cf237e936b";
layerId = "8D44CACE-A548-4438-AC62-8534E51D8A93";
name = public.background;
width = 0;
},
{
hints = (
{
horizontal = 1;
place = "{512, -20}";
target = down;
type = TopGhost;
},
{
horizontal = 1;
place = "{0, -20}";
target = down;
type = TopGhost;
},
{
place = "{48, 416}";
type = Stem;
}
);
layerId = "0ac4930a-26e9-4cfa-a42f-96cf237e936b";
paths = (
{
closed = 1;
nodes = (
"48 512 LINE",
"235 262 LINE",
"20 0 LINE",
"52 0 LINE",
"256 249 LINE",
"460 0 LINE",
"492 0 LINE",
"277 262 LINE",
"464 512 LINE",
"433 512 LINE",
"256 281 LINE",
"79 512 LINE"
);
}
);
width = 512;
}
);
rightKerningGroup = _A1;
unicode = 0078;
},
{
color = (153,249,255,255);
glyphname = y;
lastChange = "2019-08-01 18:50:29 +0000";
layers = (
{
hints = (
{
horizontal = 1;
place = "{-260, -20}";
target = down;
type = TopGhost;
},
{
horizontal = 1;
place = "{512, -20}";
target = down;
type = TopGhost;
},
{
place = "{-24, 708}";
type = Stem;
}
);
layerId = "9d3a33de-08d4-49ee-85e3-2813f64ed4e4";
paths = (
{
closed = 1;
nodes = (
"-24 512 LINE",
"219 99 LINE",
"27 -260 LINE",
"266 -260 LINE",
"684 512 LINE",
"445 512 LINE",
"341 296 LINE",
"215 512 LINE"
);
}
);
width = 660;
},
{
hints = (
{
horizontal = 1;
place = "{512, -20}";
target = down;
type = TopGhost;
},
{
horizontal = 1;
place = "{-260, -20}";
target = down;
type = TopGhost;
},
{
place = "{5, 500}";
type = Stem;
}
);
layerId = "0ac4930a-26e9-4cfa-a42f-96cf237e936b";
paths = (
{
closed = 1;
nodes = (
"5 512 LINE",
"249 -16 LINE",
"145 -260 LINE",
"175 -260 LINE",
"505 512 LINE",
"474 512 LINE",
"264 18 LINE",
"36 512 LINE"
);
}
);
width = 510;
}
);
leftKerningGroup = _v;
rightKerningGroup = _v;
unicode = 0079;
},
{
color = (153,249,255,255);
glyphname = z;
lastChange = "2019-08-01 18:50:29 +0000";
layers = (
{
hints = (
{
horizontal = 1;
place = "{0, 156}";
type = Stem;
},
{
horizontal = 1;
place = "{356, 156}";
type = Stem;
},
{
place = "{-1, 562}";
type = Stem;
}
);
layerId = "9d3a33de-08d4-49ee-85e3-2813f64ed4e4";
paths = (
{
closed = 1;
nodes = (
"42 512 LINE",
"42 356 LINE",
"217 356 LINE",
"-1 0 LINE",
"539 0 LINE",
"539 156 LINE",
"343 156 LINE",
"561 512 LINE"
);
}
);
width = 560;
},
{
hints = (
{
horizontal = 1;
place = "{0, 28}";
type = Stem;
},
{
horizontal = 1;
place = "{484, 28}";
type = Stem;
},
{
place = "{35, 495}";
type = Stem;
}
);
layerId = "0ac4930a-26e9-4cfa-a42f-96cf237e936b";
paths = (
{
closed = 1;
nodes = (
"72 512 LINE",
"72 484 LINE",
"467 484 LINE",
"35 0 LINE",
"522 0 LINE",
"522 28 LINE",
"97 28 LINE",
"530 512 LINE"
);
}
);
width = 565;
}
);
rightKerningGroup = _A1;
unicode = 007A;
},
{
color = (153,249,255,255);
glyphname = braceleft;
lastChange = "2019-08-01 18:50:29 +0000";
layers = (
{
hints = (
{
horizontal = 1;
place = "{-260, 148}";
type = Stem;
},
{
horizontal = 1;
place = "{246, 108}";
type = Stem;
},
{
horizontal = 1;
place = "{712, 148}";
type = Stem;
},
{
place = "{133, 178}";
type = Stem;
}
);
layerId = "9d3a33de-08d4-49ee-85e3-2813f64ed4e4";
paths = (
{
closed = 1;
nodes = (
"55 354 LINE",
"55 246 LINE",
"102 246 OFFCURVE",
"133 226 OFFCURVE",
"133 177 CURVE SMOOTH",
"133 -79 LINE SMOOTH",
"133 -162 OFFCURVE",
"164 -260 OFFCURVE",
"292 -260 CURVE SMOOTH",
"405 -260 LINE",
"405 -112 LINE",
"360 -112 LINE SMOOTH",
"336 -112 OFFCURVE",
"311 -89 OFFCURVE",
"311 -61 CURVE SMOOTH",
"311 179 LINE SMOOTH",
"311 242 OFFCURVE",
"279 280 OFFCURVE",
"240 300 CURVE",
"279 320 OFFCURVE",
"311 356 OFFCURVE",
"311 421 CURVE SMOOTH",
"311 661 LINE SMOOTH",
"311 689 OFFCURVE",
"336 712 OFFCURVE",
"360 712 CURVE SMOOTH",
"405 712 LINE",
"405 860 LINE",
"292 860 LINE SMOOTH",
"164 860 OFFCURVE",
"133 762 OFFCURVE",
"133 679 CURVE SMOOTH",
"133 423 LINE SMOOTH",
"133 374 OFFCURVE",
"102 354 OFFCURVE",
"55 354 CURVE"
);
}
);
width = 483;
},
{
hints = (
{
horizontal = 1;
place = "{-260, 28}";
type = Stem;
},
{
horizontal = 1;
place = "{832, 28}";
type = Stem;
},
{
horizontal = 1;
place = "{288, 24}";
type = Stem;
},
{
place = "{116, 28}";
type = Stem;
}
);
layerId = "0ac4930a-26e9-4cfa-a42f-96cf237e936b";
paths = (
{
closed = 1;
nodes = (
"83 312 LINE",
"83 288 LINE",
"106 288 OFFCURVE",
"116 276 OFFCURVE",
"116 245 CURVE SMOOTH",
"116 -79 LINE SMOOTH",
"116 -162 OFFCURVE",
"147 -260 OFFCURVE",
"275 -260 CURVE SMOOTH",
"290 -260 LINE",
"290 -232 LINE",
"275 -232 LINE SMOOTH",
"184 -232 OFFCURVE",
"144 -177 OFFCURVE",
"144 -79 CURVE SMOOTH",
"144 262 LINE SMOOTH",
"144 282 OFFCURVE",
"140 294 OFFCURVE",
"130 300 CURVE",
"140 306 OFFCURVE",
"144 318 OFFCURVE",
"144 338 CURVE",
"144 679 LINE SMOOTH",
"144 777 OFFCURVE",
"184 832 OFFCURVE",
"275 832 CURVE SMOOTH",
"290 832 LINE",
"290 860 LINE",
"275 860 LINE SMOOTH",
"147 860 OFFCURVE",
"116 762 OFFCURVE",
"116 679 CURVE SMOOTH",
"116 355 LINE SMOOTH",
"116 324 OFFCURVE",
"106 312 OFFCURVE",
"83 312 CURVE"
);
}
);
width = 260;
}
);
rightKerningGroup = _A1;
unicode = 007B;
},
{
color = (153,249,255,255);
glyphname = bar;
lastChange = "2019-08-01 18:50:29 +0000";
layers = (
{
hints = (
{
horizontal = 1;
place = "{0, -20}";
target = down;
type = TopGhost;
},
{
horizontal = 1;
place = "{860, -20}";
target = down;
type = TopGhost;
},
{
place = "{49, 178}";
type = Stem;
}
);
layerId = "9d3a33de-08d4-49ee-85e3-2813f64ed4e4";
paths = (
{
closed = 1;
nodes = (
"49 860 LINE",
"49 0 LINE",
"227 0 LINE",
"227 860 LINE"
);
}
);
width = 276;
},
{
hints = (
{
horizontal = 1;
place = "{860, -20}";
target = down;
type = TopGhost;
},
{
horizontal = 1;
place = "{0, -20}";
target = down;
type = TopGhost;
},
{
place = "{116, 28}";
type = Stem;
}
);
layerId = "0ac4930a-26e9-4cfa-a42f-96cf237e936b";
paths = (
{
closed = 1;
nodes = (
"116 860 LINE",
"116 0 LINE",
"144 0 LINE",
"144 860 LINE"
);
}
);
width = 260;
}
);
leftKerningGroup = _I;
rightKerningGroup = _A1;
unicode = 007C;
},
{
color = (153,249,255,255);
glyphname = braceright;
lastChange = "2019-08-01 18:50:29 +0000";
layers = (
{
hints = (
{
horizontal = 1;
place = "{-260, 148}";
type = Stem;
},
{
horizontal = 1;
place = "{246, 108}";
type = Stem;
},
{
horizontal = 1;
place = "{712, 148}";
type = Stem;
},
{
place = "{172, 178}";
type = Stem;
}
);
layerId = "9d3a33de-08d4-49ee-85e3-2813f64ed4e4";
paths = (
{
closed = 1;
nodes = (
"78 860 LINE",
"78 712 LINE",
"123 712 LINE SMOOTH",
"147 712 OFFCURVE",
"172 689 OFFCURVE",
"172 661 CURVE SMOOTH",
"172 421 LINE SMOOTH",
"172 356 OFFCURVE",
"204 320 OFFCURVE",
"243 300 CURVE",
"204 280 OFFCURVE",
"172 242 OFFCURVE",
"172 179 CURVE SMOOTH",
"172 -61 LINE SMOOTH",
"172 -89 OFFCURVE",
"147 -112 OFFCURVE",
"123 -112 CURVE SMOOTH",
"78 -112 LINE",
"78 -260 LINE",
"191 -260 LINE SMOOTH",
"319 -260 OFFCURVE",
"350 -162 OFFCURVE",
"350 -79 CURVE SMOOTH",
"350 177 LINE SMOOTH",
"350 226 OFFCURVE",
"381 246 OFFCURVE",
"428 246 CURVE",
"428 354 LINE",
"381 354 OFFCURVE",
"350 374 OFFCURVE",
"350 423 CURVE SMOOTH",
"350 679 LINE SMOOTH",
"350 762 OFFCURVE",
"319 860 OFFCURVE",
"191 860 CURVE SMOOTH"
);
}
);
width = 483;
},
{
hints = (
{
horizontal = 1;
place = "{-260, 28}";
type = Stem;
},
{
horizontal = 1;
place = "{832, 28}";
type = Stem;
},
{
horizontal = 1;
place = "{288, 24}";
type = Stem;
},
{
place = "{116, 28}";
type = Stem;
}
);
layerId = "0ac4930a-26e9-4cfa-a42f-96cf237e936b";
paths = (
{
closed = 1;
nodes = (
"-30 860 LINE",
"-30 832 LINE",
"-15 832 LINE SMOOTH",
"76 832 OFFCURVE",
"116 777 OFFCURVE",
"116 679 CURVE SMOOTH",
"116 338 LINE",
"116 318 OFFCURVE",
"120 306 OFFCURVE",
"130 300 CURVE",
"120 294 OFFCURVE",
"116 282 OFFCURVE",
"116 262 CURVE SMOOTH",
"116 -79 LINE SMOOTH",
"116 -177 OFFCURVE",
"76 -232 OFFCURVE",
"-15 -232 CURVE SMOOTH",
"-30 -232 LINE",
"-30 -260 LINE",
"-15 -260 LINE SMOOTH",
"113 -260 OFFCURVE",
"144 -162 OFFCURVE",
"144 -79 CURVE SMOOTH",
"144 245 LINE SMOOTH",
"144 276 OFFCURVE",
"154 288 OFFCURVE",
"177 288 CURVE",
"177 312 LINE",
"154 312 OFFCURVE",
"144 324 OFFCURVE",
"144 355 CURVE SMOOTH",
"144 679 LINE SMOOTH",
"144 762 OFFCURVE",
"113 860 OFFCURVE",
"-15 860 CURVE SMOOTH"
);
}
);
width = 260;
}
);
rightKerningGroup = _A1;
unicode = 007D;
},
{
color = (153,154,255,255);
glyphname = asciitilde;
lastChange = "2019-08-01 18:50:29 +0000";
layers = (
{
associatedMasterId = "9d3a33de-08d4-49ee-85e3-2813f64ed4e4";
layerId = "cf2a3b8c-bb53-4d9e-827a-d6f64e11d495";
name = public.background;
width = 0;
},
{
hints = (
{
horizontal = 1;
place = "{375, 164}";
type = Stem;
},
{
horizontal = 1;
place = "{288, 164}";
type = Stem;
},
{
place = "{57, 596}";
type = Stem;
}
);
layerId = "9d3a33de-08d4-49ee-85e3-2813f64ed4e4";
paths = (
{
closed = 1;
nodes = (
"653 435 LINE",
"545 529 LINE",
"545 529 OFFCURVE",
"522 452 OFFCURVE",
"468 452 CURVE SMOOTH",
"443 452 OFFCURVE",
"420 471 OFFCURVE",
"399 483 CURVE SMOOTH",
"355 509 OFFCURVE",
"314 539 OFFCURVE",
"242 539 CURVE SMOOTH",
"127 539 OFFCURVE",
"61 401 OFFCURVE",
"57 392 CURVE",
"164 297 LINE",
"164 297 OFFCURVE",
"187 375 OFFCURVE",
"242 375 CURVE SMOOTH",
"267 375 OFFCURVE",
"290 356 OFFCURVE",
"311 344 CURVE SMOOTH",
"355 318 OFFCURVE",
"396 288 OFFCURVE",
"468 288 CURVE SMOOTH",
"582 288 OFFCURVE",
"649 426 OFFCURVE",
"653 435 CURVE"
);
}
);
width = 707;
},
{
hints = (
{
horizontal = 1;
place = "{443, 25}";
type = Stem;
},
{
horizontal = 1;
place = "{363, 25}";
type = Stem;
},
{
place = "{74, 478}";
type = Stem;
}
);
layerId = "0ac4930a-26e9-4cfa-a42f-96cf237e936b";
paths = (
{
closed = 1;
nodes = (
"74 382 LINE",
"93 365 LINE",
"117 407 OFFCURVE",
"157 443 OFFCURVE",
"212 443 CURVE SMOOTH",
"232 443 OFFCURVE",
"266 438 OFFCURVE",
"305 406 CURVE SMOOTH",
"351 369 OFFCURVE",
"390 363 OFFCURVE",
"414 363 CURVE SMOOTH",
"478 363 OFFCURVE",
"525 403 OFFCURVE",
"552 449 CURVE",
"533 466 LINE",
"509 424 OFFCURVE",
"469 388 OFFCURVE",
"414 388 CURVE SMOOTH",
"394 388 OFFCURVE",
"360 393 OFFCURVE",
"321 425 CURVE SMOOTH",
"275 462 OFFCURVE",
"236 468 OFFCURVE",
"212 468 CURVE SMOOTH",
"148 468 OFFCURVE",
"101 428 OFFCURVE",
"74 382 CURVE"
);
}
);
width = 626;
}
);
rightKerningGroup = _A1;
unicode = 007E;
},
{
color = (153,249,255,255);
glyphname = exclamdown;
lastChange = "2019-08-01 18:50:29 +0000";
layers = (
{
hints = (
{
horizontal = 1;
place = "{349, 266}";
type = Stem;
},
{
horizontal = 1;
place = "{-261, -20}";
target = down;
type = TopGhost;
},
{
place = "{49, 266}";
type = Stem;
},
{
place = "{79, 208}";
type = Stem;
}
);
layerId = "9d3a33de-08d4-49ee-85e3-2813f64ed4e4";
paths = (
{
closed = 1;
nodes = (
"287 -261 LINE",
"258 309 LINE",
"108 309 LINE",
"79 -261 LINE"
);
},
{
closed = 1;
nodes = (
"182 349 LINE",
"256 349 OFFCURVE",
"315 408 OFFCURVE",
"315 482 CURVE SMOOTH",
"315 556 OFFCURVE",
"256 615 OFFCURVE",
"182 615 CURVE SMOOTH",
"108 615 OFFCURVE",
"49 556 OFFCURVE",
"49 482 CURVE SMOOTH",
"49 408 OFFCURVE",
"108 349 OFFCURVE",
"182 349 CURVE SMOOTH"
);
}
);
width = 364;
},
{
hints = (
{
horizontal = 1;
place = "{567, 48}";
type = Stem;
},
{
horizontal = 1;
place = "{-260, -20}";
target = down;
type = TopGhost;
},
{
place = "{127, 26}";
type = Stem;
},
{
place = "{164, -48}";
type = Stem;
}
);
layerId = "0ac4930a-26e9-4cfa-a42f-96cf237e936b";
paths = (
{
closed = 1;
nodes = (
"140 615 LINE",
"127 615 OFFCURVE",
"116 604 OFFCURVE",
"116 591 CURVE SMOOTH",
"116 578 OFFCURVE",
"127 567 OFFCURVE",
"140 567 CURVE SMOOTH",
"153 567 OFFCURVE",
"164 578 OFFCURVE",
"164 591 CURVE SMOOTH",
"164 604 OFFCURVE",
"153 615 OFFCURVE",
"140 615 CURVE"
);
},
{
closed = 1;
nodes = (
"127 431 LINE",
"127 -260 LINE",
"153 -260 LINE",
"153 431 LINE"
);
}
);
width = 280;
}
);
rightKerningGroup = _A1;
unicode = 00A1;
},
{
color = (153,249,255,255);
glyphname = cent;
lastChange = "2019-08-01 18:50:29 +0000";
layers = (
{
associatedMasterId = "9d3a33de-08d4-49ee-85e3-2813f64ed4e4";
layerId = "cf2a3b8c-bb53-4d9e-827a-d6f64e11d495";
name = public.background;
width = 0;
},
{
hints = (
{
horizontal = 1;
place = "{-129, -20}";
target = down;
type = TopGhost;
},
{
horizontal = 1;
place = "{636, -20}";
target = down;
type = TopGhost;
},
{
horizontal = 1;
place = "{359, 168}";
type = Stem;
},
{
horizontal = 1;
place = "{153, -165}";
type = Stem;
},
{
place = "{14, 220}";
type = Stem;
},
{
place = "{200, 125}";
type = Stem;
},
{
place = "{232, 125}";
type = Stem;
}
);
layerId = "9d3a33de-08d4-49ee-85e3-2813f64ed4e4";
paths = (
{
closed = 1;
nodes = (
"232 -129 LINE",
"357 -129 LINE",
"357 -12 LINE",
"431 0 OFFCURVE",
"471 30 OFFCURVE",
"471 30 CURVE",
"403 170 LINE",
"384 158 OFFCURVE",
"366 153 OFFCURVE",
"331 153 CURVE SMOOTH",
"279 153 OFFCURVE",
"234 201 OFFCURVE",
"234 256 CURVE SMOOTH",
"234 311 OFFCURVE",
"279 359 OFFCURVE",
"331 359 CURVE SMOOTH",
"366 359 OFFCURVE",
"384 354 OFFCURVE",
"403 342 CURVE",
"471 482 LINE",
"471 482 OFFCURVE",
"421 521 OFFCURVE",
"325 527 CURVE",
"325 636 LINE",
"200 636 LINE",
"200 509 LINE",
"95 469 OFFCURVE",
"14 370 OFFCURVE",
"14 256 CURVE SMOOTH",
"14 130 OFFCURVE",
"112 23 OFFCURVE",
"232 -7 CURVE"
);
}
);
width = 470;
},
{
hints = (
{
horizontal = 1;
place = "{-16, 21}";
type = Stem;
},
{
horizontal = 1;
place = "{508, 20}";
type = Stem;
},
{
horizontal = 1;
place = "{636, -20}";
target = down;
type = TopGhost;
},
{
horizontal = 1;
place = "{-129, -20}";
target = down;
type = TopGhost;
},
{
place = "{69, 25}";
type = Stem;
},
{
place = "{307, 22}";
type = Stem;
},
{
place = "{329, 23}";
type = Stem;
}
);
layerId = "0ac4930a-26e9-4cfa-a42f-96cf237e936b";
paths = (
{
closed = 1;
nodes = (
"307 636 LINE",
"307 526 LINE",
"170 510 OFFCURVE",
"69 403 OFFCURVE",
"69 256 CURVE SMOOTH",
"69 101 OFFCURVE",
"181 -10 OFFCURVE",
"329 -16 CURVE",
"329 -129 LINE",
"352 -129 LINE",
"352 -16 LINE",
"416 -14 OFFCURVE",
"474 7 OFFCURVE",
"519 44 CURVE",
"509 64 LINE",
"466 26 OFFCURVE",
"408 5 OFFCURVE",
"342 5 CURVE SMOOTH",
"199 5 OFFCURVE",
"94 108 OFFCURVE",
"94 256 CURVE SMOOTH",
"94 404 OFFCURVE",
"199 508 OFFCURVE",
"342 508 CURVE SMOOTH",
"408 508 OFFCURVE",
"466 485 OFFCURVE",
"509 447 CURVE",
"519 467 LINE",
"472 506 OFFCURVE",
"411 528 OFFCURVE",
"342 528 CURVE SMOOTH",
"335 528 OFFCURVE",
"329 528 OFFCURVE",
"329 528 CURVE",
"329 636 LINE"
);
}
);
width = 594;
}
);
leftKerningGroup = _c;
rightKerningGroup = _c;
unicode = 00A2;
},
{
color = (153,249,255,255);
glyphname = sterling;
lastChange = "2019-08-01 18:50:29 +0000";
layers = (
{
associatedMasterId = "9d3a33de-08d4-49ee-85e3-2813f64ed4e4";
layerId = "cf2a3b8c-bb53-4d9e-827a-d6f64e11d495";
name = public.background;
width = 0;
},
{
hints = (
{
horizontal = 1;
place = "{-15, 168}";
type = Stem;
},
{
horizontal = 1;
place = "{36, 157}";
type = Stem;
},
{
horizontal = 1;
place = "{282, 113}";
type = Stem;
},
{
horizontal = 1;
place = "{663, 178}";
type = Stem;
},
{
place = "{97, 218}";
type = Stem;
},
{
place = "{44, 134}";
type = Stem;
}
);
layerId = "9d3a33de-08d4-49ee-85e3-2813f64ed4e4";
paths = (
{
closed = 1;
nodes = (
"51 395 LINE",
"51 282 LINE",
"197 282 LINE",
"197 282 OFFCURVE",
"206 263 OFFCURVE",
"206 238 CURVE SMOOTH",
"206 207 OFFCURVE",
"192 193 OFFCURVE",
"192 193 CURVE",
"99 195 OFFCURVE",
"42 55 OFFCURVE",
"44 0 CURVE",
"178 0 LINE",
"178 22 OFFCURVE",
"189 36 OFFCURVE",
"207 36 CURVE SMOOTH",
"301 36 OFFCURVE",
"402 -15 OFFCURVE",
"524 -15 CURVE SMOOTH",
"691 -15 OFFCURVE",
"710 132 OFFCURVE",
"710 132 CURVE",
"550 211 LINE",
"550 211 OFFCURVE",
"547 153 OFFCURVE",
"499 153 CURVE SMOOTH",
"433 153 OFFCURVE",
"366 174 OFFCURVE",
"366 174 CURVE",
"391 201 OFFCURVE",
"397 245 OFFCURVE",
"397 282 CURVE",
"508 282 LINE",
"508 395 LINE",
"356 395 LINE",
"337 443 OFFCURVE",
"315 480 OFFCURVE",
"315 554 CURVE SMOOTH",
"315 619 OFFCURVE",
"336 663 OFFCURVE",
"382 663 CURVE SMOOTH",
"461 663 OFFCURVE",
"471 565 OFFCURVE",
"471 565 CURVE",
"656 656 LINE",
"656 656 OFFCURVE",
"616 841 OFFCURVE",
"382 841 CURVE SMOOTH",
"190 841 OFFCURVE",
"97 712 OFFCURVE",
"97 554 CURVE SMOOTH",
"97 486 OFFCURVE",
"118 435 OFFCURVE",
"143 395 CURVE"
);
}
);
width = 747;
},
{
associatedMasterId = "0ac4930a-26e9-4cfa-a42f-96cf237e936b";
layerId = "A898F4BD-BE36-4709-88FF-0C7611B87F10";
name = public.background;
width = 0;
},
{
hints = (
{
horizontal = 1;
place = "{-15, 26}";
type = Stem;
},
{
horizontal = 1;
place = "{80, 22}";
type = Stem;
},
{
horizontal = 1;
place = "{322, 23}";
type = Stem;
},
{
horizontal = 1;
place = "{818, 22}";
type = Stem;
},
{
place = "{144, 26}";
type = Stem;
},
{
place = "{272, 19}";
type = Stem;
},
{
place = "{74, 457}";
type = Stem;
}
);
layerId = "0ac4930a-26e9-4cfa-a42f-96cf237e936b";
paths = (
{
closed = 1;
nodes = (
"74 345 LINE",
"74 322 LINE",
"243 322 LINE",
"259 294 OFFCURVE",
"272 264 OFFCURVE",
"272 225 CURVE SMOOTH",
"272 176 OFFCURVE",
"261 134 OFFCURVE",
"248 101 CURVE",
"172 95 OFFCURVE",
"120 47 OFFCURVE",
"109 0 CURVE",
"127 0 LINE",
"141 41 OFFCURVE",
"188 80 OFFCURVE",
"265 80 CURVE SMOOTH",
"363 80 OFFCURVE",
"415 -15 OFFCURVE",
"546 -15 CURVE SMOOTH",
"633 -15 OFFCURVE",
"707 60 OFFCURVE",
"718 139 CURVE",
"692 152 LINE",
"686 89 OFFCURVE",
"634 11 OFFCURVE",
"546 11 CURVE SMOOTH",
"431 11 OFFCURVE",
"367 102 OFFCURVE",
"268 102 CURVE",
"281 135 OFFCURVE",
"291 177 OFFCURVE",
"291 225 CURVE SMOOTH",
"291 264 OFFCURVE",
"281 294 OFFCURVE",
"267 322 CURVE",
"531 322 LINE",
"531 345 LINE",
"254 345 LINE",
"218 403 OFFCURVE",
"170 458 OFFCURVE",
"170 578 CURVE SMOOTH",
"170 711 OFFCURVE",
"265 818 OFFCURVE",
"405 818 CURVE SMOOTH",
"567 818 OFFCURVE",
"636 713 OFFCURVE",
"655 621 CURVE",
"680 626 LINE",
"659 728 OFFCURVE",
"575 840 OFFCURVE",
"405 840 CURVE SMOOTH",
"256 840 OFFCURVE",
"144 726 OFFCURVE",
"144 578 CURVE SMOOTH",
"144 467 OFFCURVE",
"183 410 OFFCURVE",
"228 345 CURVE"
);
}
);
width = 761;
}
);
rightKerningGroup = _A1;
unicode = 00A3;
},
{
color = (153,249,255,255);
glyphname = yen;
lastChange = "2019-08-01 18:50:29 +0000";
layers = (
{
associatedMasterId = "9d3a33de-08d4-49ee-85e3-2813f64ed4e4";
layerId = "cf2a3b8c-bb53-4d9e-827a-d6f64e11d495";
name = public.background;
width = 0;
},
{
hints = (
{
horizontal = 1;
place = "{96, 155}";
type = Stem;
},
{
horizontal = 1;
place = "{294, 155}";
type = Stem;
},
{
horizontal = 1;
place = "{825, -20}";
target = down;
type = TopGhost;
},
{
place = "{72, 653}";
type = Stem;
},
{
place = "{289, 220}";
type = Stem;
}
);
layerId = "9d3a33de-08d4-49ee-85e3-2813f64ed4e4";
paths = (
{
closed = 1;
nodes = (
"-21 825 LINE",
"237 449 LINE",
"72 449 LINE",
"72 294 LINE",
"289 294 LINE",
"289 251 LINE",
"72 251 LINE",
"72 96 LINE",
"289 96 LINE",
"289 0 LINE",
"509 0 LINE",
"509 96 LINE",
"725 96 LINE",
"725 251 LINE",
"509 251 LINE",
"509 294 LINE",
"725 294 LINE",
"725 449 LINE",
"560 449 LINE",
"819 825 LINE",
"554 825 LINE",
"399 596 LINE",
"244 825 LINE"
);
}
);
width = 798;
},
{
hints = (
{
horizontal = 1;
place = "{180, 23}";
type = Stem;
},
{
horizontal = 1;
place = "{348, 23}";
type = Stem;
},
{
horizontal = 1;
place = "{825, -20}";
target = down;
type = TopGhost;
},
{
horizontal = 1;
place = "{0, -20}";
target = down;
type = TopGhost;
},
{
place = "{283, 29}";
type = Stem;
}
);
layerId = "0ac4930a-26e9-4cfa-a42f-96cf237e936b";
paths = (
{
closed = 1;
nodes = (
"9 825 LINE",
"273 371 LINE",
"92 371 LINE",
"92 348 LINE",
"283 348 LINE",
"283 203 LINE",
"92 203 LINE",
"92 180 LINE",
"283 180 LINE",
"283 0 LINE",
"312 0 LINE",
"312 180 LINE",
"503 180 LINE",
"503 203 LINE",
"312 203 LINE",
"312 348 LINE",
"503 348 LINE",
"503 371 LINE",
"322 371 LINE",
"586 825 LINE",
"552 825 LINE",
"297 386 LINE",
"43 825 LINE"
);
}
);
width = 595;
}
);
rightKerningGroup = _A1;
unicode = 00A5;
},
{
color = (153,249,255,255);
glyphname = brokenbar;
lastChange = "2019-08-01 18:50:29 +0000";
layers = (
{
hints = (
{
horizontal = 1;
place = "{860, -332}";
type = Stem;
},
{
horizontal = 1;
place = "{332, -332}";
type = Stem;
},
{
place = "{49, 178}";
type = Stem;
}
);
layerId = "9d3a33de-08d4-49ee-85e3-2813f64ed4e4";
paths = (
{
closed = 1;
nodes = (
"49 860 LINE",
"49 528 LINE",
"227 528 LINE",
"227 860 LINE"
);
},
{
closed = 1;
nodes = (
"49 332 LINE",
"49 0 LINE",
"227 0 LINE",
"227 332 LINE"
);
}
);
width = 276;
},
{
hints = (
{
horizontal = 1;
place = "{860, -332}";
type = Stem;
},
{
horizontal = 1;
place = "{332, -332}";
type = Stem;
},
{
place = "{116, 28}";
type = Stem;
}
);
layerId = "0ac4930a-26e9-4cfa-a42f-96cf237e936b";
paths = (
{
closed = 1;
nodes = (
"116 860 LINE",
"116 528 LINE",
"144 528 LINE",
"144 860 LINE"
);
},
{
closed = 1;
nodes = (
"116 332 LINE",
"116 0 LINE",
"144 0 LINE",
"144 332 LINE"
);
}
);
width = 260;
}
);
rightKerningGroup = _A1;
unicode = 00A6;
},
